SeanSans-NormalMedium.ufo
<glyph name="exclam" format="1">
  <advance width="255"/>
  <unicode hex="0021"/>
  <outline>
    <contour>
      <point x="167" y="229" type="line"/>
      <point x="177" y="722" type="line"/>
      <point x="76" y="722" type="line"/>
      <point x="86" y="229" type="line"/>
    </contour>
    <contour>
      <point x="181" y="39" type="curve"/>
      <point x="181" y="71"/>
      <point x="158" y="87"/>
      <point x="127" y="87" type="curve"/>
      <point x="95" y="87"/>
      <point x="74" y="70"/>
      <point x="74" y="39" type="curve"/>
      <point x="175" y="39"/>
      <point x="80" y="39"/>
      <point x="181" y="39" type="curve"/>
      <point x="181" y="7"/>
      <point x="159" y="-8"/>
      <point x="126" y="-8" type="curve"/>
      <point x="94" y="-8"/>
      <point x="74" y="8"/>
      <point x="74" y="39" type="curve"/>
      <point x="175" y="39"/>
      <point x="80" y="39"/>
    </contour>
  </outline>
</glyph>
<glyph name="quotedbl" format="1">
  <advance width="415"/>
  <unicode hex="0022"/>
  <outline>
    <contour>
      <point x="151" y="615" type="line"/>
      <point x="157" y="824" type="line"/>
      <point x="57" y="824" type="line"/>
      <point x="63" y="615" type="line"/>
    </contour>
    <contour>
      <point x="352" y="615" type="line"/>
      <point x="358" y="824" type="line"/>
      <point x="258" y="824" type="line"/>
      <point x="265" y="615" type="line"/>
    </contour>
  </outline>
</glyph>
<glyph name="numbersign" format="1">
  <advance width="704"/>
  <unicode hex="0023"/>
  <outline>
    <contour>
      <point x="38" y="230" type="curve"/>
      <point x="571" y="230" type="curve"/>
      <point x="594" y="301" type="curve"/>
      <point x="63" y="301" type="curve"/>
    </contour>
    <contour>
      <point x="110" y="457" type="curve"/>
      <point x="645" y="457" type="curve"/>
      <point x="668" y="528" type="curve"/>
      <point x="133" y="528" type="curve"/>
    </contour>
    <contour>
      <point x="432" y="39" type="curve"/>
      <point x="658" y="722" type="curve"/>
      <point x="566" y="722" type="curve"/>
      <point x="340" y="39" type="curve"/>
    </contour>
    <contour>
      <point x="150" y="46" type="curve"/>
      <point x="373" y="722" type="curve"/>
      <point x="281" y="722" type="curve"/>
      <point x="61" y="46" type="curve"/>
    </contour>
  </outline>
</glyph>
<glyph name="dollar" format="1">
  <advance width="579"/>
  <unicode hex="0024"/>
  <outline>
    <contour>
      <point x="313" y="-41" type="curve"/>
      <point x="313" y="-10"/>
      <point x="313" y="48"/>
      <point x="313" y="80" type="curve"/>
      <point x="221" y="80"/>
      <point x="313" y="80"/>
      <point x="221" y="80" type="curve"/>
      <point x="221" y="48"/>
      <point x="221" y="-10"/>
      <point x="221" y="-41" type="curve"/>
      <point x="313" y="-41"/>
      <point x="221" y="-41"/>
    </contour>
    <contour>
      <point x="326" y="649" type="curve"/>
      <point x="326" y="681"/>
      <point x="326" y="741"/>
      <point x="326" y="773" type="curve"/>
      <point x="234" y="773"/>
      <point x="326" y="773"/>
      <point x="234" y="773" type="curve"/>
      <point x="234" y="741"/>
      <point x="234" y="681"/>
      <point x="234" y="649" type="curve"/>
      <point x="326" y="649"/>
      <point x="234" y="649"/>
    </contour>
    <contour>
      <point x="45" y="95" type="curve"/>
      <point x="106" y="67"/>
      <point x="179" y="45"/>
      <point x="263" y="45" type="curve"/>
      <point x="413" y="45"/>
      <point x="537" y="90"/>
      <point x="537" y="211" type="curve"/>
      <point x="537" y="320"/>
      <point x="426" y="361"/>
      <point x="309" y="406" type="curve"/>
      <point x="224" y="439"/>
      <point x="147" y="461"/>
      <point x="147" y="530" type="curve"/>
      <point x="147" y="590"/>
      <point x="207" y="616"/>
      <point x="283" y="616" type="curve"/>
      <point x="351" y="616"/>
      <point x="398" y="602"/>
      <point x="461" y="573" type="curve"/>
      <point x="503" y="634"/>
      <point x="461" y="573"/>
      <point x="503" y="634" type="curve"/>
      <point x="430" y="668"/>
      <point x="371" y="686"/>
      <point x="287" y="686" type="curve"/>
      <point x="156" y="686"/>
      <point x="55" y="638"/>
      <point x="55" y="530" type="curve"/>
      <point x="55" y="426"/>
      <point x="144" y="385"/>
      <point x="255" y="342" type="curve"/>
      <point x="347" y="308"/>
      <point x="445" y="284"/>
      <point x="445" y="207" type="curve"/>
      <point x="445" y="140"/>
      <point x="365" y="115"/>
      <point x="272" y="115" type="curve"/>
      <point x="203" y="115"/>
      <point x="144" y="137"/>
      <point x="90" y="159" type="curve"/>
      <point x="45" y="94"/>
      <point x="90" y="159"/>
    </contour>
  </outline>
</glyph>
<glyph name="percent" format="1">
  <advance width="1122"/>
  <unicode hex="0025"/>
  <outline>
    <contour>
      <point x="392" y="-61" type="line"/>
      <point x="836" y="729" type="line"/>
      <point x="750" y="729" type="line"/>
      <point x="305" y="-61" type="line"/>
    </contour>
    <contour>
      <point x="117" y="518" type="curve"/>
      <point x="117" y="604"/>
      <point x="155" y="665"/>
      <point x="237" y="665" type="curve"/>
      <point x="320" y="666"/>
      <point x="358" y="605"/>
      <point x="358" y="517" type="curve"/>
      <point x="358" y="431"/>
      <point x="323" y="368"/>
      <point x="242" y="368" type="curve"/>
      <point x="157" y="368"/>
      <point x="117" y="429"/>
      <point x="117" y="518" type="curve"/>
      <point x="86" y="518"/>
      <point x="65" y="518"/>
      <point x="33" y="518" type="curve"/>
      <point x="33" y="385"/>
      <point x="107" y="300"/>
      <point x="238" y="300" type="curve"/>
      <point x="370" y="300"/>
      <point x="446" y="386"/>
      <point x="446" y="521" type="curve"/>
      <point x="446" y="651"/>
      <point x="370" y="733"/>
      <point x="241" y="733" type="curve"/>
      <point x="110" y="733"/>
      <point x="33" y="650"/>
      <point x="33" y="518" type="curve"/>
      <point x="65" y="518"/>
      <point x="86" y="518"/>
    </contour>
    <contour>
      <point x="761" y="152" type="curve"/>
      <point x="761" y="238"/>
      <point x="799" y="299"/>
      <point x="880" y="299" type="curve"/>
      <point x="963" y="300"/>
      <point x="1001" y="239"/>
      <point x="1001" y="151" type="curve"/>
      <point x="1001" y="64"/>
      <point x="967" y="1"/>
      <point x="886" y="1" type="curve"/>
      <point x="801" y="1"/>
      <point x="761" y="63"/>
      <point x="761" y="152" type="curve"/>
      <point x="729" y="152"/>
      <point x="708" y="152"/>
      <point x="677" y="152" type="curve"/>
      <point x="677" y="19"/>
      <point x="751" y="-66"/>
      <point x="881" y="-66" type="curve"/>
      <point x="1014" y="-66"/>
      <point x="1089" y="20"/>
      <point x="1089" y="154" type="curve"/>
      <point x="1089" y="285"/>
      <point x="1014" y="367"/>
      <point x="884" y="367" type="curve"/>
      <point x="753" y="367"/>
      <point x="677" y="284"/>
      <point x="677" y="152" type="curve"/>
      <point x="708" y="152"/>
      <point x="729" y="152"/>
    </contour>
  </outline>
</glyph>
<glyph name="ampersand" format="1">
  <advance width="723"/>
  <unicode hex="0026"/>
  <outline>
    <contour>
      <point x="699" y="40" type="line"/>
      <point x="590" y="142"/>
      <point x="471" y="259"/>
      <point x="359" y="365" type="curve"/>
      <point x="297" y="427"/>
      <point x="217" y="471"/>
      <point x="217" y="562" type="curve"/>
      <point x="217" y="617"/>
      <point x="251" y="656"/>
      <point x="306" y="656" type="curve"/>
      <point x="367" y="656"/>
      <point x="408" y="623"/>
      <point x="408" y="564" type="curve"/>
      <point x="408" y="479"/>
      <point x="339" y="445"/>
      <point x="262" y="406" type="curve"/>
      <point x="156" y="349"/>
      <point x="56" y="307"/>
      <point x="56" y="190" type="curve"/>
      <point x="56" y="61"/>
      <point x="162" y="-5"/>
      <point x="300" y="-5" type="curve"/>
      <point x="495" y="-5"/>
      <point x="608" y="125"/>
      <point x="675" y="315" type="curve"/>
      <point x="596" y="332"/>
      <point x="675" y="315"/>
      <point x="596" y="332" type="curve"/>
      <point x="541" y="179"/>
      <point x="459" y="66"/>
      <point x="304" y="66" type="curve"/>
      <point x="215" y="66"/>
      <point x="148" y="106"/>
      <point x="148" y="190" type="curve"/>
      <point x="148" y="277"/>
      <point x="222" y="307"/>
      <point x="301" y="349" type="curve"/>
      <point x="404" y="404"/>
      <point x="499" y="449"/>
      <point x="500" y="564" type="curve"/>
      <point x="500" y="669"/>
      <point x="419" y="727"/>
      <point x="310" y="727" type="curve"/>
      <point x="202" y="727"/>
      <point x="127" y="665"/>
      <point x="127" y="562" type="curve"/>
      <point x="127" y="453"/>
      <point x="216" y="396"/>
      <point x="295" y="322" type="curve"/>
      <point x="404" y="217"/>
      <point x="537" y="90"/>
      <point x="644" y="-12" type="curve"/>
    </contour>
  </outline>
</glyph>
<glyph name="quotesingle" format="1">
  <advance width="214"/>
  <unicode hex="0027"/>
  <outline>
    <contour>
      <point x="151" y="615" type="line"/>
      <point x="157" y="824" type="line"/>
      <point x="57" y="824" type="line"/>
      <point x="63" y="615" type="line"/>
    </contour>
  </outline>
</glyph>
<glyph name="parenleft" format="1">
  <advance width="374"/>
  <unicode hex="0028"/>
  <outline>
    <contour>
      <point x="372" y="-218" type="curve"/>
      <point x="208" y="-60"/>
      <point x="137" y="96"/>
      <point x="137" y="326" type="curve"/>
      <point x="137" y="556"/>
      <point x="209" y="711"/>
      <point x="371" y="873" type="curve"/>
      <point x="316" y="918"/>
      <point x="371" y="873"/>
      <point x="316" y="918" type="curve"/>
      <point x="135" y="744"/>
      <point x="46" y="579"/>
      <point x="46" y="326" type="curve"/>
      <point x="46" y="72"/>
      <point x="136" y="-92"/>
      <point x="317" y="-268" type="curve"/>
      <point x="372" y="-218"/>
      <point x="317" y="-268"/>
    </contour>
  </outline>
</glyph>
<glyph name="parenright" format="1">
  <advance width="386"/>
  <unicode hex="0029"/>
  <outline>
    <contour>
      <point x="55" y="-282" type="curve"/>
      <point x="239" y="-99"/>
      <point x="341" y="66"/>
      <point x="341" y="328" type="curve"/>
      <point x="341" y="584"/>
      <point x="246" y="747"/>
      <point x="59" y="920" type="curve"/>
      <point x="4" y="871"/>
      <point x="59" y="920"/>
      <point x="4" y="871" type="curve"/>
      <point x="171" y="710"/>
      <point x="249" y="557"/>
      <point x="249" y="325" type="curve"/>
      <point x="249" y="88"/>
      <point x="162" y="-66"/>
      <point x="0" y="-237" type="curve"/>
      <point x="55" y="-282"/>
      <point x="0" y="-237"/>
    </contour>
  </outline>
</glyph>
<glyph name="asterisk" format="1">
  <advance width="602"/>
  <unicode hex="002A"/>
  <outline>
    <contour>
      <point x="331" y="591" type="line"/>
      <point x="336" y="800" type="line"/>
      <point x="261" y="800" type="line"/>
      <point x="267" y="591" type="line"/>
    </contour>
    <contour>
      <point x="346" y="537" type="line"/>
      <point x="545" y="601" type="line"/>
      <point x="520" y="671" type="line"/>
      <point x="324" y="598" type="line"/>
    </contour>
    <contour>
      <point x="299" y="506" type="line"/>
      <point x="425" y="339" type="line"/>
      <point x="482" y="386" type="line"/>
      <point x="349" y="547" type="line"/>
    </contour>
    <contour>
      <point x="256" y="544" type="line"/>
      <point x="123" y="383" type="line"/>
      <point x="181" y="336" type="line"/>
      <point x="306" y="503" type="line"/>
    </contour>
    <contour>
      <point x="276" y="594" type="line"/>
      <point x="81" y="667" type="line"/>
      <point x="56" y="597" type="line"/>
      <point x="255" y="533" type="line"/>
    </contour>
  </outline>
</glyph>
<glyph name="plus" format="1">
  <advance width="641"/>
  <unicode hex="002B"/>
  <outline>
    <contour>
      <point x="39" y="273" type="curve"/>
      <point x="602" y="273" type="line"/>
      <point x="602" y="351"/>
      <point x="602" y="273"/>
      <point x="602" y="351" type="curve"/>
      <point x="39" y="351" type="line"/>
      <point x="39" y="273"/>
      <point x="39" y="351"/>
    </contour>
    <contour>
      <point x="364" y="28" type="curve"/>
      <point x="364" y="585" type="line"/>
      <point x="272" y="585"/>
      <point x="369" y="585"/>
      <point x="277" y="585" type="curve"/>
      <point x="277" y="28" type="line"/>
      <point x="369" y="28"/>
      <point x="272" y="28"/>
    </contour>
  </outline>
</glyph>
<glyph name="comma" format="1">
  <advance width="189"/>
  <unicode hex="002C"/>
  <outline>
    <contour>
      <point x="21" y="-117" type="line"/>
      <point x="93" y="-105"/>
      <point x="145" y="-52"/>
      <point x="145" y="30" type="curve"/>
      <point x="145" y="84"/>
      <point x="123" y="122"/>
      <point x="83" y="122" type="curve"/>
      <point x="51" y="122"/>
      <point x="29" y="106"/>
      <point x="29" y="74" type="curve"/>
      <point x="29" y="46"/>
      <point x="48" y="28"/>
      <point x="79" y="26" type="curve"/>
      <point x="78" y="-6"/>
      <point x="67" y="-49"/>
      <point x="14" y="-66" type="curve"/>
    </contour>
  </outline>
</glyph>
<glyph name="hyphen" format="1">
  <advance width="441"/>
  <unicode hex="002D"/>
  <outline>
    <contour>
      <point x="69" y="239" type="curve"/>
      <point x="170" y="239"/>
      <point x="271" y="239"/>
      <point x="372" y="239" type="curve"/>
      <point x="372" y="317"/>
      <point x="372" y="239"/>
      <point x="372" y="317" type="curve"/>
      <point x="271" y="317"/>
      <point x="170" y="317"/>
      <point x="69" y="317" type="curve"/>
      <point x="69" y="239"/>
      <point x="69" y="317"/>
    </contour>
  </outline>
</glyph>
<glyph name="period" format="1">
  <advance width="224"/>
  <unicode hex="002E"/>
  <outline>
    <contour>
      <point x="166" y="39" type="curve"/>
      <point x="166" y="71"/>
      <point x="143" y="87"/>
      <point x="111" y="87" type="curve"/>
      <point x="79" y="87"/>
      <point x="58" y="70"/>
      <point x="58" y="39" type="curve"/>
      <point x="160" y="39"/>
      <point x="64" y="39"/>
      <point x="166" y="39" type="curve"/>
      <point x="166" y="7"/>
      <point x="143" y="-8"/>
      <point x="111" y="-8" type="curve"/>
      <point x="79" y="-8"/>
      <point x="58" y="8"/>
      <point x="58" y="39" type="curve"/>
      <point x="160" y="39"/>
      <point x="64" y="39"/>
    </contour>
  </outline>
</glyph>
<glyph name="slash" format="1">
  <advance width="584"/>
  <unicode hex="002F"/>
  <outline>
    <contour>
      <point x="116" y="-37" type="curve"/>
      <point x="264" y="245"/>
      <point x="412" y="527"/>
      <point x="560" y="809" type="curve"/>
      <point x="468" y="809"/>
      <point x="560" y="809"/>
      <point x="468" y="809" type="curve"/>
      <point x="320" y="527"/>
      <point x="172" y="245"/>
      <point x="24" y="-37" type="curve"/>
      <point x="116" y="-37"/>
      <point x="24" y="-37"/>
    </contour>
  </outline>
</glyph>
<glyph name="zero" format="1">
  <advance width="747"/>
  <unicode hex="0030"/>
  <outline>
    <contour>
      <point x="149" y="360" type="curve"/>
      <point x="149" y="533"/>
      <point x="217" y="653"/>
      <point x="371" y="653" type="curve"/>
      <point x="527" y="653"/>
      <point x="599" y="535"/>
      <point x="599" y="363" type="curve"/>
      <point x="599" y="190"/>
      <point x="531" y="70"/>
      <point x="379" y="70" type="curve"/>
      <point x="223" y="70"/>
      <point x="149" y="187"/>
      <point x="149" y="360" type="curve"/>
      <point x="57" y="360"/>
      <point x="148" y="360"/>
      <point x="56" y="360" type="curve"/>
      <point x="56" y="138"/>
      <point x="164" y="-5"/>
      <point x="375" y="-5" type="curve"/>
      <point x="586" y="-5"/>
      <point x="691" y="140"/>
      <point x="691" y="363" type="curve"/>
      <point x="691" y="583"/>
      <point x="587" y="727"/>
      <point x="380" y="727" type="curve"/>
      <point x="166" y="727"/>
      <point x="56" y="584"/>
      <point x="56" y="360" type="curve"/>
      <point x="148" y="360"/>
      <point x="57" y="360"/>
    </contour>
  </outline>
</glyph>
<glyph name="one" format="1">
  <advance width="389"/>
  <unicode hex="0031"/>
  <outline>
    <contour>
      <point x="64" y="497" type="curve"/>
      <point x="290" y="675"/>
      <point x="64" y="497"/>
      <point x="290" y="675" type="curve"/>
      <point x="221" y="722"/>
      <point x="290" y="675"/>
      <point x="221" y="722" type="curve"/>
      <point x="16" y="561"/>
      <point x="221" y="722"/>
      <point x="16" y="561" type="curve"/>
      <point x="64" y="497"/>
      <point x="16" y="561"/>
    </contour>
    <contour>
      <point x="312" y="0" type="curve"/>
      <point x="312" y="241"/>
      <point x="312" y="481"/>
      <point x="312" y="722" type="curve"/>
      <point x="221" y="722"/>
      <point x="312" y="722"/>
      <point x="221" y="722" type="curve"/>
      <point x="221" y="481"/>
      <point x="221" y="241"/>
      <point x="221" y="0" type="curve"/>
      <point x="312" y="0"/>
      <point x="221" y="0"/>
    </contour>
  </outline>
</glyph>
<glyph name="two" format="1">
  <advance width="597"/>
  <unicode hex="0032"/>
  <outline>
    <contour>
      <point x="40" y="0" type="curve"/>
      <point x="234" y="0"/>
      <point x="397" y="0"/>
      <point x="550" y="0" type="curve"/>
      <point x="550" y="71"/>
      <point x="550" y="0"/>
      <point x="550" y="71" type="curve"/>
      <point x="382" y="71"/>
      <point x="208" y="71"/>
      <point x="40" y="71" type="curve"/>
      <point x="40" y="0"/>
      <point x="40" y="71"/>
    </contour>
    <contour>
      <point x="115" y="535" type="curve"/>
      <point x="166" y="607"/>
      <point x="211" y="653"/>
      <point x="293" y="653" type="curve"/>
      <point x="383" y="653"/>
      <point x="436" y="605"/>
      <point x="436" y="513" type="curve"/>
      <point x="436" y="402"/>
      <point x="356" y="330"/>
      <point x="272" y="264" type="curve"/>
      <point x="195" y="199"/>
      <point x="118" y="136"/>
      <point x="40" y="71" type="curve"/>
      <point x="45" y="0"/>
      <point x="40" y="71"/>
      <point x="45" y="0" type="curve"/>
      <point x="168" y="67"/>
      <point x="249" y="140"/>
      <point x="331" y="210" type="curve"/>
      <point x="436" y="290"/>
      <point x="523" y="372"/>
      <point x="523" y="517" type="curve"/>
      <point x="523" y="655"/>
      <point x="438" y="727"/>
      <point x="297" y="727" type="curve"/>
      <point x="184" y="727"/>
      <point x="105" y="672"/>
      <point x="52" y="575" type="curve"/>
      <point x="115" y="535"/>
      <point x="52" y="575"/>
    </contour>
  </outline>
</glyph>
<glyph name="three" format="1">
  <advance width="567"/>
  <unicode hex="0033"/>
  <outline>
    <contour>
      <point x="43" y="56" type="curve"/>
      <point x="102" y="19"/>
      <point x="165" y="-5"/>
      <point x="246" y="-5" type="curve"/>
      <point x="405" y="-5"/>
      <point x="514" y="54"/>
      <point x="514" y="208" type="curve"/>
      <point x="514" y="346"/>
      <point x="365" y="403"/>
      <point x="159" y="403" type="curve"/>
      <point x="159" y="346"/>
      <point x="159" y="401"/>
      <point x="159" y="343" type="curve"/>
      <point x="297" y="343"/>
      <point x="425" y="303"/>
      <point x="425" y="204" type="curve"/>
      <point x="425" y="103"/>
      <point x="342" y="70"/>
      <point x="250" y="70" type="curve"/>
      <point x="194" y="70"/>
      <point x="145" y="86"/>
      <point x="88" y="115" type="curve"/>
      <point x="43" y="56"/>
      <point x="88" y="115"/>
    </contour>
    <contour>
      <point x="99" y="589" type="curve"/>
      <point x="131" y="621"/>
      <point x="184" y="652"/>
      <point x="243" y="652" type="curve"/>
      <point x="331" y="652"/>
      <point x="391" y="621"/>
      <point x="391" y="537" type="curve"/>
      <point x="391" y="450"/>
      <point x="282" y="413"/>
      <point x="159" y="413" type="curve"/>
      <point x="159" y="356"/>
      <point x="159" y="410"/>
      <point x="159" y="353" type="curve"/>
      <point x="337" y="353"/>
      <point x="479" y="407"/>
      <point x="479" y="540" type="curve"/>
      <point x="479" y="669"/>
      <point x="385" y="727"/>
      <point x="251" y="727" type="curve"/>
      <point x="163" y="727"/>
      <point x="87" y="686"/>
      <point x="46" y="639" type="curve"/>
      <point x="99" y="589"/>
      <point x="46" y="639"/>
    </contour>
  </outline>
</glyph>
<glyph name="four" format="1">
  <advance width="629"/>
  <unicode hex="0034"/>
  <outline>
    <contour>
      <point x="56" y="255" type="line"/>
      <point x="416" y="688" type="line"/>
      <point x="342" y="708" type="line"/>
      <point x="18" y="321" type="line"/>
    </contour>
    <contour>
      <point x="593" y="321" type="line"/>
      <point x="18" y="321" type="line"/>
      <point x="18" y="243" type="line"/>
      <point x="593" y="243" type="line"/>
    </contour>
    <contour>
      <point x="434" y="0" type="line"/>
      <point x="434" y="708" type="line"/>
      <point x="343" y="708" type="line"/>
      <point x="343" y="0" type="line"/>
    </contour>
  </outline>
</glyph>
<glyph name="five" format="1">
  <advance width="560"/>
  <unicode hex="0035"/>
  <outline>
    <contour>
      <point x="85" y="722" type="curve"/>
      <point x="85" y="623"/>
      <point x="85" y="513"/>
      <point x="85" y="387" type="curve"/>
      <point x="173" y="364"/>
      <point x="85" y="387"/>
      <point x="173" y="364" type="curve"/>
      <point x="173" y="457"/>
      <point x="173" y="558"/>
      <point x="173" y="651" type="curve"/>
      <point x="85" y="722"/>
      <point x="173" y="651"/>
    </contour>
    <contour>
      <point x="173" y="364" type="curve"/>
      <point x="193" y="377"/>
      <point x="236" y="388"/>
      <point x="268" y="388" type="curve"/>
      <point x="365" y="388"/>
      <point x="421" y="329"/>
      <point x="421" y="233" type="curve"/>
      <point x="421" y="135"/>
      <point x="350" y="70"/>
      <point x="250" y="70" type="curve"/>
      <point x="191" y="70"/>
      <point x="146" y="82"/>
      <point x="90" y="108" type="curve"/>
      <point x="47" y="43"/>
      <point x="90" y="108"/>
      <point x="47" y="43" type="curve"/>
      <point x="109" y="12"/>
      <point x="174" y="-5"/>
      <point x="250" y="-5" type="curve"/>
      <point x="400" y="-5"/>
      <point x="512" y="86"/>
      <point x="512" y="234" type="curve"/>
      <point x="512" y="374"/>
      <point x="419" y="464"/>
      <point x="275" y="464" type="curve"/>
      <point x="214" y="464"/>
      <point x="143" y="443"/>
      <point x="94" y="390" type="curve"/>
      <point x="174" y="366"/>
      <point x="93" y="388"/>
    </contour>
    <contour>
      <point x="484" y="722" type="curve"/>
      <point x="347" y="722"/>
      <point x="214" y="722"/>
      <point x="85" y="722" type="curve"/>
      <point x="173" y="651"/>
      <point x="85" y="722"/>
      <point x="173" y="651" type="curve"/>
      <point x="273" y="651"/>
      <point x="376" y="651"/>
      <point x="484" y="651" type="curve"/>
      <point x="484" y="722"/>
      <point x="484" y="651"/>
    </contour>
  </outline>
</glyph>
<glyph name="six" format="1">
  <advance width="619"/>
  <unicode hex="0036"/>
  <outline>
    <contour>
      <point x="128" y="223" type="curve"/>
      <point x="165" y="308"/>
      <point x="230" y="357"/>
      <point x="324" y="357" type="curve"/>
      <point x="419" y="357"/>
      <point x="477" y="309"/>
      <point x="477" y="215" type="curve"/>
      <point x="477" y="126"/>
      <point x="418" y="74"/>
      <point x="327" y="74" type="curve"/>
      <point x="211" y="74"/>
      <point x="141" y="139"/>
      <point x="141" y="252" type="curve"/>
      <point x="141" y="489"/>
      <point x="318" y="596"/>
      <point x="557" y="663" type="curve"/>
      <point x="534" y="731"/>
      <point x="557" y="663"/>
      <point x="534" y="731" type="curve"/>
      <point x="265" y="661"/>
      <point x="52" y="530"/>
      <point x="52" y="248" type="curve"/>
      <point x="52" y="84"/>
      <point x="157" y="-9"/>
      <point x="323" y="-9" type="curve"/>
      <point x="473" y="-9"/>
      <point x="570" y="71"/>
      <point x="570" y="216" type="curve"/>
      <point x="570" y="358"/>
      <point x="476" y="432"/>
      <point x="334" y="432" type="curve"/>
      <point x="203" y="432"/>
      <point x="115" y="349"/>
      <point x="72" y="252" type="curve"/>
      <point x="127" y="223"/>
      <point x="72" y="252"/>
    </contour>
  </outline>
</glyph>
<glyph name="seven" format="1">
  <advance width="559"/>
  <unicode hex="0037"/>
  <outline>
    <contour>
      <point x="36" y="651" type="curve"/>
      <point x="544" y="651" type="curve"/>
      <point x="544" y="722" type="curve"/>
      <point x="36" y="722" type="curve"/>
    </contour>
    <contour>
      <point x="487" y="722" type="curve"/>
      <point x="61" y="0" type="curve"/>
      <point x="165" y="0" type="curve"/>
      <point x="544" y="651" type="curve"/>
    </contour>
  </outline>
</glyph>
<glyph name="eight" format="1">
  <advance width="605"/>
  <unicode hex="0038"/>
  <outline>
    <contour>
      <point x="76" y="548" type="curve"/>
      <point x="76" y="432"/>
      <point x="166" y="401"/>
      <point x="276" y="353" type="curve"/>
      <point x="374" y="308"/>
      <point x="457" y="281"/>
      <point x="457" y="183" type="curve"/>
      <point x="457" y="101"/>
      <point x="394" y="68"/>
      <point x="302" y="68" type="curve"/>
      <point x="209" y="68"/>
      <point x="147" y="101"/>
      <point x="147" y="183" type="curve"/>
      <point x="147" y="284"/>
      <point x="233" y="307"/>
      <point x="333" y="353" type="curve"/>
      <point x="439" y="403"/>
      <point x="529" y="432"/>
      <point x="529" y="547" type="curve"/>
      <point x="529" y="675"/>
      <point x="440" y="727"/>
      <point x="302" y="727" type="curve"/>
      <point x="168" y="727"/>
      <point x="76" y="673"/>
      <point x="76" y="548" type="curve"/>
      <point x="167" y="548"/>
      <point x="76" y="548"/>
      <point x="167" y="548" type="curve"/>
      <point x="167" y="620"/>
      <point x="219" y="654"/>
      <point x="299" y="654" type="curve"/>
      <point x="383" y="654"/>
      <point x="438" y="623"/>
      <point x="438" y="547" type="curve"/>
      <point x="438" y="460"/>
      <point x="361" y="441"/>
      <point x="275" y="403" type="curve"/>
      <point x="154" y="347"/>
      <point x="56" y="312"/>
      <point x="56" y="183" type="curve"/>
      <point x="56" y="50"/>
      <point x="153" y="-5"/>
      <point x="298" y="-5" type="curve"/>
      <point x="445" y="-5"/>
      <point x="549" y="47"/>
      <point x="549" y="183" type="curve"/>
      <point x="549" y="310"/>
      <point x="451" y="348"/>
      <point x="333" y="403" type="curve"/>
      <point x="246" y="444"/>
      <point x="167" y="461"/>
      <point x="167" y="548" type="curve"/>
      <point x="76" y="548"/>
      <point x="167" y="548"/>
    </contour>
  </outline>
</glyph>
<glyph name="nine" format="1">
  <advance width="618"/>
  <unicode hex="0039"/>
  <outline>
    <contour>
      <point x="494" y="489" type="curve"/>
      <point x="453" y="406"/>
      <point x="395" y="364"/>
      <point x="301" y="364" type="curve"/>
      <point x="202" y="364"/>
      <point x="140" y="414"/>
      <point x="140" y="510" type="curve"/>
      <point x="140" y="599"/>
      <point x="200" y="647"/>
      <point x="291" y="647" type="curve"/>
      <point x="407" y="647"/>
      <point x="477" y="584"/>
      <point x="477" y="470" type="curve"/>
      <point x="477" y="233"/>
      <point x="308" y="123"/>
      <point x="66" y="61" type="curve"/>
      <point x="92" y="-12"/>
      <point x="65" y="61"/>
      <point x="92" y="-12" type="curve"/>
      <point x="365" y="50"/>
      <point x="566" y="192"/>
      <point x="566" y="474" type="curve"/>
      <point x="566" y="638"/>
      <point x="462" y="731"/>
      <point x="295" y="731" type="curve"/>
      <point x="145" y="731"/>
      <point x="49" y="651"/>
      <point x="49" y="506" type="curve"/>
      <point x="49" y="364"/>
      <point x="145" y="290"/>
      <point x="292" y="290" type="curve"/>
      <point x="419" y="290"/>
      <point x="495" y="360"/>
      <point x="539" y="467" type="curve"/>
      <point x="494" y="489"/>
      <point x="539" y="467"/>
    </contour>
  </outline>
</glyph>
<glyph name="colon" format="1">
  <advance width="241"/>
  <unicode hex="003A"/>
  <outline>
    <contour>
      <point x="172" y="396" type="curve"/>
      <point x="172" y="428"/>
      <point x="149" y="444"/>
      <point x="117" y="444" type="curve"/>
      <point x="86" y="444"/>
      <point x="65" y="426"/>
      <point x="65" y="396" type="curve"/>
      <point x="166" y="396"/>
      <point x="71" y="396"/>
      <point x="172" y="396" type="curve"/>
      <point x="172" y="364"/>
      <point x="149" y="349"/>
      <point x="117" y="349" type="curve"/>
      <point x="85" y="349"/>
      <point x="65" y="365"/>
      <point x="65" y="396" type="curve"/>
      <point x="166" y="396"/>
      <point x="71" y="396"/>
    </contour>
    <contour>
      <point x="172" y="41" type="curve"/>
      <point x="172" y="72"/>
      <point x="149" y="88"/>
      <point x="117" y="88" type="curve"/>
      <point x="85" y="88"/>
      <point x="64" y="71"/>
      <point x="64" y="41" type="curve"/>
      <point x="166" y="41"/>
      <point x="70" y="41"/>
      <point x="172" y="41" type="curve"/>
      <point x="172" y="8"/>
      <point x="149" y="-6"/>
      <point x="117" y="-6" type="curve"/>
      <point x="85" y="-6"/>
      <point x="64" y="10"/>
      <point x="64" y="41" type="curve"/>
      <point x="166" y="41"/>
      <point x="70" y="41"/>
    </contour>
  </outline>
</glyph>
<glyph name="semicolon" format="1">
  <advance width="220"/>
  <unicode hex="003B"/>
  <outline>
    <contour>
      <point x="36" y="-143" type="line"/>
      <point x="111" y="-131"/>
      <point x="164" y="-78"/>
      <point x="164" y="4" type="curve"/>
      <point x="164" y="59"/>
      <point x="141" y="97"/>
      <point x="100" y="97" type="curve"/>
      <point x="67" y="97"/>
      <point x="44" y="81"/>
      <point x="44" y="49" type="curve"/>
      <point x="44" y="20"/>
      <point x="64" y="3"/>
      <point x="96" y="0" type="curve"/>
      <point x="95" y="-31"/>
      <point x="84" y="-74"/>
      <point x="29" y="-91" type="curve"/>
    </contour>
    <contour>
      <point x="153" y="400" type="curve"/>
      <point x="153" y="432"/>
      <point x="130" y="448"/>
      <point x="98" y="448" type="curve"/>
      <point x="66" y="448"/>
      <point x="45" y="430"/>
      <point x="45" y="400" type="curve"/>
      <point x="147" y="400"/>
      <point x="51" y="400"/>
      <point x="153" y="400" type="curve"/>
      <point x="153" y="368"/>
      <point x="130" y="353"/>
      <point x="98" y="353" type="curve"/>
      <point x="66" y="353"/>
      <point x="45" y="369"/>
      <point x="45" y="400" type="curve"/>
      <point x="147" y="400"/>
      <point x="51" y="400"/>
    </contour>
  </outline>
</glyph>
<glyph name="less" format="1">
  <advance width="728"/>
  <unicode hex="003C"/>
  <outline>
    <contour>
      <point x="667" y="609" type="curve"/>
      <point x="456" y="519"/>
      <point x="244" y="429"/>
      <point x="32" y="339" type="curve"/>
      <point x="32" y="261"/>
      <point x="32" y="339"/>
      <point x="32" y="261" type="curve"/>
      <point x="244" y="351"/>
      <point x="456" y="441"/>
      <point x="667" y="531" type="curve"/>
      <point x="667" y="609"/>
      <point x="667" y="531"/>
    </contour>
    <contour>
      <point x="678" y="75" type="curve"/>
      <point x="463" y="163"/>
      <point x="248" y="251"/>
      <point x="32" y="339" type="curve"/>
      <point x="32" y="261"/>
      <point x="32" y="339"/>
      <point x="32" y="261" type="curve"/>
      <point x="248" y="173"/>
      <point x="463" y="85"/>
      <point x="678" y="-3" type="curve"/>
      <point x="678" y="75"/>
      <point x="678" y="-3"/>
    </contour>
  </outline>
</glyph>
<glyph name="equal" format="1">
  <advance width="762"/>
  <unicode hex="003D"/>
  <outline>
    <contour>
      <point x="59" y="180" type="curve"/>
      <point x="277" y="180"/>
      <point x="496" y="180"/>
      <point x="715" y="180" type="curve"/>
      <point x="715" y="255"/>
      <point x="715" y="180"/>
      <point x="715" y="255" type="curve"/>
      <point x="496" y="255"/>
      <point x="277" y="255"/>
      <point x="59" y="255" type="curve"/>
      <point x="59" y="180"/>
      <point x="59" y="255"/>
    </contour>
    <contour>
      <point x="59" y="402" type="curve"/>
      <point x="277" y="402"/>
      <point x="496" y="402"/>
      <point x="715" y="402" type="curve"/>
      <point x="715" y="477"/>
      <point x="715" y="402"/>
      <point x="715" y="477" type="curve"/>
      <point x="496" y="477"/>
      <point x="277" y="477"/>
      <point x="59" y="477" type="curve"/>
      <point x="59" y="402"/>
      <point x="59" y="477"/>
    </contour>
  </outline>
</glyph>
<glyph name="greater" format="1">
  <advance width="729"/>
  <unicode hex="003E"/>
  <outline>
    <contour>
      <point x="60" y="-3" type="curve"/>
      <point x="272" y="87"/>
      <point x="484" y="177"/>
      <point x="696" y="267" type="curve"/>
      <point x="696" y="345"/>
      <point x="696" y="267"/>
      <point x="696" y="345" type="curve"/>
      <point x="484" y="255"/>
      <point x="272" y="165"/>
      <point x="60" y="75" type="curve"/>
      <point x="60" y="-3"/>
      <point x="60" y="75"/>
    </contour>
    <contour>
      <point x="50" y="531" type="curve"/>
      <point x="265" y="443"/>
      <point x="480" y="355"/>
      <point x="696" y="267" type="curve"/>
      <point x="696" y="345"/>
      <point x="696" y="267"/>
      <point x="696" y="345" type="curve"/>
      <point x="480" y="433"/>
      <point x="265" y="521"/>
      <point x="50" y="609" type="curve"/>
      <point x="50" y="531"/>
      <point x="50" y="609"/>
    </contour>
  </outline>
</glyph>
<glyph name="question" format="1">
  <advance width="529"/>
  <unicode hex="003F"/>
  <outline>
    <contour>
      <point x="195" y="360" type="curve"/>
      <point x="195" y="323"/>
      <point x="195" y="258"/>
      <point x="195" y="221" type="curve"/>
      <point x="284" y="221"/>
      <point x="195" y="221"/>
      <point x="284" y="221" type="curve"/>
      <point x="284" y="258"/>
      <point x="284" y="323"/>
      <point x="284" y="360" type="curve"/>
      <point x="195" y="360"/>
      <point x="284" y="360"/>
    </contour>
    <contour>
      <point x="96" y="596" type="line"/>
      <point x="130" y="631"/>
      <point x="180" y="660"/>
      <point x="242" y="660" type="curve"/>
      <point x="334" y="660"/>
      <point x="397" y="609"/>
      <point x="397" y="519" type="curve"/>
      <point x="397" y="417"/>
      <point x="318" y="360"/>
      <point x="205" y="360" type="curve"/>
      <point x="205" y="331"/>
      <point x="204" y="318"/>
      <point x="204" y="289" type="curve"/>
      <point x="369" y="289"/>
      <point x="485" y="372"/>
      <point x="485" y="519" type="curve"/>
      <point x="485" y="656"/>
      <point x="386" y="734"/>
      <point x="246" y="734" type="curve"/>
      <point x="162" y="734"/>
      <point x="98" y="703"/>
      <point x="47" y="651" type="curve"/>
    </contour>
    <contour>
      <point x="293" y="26" type="curve"/>
      <point x="293" y="57"/>
      <point x="271" y="73"/>
      <point x="240" y="73" type="curve"/>
      <point x="209" y="73"/>
      <point x="188" y="55"/>
      <point x="188" y="26" type="curve"/>
      <point x="293" y="26"/>
      <point x="188" y="26"/>
      <point x="293" y="26" type="curve"/>
      <point x="293" y="-6"/>
      <point x="271" y="-20"/>
      <point x="239" y="-20" type="curve"/>
      <point x="208" y="-20"/>
      <point x="188" y="-4"/>
      <point x="188" y="26" type="curve"/>
      <point x="293" y="26"/>
      <point x="188" y="26"/>
    </contour>
  </outline>
</glyph>
<glyph name="at" format="1">
  <advance width="878"/>
  <unicode hex="0040"/>
  <outline>
    <contour>
      <point x="606" y="-40" type="curve"/>
      <point x="552" y="-65"/>
      <point x="512" y="-73"/>
      <point x="454" y="-73" type="curve"/>
      <point x="260" y="-73"/>
      <point x="136" y="23"/>
      <point x="136" y="210" type="curve"/>
      <point x="136" y="392"/>
      <point x="259" y="485"/>
      <point x="447" y="485" type="curve"/>
      <point x="626" y="485"/>
      <point x="739" y="389"/>
      <point x="739" y="215" type="curve"/>
      <point x="739" y="150"/>
      <point x="729" y="97"/>
      <point x="683" y="97" type="curve"/>
      <point x="634" y="97"/>
      <point x="620" y="149"/>
      <point x="620" y="215" type="curve"/>
      <point x="620" y="330"/>
      <point x="552" y="399"/>
      <point x="437" y="399" type="curve"/>
      <point x="312" y="399"/>
      <point x="241" y="334"/>
      <point x="241" y="213" type="curve"/>
      <point x="241" y="90"/>
      <point x="306" y="18"/>
      <point x="427" y="18" type="curve"/>
      <point x="535" y="18"/>
      <point x="587" y="88"/>
      <point x="606" y="199" type="curve"/>
      <point x="548" y="213"/>
      <point x="606" y="199"/>
      <point x="548" y="213" type="curve"/>
      <point x="529" y="142"/>
      <point x="506" y="88"/>
      <point x="439" y="88" type="curve"/>
      <point x="364" y="88"/>
      <point x="326" y="138"/>
      <point x="326" y="216" type="curve"/>
      <point x="326" y="287"/>
      <point x="362" y="328"/>
      <point x="430" y="328" type="curve"/>
      <point x="502" y="328"/>
      <point x="536" y="284"/>
      <point x="536" y="211" type="curve"/>
      <point x="536" y="105"/>
      <point x="576" y="30"/>
      <point x="676" y="30" type="curve"/>
      <point x="780" y="30"/>
      <point x="823" y="107"/>
      <point x="823" y="219" type="curve"/>
      <point x="823" y="440"/>
      <point x="679" y="559"/>
      <point x="451" y="559" type="curve"/>
      <point x="207" y="559"/>
      <point x="50" y="441"/>
      <point x="50" y="206" type="curve"/>
      <point x="50" y="-26"/>
      <point x="207" y="-144"/>
      <point x="449" y="-144" type="curve"/>
      <point x="525" y="-144"/>
      <point x="579" y="-132"/>
      <point x="639" y="-101" type="curve"/>
      <point x="606" y="-40"/>
      <point x="639" y="-101"/>
    </contour>
  </outline>
</glyph>
<glyph name="B" format="1">
  <advance width="653"/>
  <unicode hex="0042"/>
  <outline>
    <contour>
      <point x="132" y="651" type="curve"/>
      <point x="204" y="651"/>
      <point x="269" y="651"/>
      <point x="342" y="651" type="curve"/>
      <point x="416" y="651"/>
      <point x="464" y="614"/>
      <point x="464" y="543" type="curve"/>
      <point x="464" y="471"/>
      <point x="400" y="442"/>
      <point x="324" y="442" type="curve"/>
      <point x="257" y="442"/>
      <point x="198" y="442"/>
      <point x="132" y="442" type="curve"/>
      <point x="132" y="391"/>
      <point x="132" y="422"/>
      <point x="132" y="371" type="curve"/>
      <point x="184" y="371"/>
      <point x="232" y="371"/>
      <point x="285" y="371" type="curve"/>
      <point x="409" y="371"/>
      <point x="556" y="410"/>
      <point x="556" y="541" type="curve"/>
      <point x="556" y="662"/>
      <point x="471" y="722"/>
      <point x="345" y="722" type="curve"/>
      <point x="271" y="722"/>
      <point x="205" y="722"/>
      <point x="132" y="722" type="curve"/>
      <point x="132" y="671"/>
      <point x="132" y="702"/>
    </contour>
    <contour>
      <point x="190" y="0" type="curve"/>
      <point x="190" y="241"/>
      <point x="190" y="481"/>
      <point x="190" y="722" type="curve"/>
      <point x="94" y="722"/>
      <point x="190" y="722"/>
      <point x="94" y="722" type="curve"/>
      <point x="94" y="481"/>
      <point x="94" y="241"/>
      <point x="94" y="0" type="curve"/>
      <point x="190" y="0"/>
      <point x="94" y="0"/>
    </contour>
    <contour>
      <point x="132" y="371" type="curve"/>
      <point x="198" y="371"/>
      <point x="257" y="371"/>
      <point x="324" y="371" type="curve"/>
      <point x="435" y="371"/>
      <point x="513" y="322"/>
      <point x="513" y="216" type="curve"/>
      <point x="513" y="118"/>
      <point x="446" y="71"/>
      <point x="342" y="71" type="curve"/>
      <point x="269" y="71"/>
      <point x="204" y="71"/>
      <point x="132" y="71" type="curve"/>
      <point x="132" y="20"/>
      <point x="132" y="51"/>
      <point x="132" y="0" type="curve"/>
      <point x="205" y="0"/>
      <point x="271" y="0"/>
      <point x="345" y="0" type="curve"/>
      <point x="501" y="0"/>
      <point x="605" y="69"/>
      <point x="605" y="215" type="curve"/>
      <point x="605" y="382"/>
      <point x="445" y="442"/>
      <point x="285" y="442" type="curve"/>
      <point x="232" y="442"/>
      <point x="184" y="442"/>
      <point x="132" y="442" type="curve"/>
      <point x="132" y="391"/>
      <point x="132" y="422"/>
    </contour>
  </outline>
</glyph>
<glyph name="D" format="1">
  <advance width="767"/>
  <unicode hex="0044"/>
  <outline>
    <contour>
      <point x="94" y="722" type="curve"/>
      <point x="94" y="481"/>
      <point x="94" y="241"/>
      <point x="94" y="0" type="curve"/>
      <point x="186" y="0"/>
      <point x="94" y="0"/>
      <point x="186" y="0" type="curve"/>
      <point x="186" y="241"/>
      <point x="186" y="481"/>
      <point x="186" y="722" type="curve"/>
      <point x="94" y="722"/>
      <point x="186" y="722"/>
    </contour>
    <contour>
      <point x="142" y="0" type="curve"/>
      <point x="210" y="0"/>
      <point x="275" y="0"/>
      <point x="343" y="0" type="curve"/>
      <point x="581" y="0"/>
      <point x="713" y="119"/>
      <point x="713" y="353" type="curve"/>
      <point x="713" y="596"/>
      <point x="579" y="722"/>
      <point x="334" y="722" type="curve"/>
      <point x="269" y="722"/>
      <point x="207" y="722"/>
      <point x="142" y="722" type="curve"/>
      <point x="142" y="654"/>
      <point x="142" y="719"/>
      <point x="142" y="651" type="curve"/>
      <point x="206" y="651"/>
      <point x="266" y="651"/>
      <point x="330" y="651" type="curve"/>
      <point x="523" y="651"/>
      <point x="621" y="545"/>
      <point x="621" y="351" type="curve"/>
      <point x="621" y="171"/>
      <point x="530" y="71"/>
      <point x="351" y="71" type="curve"/>
      <point x="280" y="71"/>
      <point x="213" y="71"/>
      <point x="142" y="71" type="curve"/>
      <point x="142" y="3"/>
      <point x="142" y="68"/>
    </contour>
    <contour>
      <point x="317" y="801" type="move" name="top"/>
    </contour>
  </outline>
</glyph>
<glyph name="F" format="1">
  <advance width="579"/>
  <unicode hex="0046"/>
  <outline>
    <contour>
      <point x="145" y="338" type="curve"/>
      <point x="257" y="338"/>
      <point x="369" y="338"/>
      <point x="481" y="338" type="curve"/>
      <point x="481" y="409"/>
      <point x="481" y="338"/>
      <point x="481" y="409" type="curve"/>
      <point x="369" y="409"/>
      <point x="257" y="409"/>
      <point x="145" y="409" type="curve"/>
      <point x="145" y="338"/>
      <point x="145" y="409"/>
    </contour>
    <contour>
      <point x="187" y="0" type="curve"/>
      <point x="187" y="722" type="line"/>
      <point x="95" y="722"/>
      <point x="187" y="722"/>
      <point x="95" y="722" type="curve"/>
      <point x="95" y="481"/>
      <point x="95" y="241"/>
      <point x="95" y="0" type="curve"/>
      <point x="187" y="0"/>
      <point x="95" y="0"/>
    </contour>
    <contour>
      <point x="129" y="651" type="curve"/>
      <point x="272" y="651"/>
      <point x="414" y="651"/>
      <point x="557" y="651" type="curve"/>
      <point x="557" y="722"/>
      <point x="557" y="651"/>
      <point x="557" y="722" type="curve"/>
      <point x="414" y="722"/>
      <point x="272" y="722"/>
      <point x="129" y="722" type="curve"/>
      <point x="129" y="651"/>
      <point x="129" y="722"/>
    </contour>
  </outline>
</glyph>
<glyph name="G" format="1">
  <advance width="810"/>
  <unicode hex="0047"/>
  <outline>
    <contour>
      <point x="726" y="347" type="curve"/>
      <point x="650" y="347"/>
      <point x="573" y="347"/>
      <point x="497" y="347" type="curve"/>
      <point x="497" y="276"/>
      <point x="497" y="347"/>
      <point x="497" y="276" type="curve"/>
      <point x="573" y="276"/>
      <point x="650" y="276"/>
      <point x="726" y="276" type="curve"/>
      <point x="726" y="347"/>
      <point x="726" y="276"/>
    </contour>
    <contour>
      <point x="752" y="78" type="curve"/>
      <point x="752" y="168"/>
      <point x="752" y="257"/>
      <point x="752" y="347" type="curve"/>
      <point x="668" y="347"/>
      <point x="752" y="347"/>
      <point x="668" y="347" type="curve"/>
      <point x="668" y="257"/>
      <point x="668" y="168"/>
      <point x="668" y="78" type="curve"/>
      <point x="752" y="78"/>
      <point x="668" y="78"/>
    </contour>
    <contour>
      <point x="734" y="644" type="curve"/>
      <point x="635" y="701"/>
      <point x="545" y="727"/>
      <point x="429" y="727" type="curve"/>
      <point x="193" y="727"/>
      <point x="52" y="597"/>
      <point x="52" y="362" type="curve"/>
      <point x="52" y="123"/>
      <point x="199" y="-5"/>
      <point x="440" y="-5" type="curve"/>
      <point x="564" y="-5"/>
      <point x="643" y="22"/>
      <point x="752" y="78" type="curve"/>
      <point x="705" y="132"/>
      <point x="752" y="78"/>
      <point x="705" y="132" type="curve"/>
      <point x="617" y="87"/>
      <point x="544" y="70"/>
      <point x="441" y="70" type="curve"/>
      <point x="251" y="70"/>
      <point x="145" y="178"/>
      <point x="145" y="369" type="curve"/>
      <point x="145" y="549"/>
      <point x="249" y="653"/>
      <point x="429" y="653" type="curve"/>
      <point x="527" y="653"/>
      <point x="603" y="632"/>
      <point x="693" y="582" type="curve"/>
      <point x="734" y="644"/>
      <point x="693" y="582"/>
    </contour>
    <contour>
      <point x="428" y="801" type="move" name="top"/>
    </contour>
    <contour>
      <point x="467" y="-12" type="move" name="bottom"/>
    </contour>
  </outline>
</glyph>
<glyph name="H" format="1">
  <advance width="804"/>
  <unicode hex="0048"/>
  <outline>
    <contour>
      <point x="186" y="0" type="curve"/>
      <point x="186" y="722" type="line"/>
      <point x="94" y="722"/>
      <point x="186" y="722"/>
      <point x="94" y="722" type="curve"/>
      <point x="94" y="481"/>
      <point x="94" y="241"/>
      <point x="94" y="0" type="curve"/>
      <point x="186" y="0"/>
      <point x="94" y="0"/>
    </contour>
    <contour>
      <point x="662" y="398" type="curve"/>
      <point x="488" y="398"/>
      <point x="314" y="398"/>
      <point x="140" y="398" type="curve"/>
      <point x="140" y="327"/>
      <point x="140" y="398"/>
      <point x="140" y="327" type="curve"/>
      <point x="314" y="327"/>
      <point x="488" y="327"/>
      <point x="662" y="327" type="curve"/>
      <point x="662" y="398"/>
      <point x="662" y="327"/>
    </contour>
    <contour>
      <point x="710" y="0" type="curve"/>
      <point x="710" y="223"/>
      <point x="710" y="499"/>
      <point x="710" y="722" type="curve"/>
      <point x="618" y="722"/>
      <point x="710" y="722"/>
      <point x="618" y="722" type="curve"/>
      <point x="618" y="0" type="line"/>
      <point x="710" y="0"/>
      <point x="618" y="0"/>
    </contour>
  </outline>
</glyph>
<glyph name="J" format="1">
  <advance width="459"/>
  <unicode hex="004A"/>
  <outline>
    <contour>
      <point x="6" y="43" type="curve"/>
      <point x="40" y="21"/>
      <point x="87" y="-4"/>
      <point x="146" y="-4" type="curve"/>
      <point x="293" y="-4"/>
      <point x="371" y="78"/>
      <point x="371" y="233" type="curve"/>
      <point x="371" y="400"/>
      <point x="371" y="554"/>
      <point x="371" y="722" type="curve"/>
      <point x="282" y="722"/>
      <point x="368" y="722"/>
      <point x="279" y="722" type="curve"/>
      <point x="279" y="554"/>
      <point x="279" y="400"/>
      <point x="279" y="233" type="curve"/>
      <point x="279" y="134"/>
      <point x="239" y="68"/>
      <point x="146" y="68" type="curve"/>
      <point x="106" y="68"/>
      <point x="80" y="82"/>
      <point x="49" y="99" type="curve"/>
      <point x="8" y="45"/>
      <point x="47" y="97"/>
    </contour>
  </outline>
</glyph>
<glyph name="K" format="1">
  <advance width="652"/>
  <unicode hex="004B"/>
  <outline>
    <contour>
      <point x="501" y="722" type="curve"/>
      <point x="160" y="380" type="line"/>
      <point x="273" y="380"/>
      <point x="162" y="380"/>
      <point x="275" y="380" type="curve"/>
      <point x="620" y="722" type="line"/>
      <point x="510" y="722"/>
      <point x="611" y="722"/>
    </contour>
    <contour>
      <point x="186" y="0" type="curve"/>
      <point x="186" y="722" type="line"/>
      <point x="94" y="722"/>
      <point x="186" y="722"/>
      <point x="94" y="722" type="curve"/>
      <point x="94" y="481"/>
      <point x="94" y="241"/>
      <point x="94" y="0" type="curve"/>
      <point x="186" y="0"/>
      <point x="94" y="0"/>
    </contour>
    <contour>
      <point x="646" y="0" type="curve"/>
      <point x="275" y="380" type="line"/>
      <point x="162" y="380"/>
      <point x="273" y="380"/>
      <point x="160" y="380" type="curve"/>
      <point x="524" y="0" type="line"/>
      <point x="641" y="0"/>
      <point x="529" y="0"/>
    </contour>
    <contour>
      <point x="382" y="-15" type="move" name="bottom"/>
    </contour>
  </outline>
</glyph>
<glyph name="M" format="1">
  <advance width="940"/>
  <unicode hex="004D"/>
  <outline>
    <contour>
      <point x="877" y="0" type="curve"/>
      <point x="855" y="241"/>
      <point x="830" y="481"/>
      <point x="809" y="722" type="curve"/>
      <point x="725" y="722"/>
      <point x="809" y="722"/>
      <point x="725" y="722" type="curve"/>
      <point x="746" y="481"/>
      <point x="763" y="241"/>
      <point x="784" y="0" type="curve"/>
      <point x="877" y="0"/>
      <point x="784" y="0"/>
    </contour>
    <contour>
      <point x="153" y="0" type="curve"/>
      <point x="173" y="241"/>
      <point x="193" y="481"/>
      <point x="212" y="722" type="curve"/>
      <point x="128" y="722"/>
      <point x="212" y="722"/>
      <point x="128" y="722" type="curve"/>
      <point x="107" y="481"/>
      <point x="87" y="241"/>
      <point x="66" y="0" type="curve"/>
      <point x="153" y="0"/>
      <point x="66" y="0"/>
    </contour>
    <contour>
      <point x="509" y="0" type="curve"/>
      <point x="412" y="241"/>
      <point x="314" y="481"/>
      <point x="215" y="722" type="curve"/>
      <point x="130" y="722"/>
      <point x="215" y="722"/>
      <point x="130" y="722" type="curve"/>
      <point x="227" y="481"/>
      <point x="324" y="241"/>
      <point x="422" y="0" type="curve"/>
      <point x="508" y="0"/>
      <point x="422" y="0"/>
    </contour>
    <contour>
      <point x="518" y="0" type="curve"/>
      <point x="614" y="241"/>
      <point x="709" y="481"/>
      <point x="805" y="722" type="curve"/>
      <point x="720" y="722"/>
      <point x="805" y="722"/>
      <point x="719" y="722" type="curve"/>
      <point x="623" y="481"/>
      <point x="526" y="241"/>
      <point x="430" y="0" type="curve"/>
      <point x="518" y="0"/>
      <point x="430" y="0"/>
    </contour>
  </outline>
</glyph>
<glyph name="N" format="1">
  <advance width="851"/>
  <unicode hex="004E"/>
  <outline>
    <contour>
      <point x="756" y="0" type="curve"/>
      <point x="570" y="240"/>
      <point x="386" y="482"/>
      <point x="201" y="722" type="curve"/>
      <point x="95" y="722"/>
      <point x="200" y="722"/>
      <point x="94" y="722" type="curve"/>
      <point x="279" y="482"/>
      <point x="464" y="240"/>
      <point x="649" y="0" type="curve"/>
      <point x="755" y="0"/>
      <point x="650" y="0"/>
    </contour>
    <contour>
      <point x="665" y="722" type="curve"/>
      <point x="665" y="481"/>
      <point x="665" y="241"/>
      <point x="665" y="0" type="curve"/>
      <point x="757" y="0"/>
      <point x="665" y="0"/>
      <point x="757" y="0" type="curve"/>
      <point x="757" y="241"/>
      <point x="757" y="481"/>
      <point x="757" y="722" type="curve"/>
      <point x="665" y="722"/>
      <point x="757" y="722"/>
    </contour>
    <contour>
      <point x="187" y="0" type="curve"/>
      <point x="187" y="241"/>
      <point x="187" y="481"/>
      <point x="187" y="722" type="curve"/>
      <point x="94" y="722"/>
      <point x="187" y="722"/>
      <point x="94" y="722" type="curve"/>
      <point x="94" y="481"/>
      <point x="94" y="241"/>
      <point x="94" y="0" type="curve"/>
      <point x="187" y="0"/>
      <point x="94" y="0"/>
    </contour>
    <contour>
      <point x="425" y="801" type="move" name="top"/>
    </contour>
    <contour>
      <point x="445" y="-15" type="move" name="bottom"/>
    </contour>
  </outline>
</glyph>
<glyph name="P" format="1">
  <advance width="604"/>
  <unicode hex="0050"/>
  <outline>
    <contour>
      <point x="128" y="308" type="curve"/>
      <point x="186" y="281"/>
      <point x="250" y="262"/>
      <point x="316" y="262" type="curve"/>
      <point x="465" y="265"/>
      <point x="565" y="338"/>
      <point x="565" y="486" type="curve"/>
      <point x="565" y="640"/>
      <point x="446" y="722"/>
      <point x="283" y="722" type="curve"/>
      <point x="236" y="722"/>
      <point x="190" y="722"/>
      <point x="144" y="722" type="curve"/>
      <point x="144" y="651"/>
      <point x="144" y="722"/>
      <point x="144" y="651" type="curve"/>
      <point x="186" y="651"/>
      <point x="228" y="651"/>
      <point x="270" y="651" type="curve"/>
      <point x="388" y="651"/>
      <point x="472" y="596"/>
      <point x="472" y="487" type="curve"/>
      <point x="472" y="388"/>
      <point x="406" y="332"/>
      <point x="308" y="332" type="curve"/>
      <point x="250" y="332"/>
      <point x="209" y="346"/>
      <point x="158" y="370" type="curve"/>
      <point x="128" y="309"/>
      <point x="158" y="370"/>
    </contour>
    <contour>
      <point x="186" y="0" type="curve"/>
      <point x="186" y="241"/>
      <point x="186" y="481"/>
      <point x="186" y="722" type="curve"/>
      <point x="94" y="722"/>
      <point x="186" y="722"/>
      <point x="94" y="722" type="curve"/>
      <point x="94" y="481"/>
      <point x="94" y="241"/>
      <point x="94" y="0" type="curve"/>
      <point x="186" y="0"/>
      <point x="94" y="0"/>
    </contour>
  </outline>
</glyph>
<glyph name="Q" format="1">
  <advance width="862"/>
  <unicode hex="0051"/>
  <outline>
    <contour>
      <point x="368" y="17" type="curve"/>
      <point x="483" y="-166"/>
      <point x="614" y="-224"/>
      <point x="818" y="-224" type="curve"/>
      <point x="818" y="-150"/>
      <point x="818" y="-224"/>
      <point x="818" y="-150" type="curve"/>
      <point x="650" y="-150"/>
      <point x="544" y="-100"/>
      <point x="447" y="52" type="curve"/>
      <point x="368" y="17"/>
      <point x="447" y="52"/>
    </contour>
    <contour>
      <point x="145" y="360" type="curve"/>
      <point x="145" y="532"/>
      <point x="232" y="650"/>
      <point x="397" y="650" type="curve"/>
      <point x="564" y="650"/>
      <point x="652" y="534"/>
      <point x="652" y="361" type="curve"/>
      <point x="652" y="189"/>
      <point x="568" y="69"/>
      <point x="403" y="69" type="curve"/>
      <point x="234" y="70"/>
      <point x="145" y="186"/>
      <point x="145" y="360" type="curve"/>
      <point x="53" y="360"/>
      <point x="145" y="360"/>
      <point x="53" y="360" type="curve"/>
      <point x="53" y="138"/>
      <point x="182" y="-5"/>
      <point x="398" y="-5" type="curve"/>
      <point x="617" y="-5"/>
      <point x="744" y="141"/>
      <point x="744" y="365" type="curve"/>
      <point x="744" y="586"/>
      <point x="619" y="730"/>
      <point x="403" y="730" type="curve"/>
      <point x="183" y="730"/>
      <point x="53" y="584"/>
      <point x="53" y="360" type="curve"/>
      <point x="145" y="360"/>
      <point x="53" y="360"/>
    </contour>
  </outline>
</glyph>
<glyph name="S" format="1">
  <advance width="586"/>
  <unicode hex="0053"/>
  <outline>
    <contour>
      <point x="41" y="55" type="curve"/>
      <point x="110" y="16"/>
      <point x="186" y="-5"/>
      <point x="275" y="-5" type="curve"/>
      <point x="427" y="-5"/>
      <point x="545" y="45"/>
      <point x="545" y="183" type="curve"/>
      <point x="545" y="307"/>
      <point x="444" y="352"/>
      <point x="326" y="404" type="curve"/>
      <point x="235" y="443"/>
      <point x="144" y="476"/>
      <point x="144" y="551" type="curve"/>
      <point x="143" y="622"/>
      <point x="205" y="656"/>
      <point x="285" y="656" type="curve"/>
      <point x="353" y="656"/>
      <point x="414" y="631"/>
      <point x="465" y="605" type="curve"/>
      <point x="503" y="660"/>
      <point x="467" y="608"/>
      <point x="505" y="662" type="curve"/>
      <point x="438" y="699"/>
      <point x="373" y="724"/>
      <point x="288" y="724" type="curve"/>
      <point x="154" y="724"/>
      <point x="51" y="668"/>
      <point x="51" y="547" type="curve"/>
      <point x="51" y="428"/>
      <point x="152" y="387"/>
      <point x="265" y="338" type="curve"/>
      <point x="360" y="297"/>
      <point x="453" y="261"/>
      <point x="453" y="181" type="curve"/>
      <point x="453" y="105"/>
      <point x="375" y="69"/>
      <point x="279" y="69" type="curve"/>
      <point x="208" y="69"/>
      <point x="143" y="92"/>
      <point x="86" y="122" type="curve"/>
      <point x="43" y="58"/>
      <point x="85" y="120"/>
    </contour>
    <contour>
      <point x="289" y="801" type="move" name="top"/>
    </contour>
    <contour>
      <point x="307" y="-13" type="move" name="bottom"/>
    </contour>
  </outline>
</glyph>
<glyph name="T" format="1">
  <advance width="669"/>
  <unicode hex="0054"/>
  <outline>
    <contour>
      <point x="381" y="0" type="curve"/>
      <point x="381" y="237"/>
      <point x="381" y="473"/>
      <point x="381" y="710" type="curve"/>
      <point x="288" y="710"/>
      <point x="381" y="710"/>
      <point x="288" y="710" type="curve"/>
      <point x="288" y="473"/>
      <point x="288" y="237"/>
      <point x="288" y="0" type="curve"/>
      <point x="381" y="0"/>
      <point x="288" y="0"/>
    </contour>
    <contour>
      <point x="11" y="647" type="curve"/>
      <point x="226" y="647"/>
      <point x="442" y="647"/>
      <point x="658" y="647" type="curve"/>
      <point x="658" y="725"/>
      <point x="658" y="644"/>
      <point x="658" y="722" type="curve"/>
      <point x="442" y="722"/>
      <point x="226" y="722"/>
      <point x="11" y="722" type="curve"/>
      <point x="11" y="644"/>
      <point x="11" y="725"/>
    </contour>
    <contour>
      <point x="332" y="801" type="move" name="top"/>
    </contour>
    <contour>
      <point x="365" y="-16" type="move" name="bottom"/>
    </contour>
  </outline>
</glyph>
<glyph name="V" format="1">
  <advance width="705"/>
  <unicode hex="0056"/>
  <outline>
    <contour>
      <point x="599" y="722" type="curve"/>
      <point x="503" y="481"/>
      <point x="408" y="241"/>
      <point x="313" y="0" type="curve"/>
      <point x="408" y="0"/>
      <point x="309" y="0"/>
      <point x="404" y="0" type="curve"/>
      <point x="501" y="241"/>
      <point x="597" y="481"/>
      <point x="694" y="722" type="curve"/>
      <point x="599" y="722"/>
      <point x="694" y="722"/>
    </contour>
    <contour>
      <point x="9" y="722" type="curve"/>
      <point x="107" y="481"/>
      <point x="205" y="241"/>
      <point x="303" y="0" type="curve"/>
      <point x="398" y="0"/>
      <point x="300" y="0"/>
      <point x="395" y="0" type="curve"/>
      <point x="298" y="241"/>
      <point x="202" y="481"/>
      <point x="105" y="722" type="curve"/>
      <point x="9" y="722"/>
      <point x="104" y="722"/>
    </contour>
  </outline>
</glyph>
<glyph name="W" format="1">
  <advance width="931"/>
  <unicode hex="0057"/>
  <outline>
    <contour>
      <point x="304" y="0" type="curve"/>
      <point x="374" y="241"/>
      <point x="442" y="481"/>
      <point x="512" y="722" type="curve"/>
      <point x="426" y="722"/>
      <point x="513" y="722"/>
      <point x="427" y="722" type="curve"/>
      <point x="361" y="481"/>
      <point x="295" y="242"/>
      <point x="228" y="0" type="curve"/>
      <point x="309" y="0"/>
      <point x="223" y="0"/>
    </contour>
    <contour>
      <point x="437" y="722" type="curve"/>
      <point x="500" y="481"/>
      <point x="560" y="241"/>
      <point x="623" y="0" type="curve"/>
      <point x="704" y="0"/>
      <point x="617" y="0"/>
      <point x="698" y="0" type="curve"/>
      <point x="639" y="242"/>
      <point x="581" y="481"/>
      <point x="520" y="722" type="curve"/>
      <point x="434" y="722"/>
      <point x="523" y="722"/>
    </contour>
    <contour>
      <point x="27" y="722" type="curve"/>
      <point x="90" y="481"/>
      <point x="153" y="241"/>
      <point x="216" y="0" type="curve"/>
      <point x="298" y="0"/>
      <point x="215" y="0"/>
      <point x="297" y="0" type="curve"/>
      <point x="236" y="241"/>
      <point x="176" y="481"/>
      <point x="115" y="722" type="curve"/>
      <point x="27" y="722"/>
      <point x="115" y="722"/>
    </contour>
    <contour>
      <point x="820" y="722" type="curve"/>
      <point x="757" y="481"/>
      <point x="695" y="241"/>
      <point x="632" y="0" type="curve"/>
      <point x="714" y="0"/>
      <point x="629" y="0"/>
      <point x="711" y="0" type="curve"/>
      <point x="777" y="241"/>
      <point x="842" y="481"/>
      <point x="909" y="722" type="curve"/>
      <point x="820" y="722"/>
      <point x="909" y="722"/>
    </contour>
  </outline>
</glyph>
<glyph name="X" format="1">
  <advance width="659"/>
  <unicode hex="0058"/>
  <outline>
    <contour>
      <point x="529" y="722" type="curve"/>
      <point x="359" y="486"/>
      <point x="174" y="236"/>
      <point x="5" y="0" type="curve"/>
      <point x="99" y="0"/>
      <point x="19" y="0"/>
      <point x="113" y="0" type="curve"/>
      <point x="282" y="236"/>
      <point x="462" y="485"/>
      <point x="631" y="722" type="curve"/>
      <point x="542" y="722"/>
      <point x="618" y="722"/>
    </contour>
    <contour>
      <point x="37" y="722" type="curve"/>
      <point x="204" y="486"/>
      <point x="381" y="236"/>
      <point x="548" y="0" type="curve"/>
      <point x="643" y="0"/>
      <point x="557" y="0"/>
      <point x="652" y="0" type="curve"/>
      <point x="483" y="238"/>
      <point x="305" y="484"/>
      <point x="136" y="722" type="curve"/>
      <point x="48" y="722"/>
      <point x="125" y="722"/>
    </contour>
  </outline>
</glyph>
<glyph name="Y" format="1">
  <advance width="627"/>
  <unicode hex="0059"/>
  <outline>
    <contour>
      <point x="16" y="722" type="curve"/>
      <point x="95" y="598"/>
      <point x="187" y="462"/>
      <point x="265" y="337" type="curve"/>
      <point x="360" y="337"/>
      <point x="260" y="338"/>
      <point x="354" y="338" type="curve"/>
      <point x="275" y="467"/>
      <point x="197" y="593"/>
      <point x="117" y="722" type="curve"/>
      <point x="31" y="722"/>
      <point x="102" y="722"/>
    </contour>
    <contour>
      <point x="524" y="722" type="curve"/>
      <point x="439" y="593"/>
      <point x="356" y="467"/>
      <point x="271" y="338" type="curve"/>
      <point x="365" y="338"/>
      <point x="268" y="337"/>
      <point x="362" y="337" type="curve"/>
      <point x="445" y="462"/>
      <point x="537" y="598"/>
      <point x="621" y="722" type="curve"/>
      <point x="535" y="722"/>
      <point x="611" y="722"/>
    </contour>
    <contour>
      <point x="364" y="0" type="curve"/>
      <point x="364" y="115"/>
      <point x="364" y="229"/>
      <point x="364" y="344" type="curve"/>
      <point x="263" y="344"/>
      <point x="364" y="344"/>
      <point x="263" y="344" type="curve"/>
      <point x="263" y="229"/>
      <point x="263" y="115"/>
      <point x="263" y="0" type="curve"/>
      <point x="364" y="0"/>
      <point x="263" y="0"/>
    </contour>
    <contour>
      <point x="317" y="801" type="move" name="top"/>
    </contour>
  </outline>
</glyph>
<glyph name="bracketleft" format="1">
  <advance width="307"/>
  <unicode hex="005B"/>
  <outline>
    <contour>
      <point x="273" y="770" type="curve"/>
      <point x="220" y="770"/>
      <point x="166" y="770"/>
      <point x="113" y="770" type="curve"/>
      <point x="103" y="770"/>
      <point x="84" y="770"/>
      <point x="74" y="770" type="curve"/>
      <point x="74" y="760"/>
      <point x="74" y="747"/>
      <point x="74" y="737" type="curve"/>
      <point x="74" y="462"/>
      <point x="74" y="188"/>
      <point x="74" y="-86" type="curve"/>
      <point x="74" y="-96"/>
      <point x="74" y="-107"/>
      <point x="74" y="-118" type="curve"/>
      <point x="84" y="-118"/>
      <point x="101" y="-118"/>
      <point x="112" y="-118" type="curve"/>
      <point x="165" y="-118"/>
      <point x="219" y="-118"/>
      <point x="273" y="-118" type="curve"/>
      <point x="273" y="-40"/>
      <point x="273" y="-118"/>
      <point x="273" y="-40" type="curve"/>
      <point x="219" y="-40"/>
      <point x="165" y="-40"/>
      <point x="112" y="-40" type="curve"/>
      <point x="167" y="-40"/>
      <point x="112" y="-40"/>
      <point x="167" y="-40" type="curve"/>
      <point x="167" y="-86"/>
      <point x="167" y="-40"/>
      <point x="167" y="-86" type="curve"/>
      <point x="167" y="188"/>
      <point x="167" y="462"/>
      <point x="167" y="737" type="curve"/>
      <point x="167" y="692"/>
      <point x="167" y="737"/>
      <point x="167" y="692" type="curve"/>
      <point x="113" y="692"/>
      <point x="167" y="692"/>
      <point x="113" y="692" type="curve"/>
      <point x="166" y="692"/>
      <point x="220" y="692"/>
      <point x="273" y="692" type="curve"/>
      <point x="273" y="770"/>
      <point x="273" y="692"/>
    </contour>
  </outline>
</glyph>
<glyph name="backslash" format="1">
  <advance width="556"/>
  <unicode hex="005C"/>
  <outline>
    <contour>
      <point x="531" y="-68" type="curve"/>
      <point x="395" y="236"/>
      <point x="258" y="540"/>
      <point x="122" y="844" type="curve"/>
      <point x="26" y="844"/>
      <point x="122" y="844"/>
      <point x="26" y="844" type="curve"/>
      <point x="162" y="540"/>
      <point x="298" y="236"/>
      <point x="435" y="-68" type="curve"/>
      <point x="531" y="-68"/>
      <point x="435" y="-68"/>
    </contour>
  </outline>
</glyph>
<glyph name="bracketright" format="1">
  <advance width="306"/>
  <unicode hex="005D"/>
  <outline>
    <contour>
      <point x="34" y="692" type="curve"/>
      <point x="87" y="692"/>
      <point x="140" y="692"/>
      <point x="194" y="692" type="curve"/>
      <point x="184" y="699"/>
      <point x="172" y="703"/>
      <point x="164" y="710" type="curve"/>
      <point x="155" y="718"/>
      <point x="148" y="729"/>
      <point x="140" y="737" type="curve"/>
      <point x="140" y="462"/>
      <point x="140" y="188"/>
      <point x="140" y="-86" type="curve"/>
      <point x="149" y="-78"/>
      <point x="157" y="-68"/>
      <point x="166" y="-60" type="curve"/>
      <point x="175" y="-52"/>
      <point x="186" y="-48"/>
      <point x="195" y="-40" type="curve"/>
      <point x="141" y="-40"/>
      <point x="87" y="-40"/>
      <point x="34" y="-40" type="curve"/>
      <point x="34" y="-118"/>
      <point x="34" y="-40"/>
      <point x="34" y="-118" type="curve"/>
      <point x="87" y="-118"/>
      <point x="141" y="-118"/>
      <point x="195" y="-118" type="curve"/>
      <point x="233" y="-118"/>
      <point x="195" y="-118"/>
      <point x="233" y="-118" type="curve"/>
      <point x="233" y="-86"/>
      <point x="233" y="-118"/>
      <point x="233" y="-86" type="curve"/>
      <point x="232" y="188"/>
      <point x="233" y="462"/>
      <point x="233" y="737" type="curve"/>
      <point x="233" y="770"/>
      <point x="233" y="737"/>
      <point x="233" y="770" type="curve"/>
      <point x="194" y="770"/>
      <point x="233" y="770"/>
      <point x="194" y="770" type="curve"/>
      <point x="140" y="770"/>
      <point x="87" y="770"/>
      <point x="34" y="770" type="curve"/>
      <point x="34" y="692"/>
      <point x="34" y="770"/>
    </contour>
  </outline>
</glyph>
<glyph name="asciicircum" format="1">
  <advance width="546"/>
  <unicode hex="005E"/>
  <outline>
    <contour>
      <point x="136" y="459" type="curve"/>
      <point x="197" y="566"/>
      <point x="258" y="672"/>
      <point x="318" y="779" type="curve"/>
      <point x="226" y="779"/>
      <point x="317" y="779"/>
      <point x="226" y="779" type="curve"/>
      <point x="165" y="672"/>
      <point x="104" y="566"/>
      <point x="44" y="459" type="curve"/>
      <point x="136" y="459"/>
      <point x="44" y="459"/>
    </contour>
    <contour>
      <point x="502" y="459" type="curve"/>
      <point x="442" y="563"/>
      <point x="378" y="674"/>
      <point x="318" y="779" type="curve"/>
      <point x="227" y="779"/>
      <point x="318" y="779"/>
      <point x="226" y="779" type="curve"/>
      <point x="286" y="674"/>
      <point x="349" y="563"/>
      <point x="409" y="459" type="curve"/>
      <point x="501" y="459"/>
      <point x="410" y="459"/>
    </contour>
  </outline>
</glyph>
<glyph name="grave" format="1">
  <advance width="374"/>
  <unicode hex="0060"/>
  <outline>
    <contour>
      <point x="310" y="574" type="line"/>
      <point x="186" y="740" type="line"/>
      <point x="66" y="740" type="line"/>
      <point x="217" y="574" type="line"/>
    </contour>
    <contour>
      <point x="259" y="574" type="move" name="_top"/>
    </contour>
  </outline>
</glyph>
<glyph name="b" format="1">
  <advance width="656"/>
  <unicode hex="0062"/>
  <outline>
    <contour>
      <point x="147" y="363" type="curve"/>
      <point x="189" y="414"/>
      <point x="254" y="465"/>
      <point x="343" y="465" type="curve"/>
      <point x="455" y="465"/>
      <point x="515" y="382"/>
      <point x="515" y="264" type="curve"/>
      <point x="516" y="150"/>
      <point x="452" y="68"/>
      <point x="343" y="68" type="curve"/>
      <point x="264" y="68"/>
      <point x="203" y="103"/>
      <point x="154" y="158" type="curve"/>
      <point x="118" y="133"/>
      <point x="138" y="146"/>
      <point x="102" y="120" type="curve"/>
      <point x="171" y="44"/>
      <point x="245" y="-5"/>
      <point x="356" y="-5" type="curve"/>
      <point x="513" y="-5"/>
      <point x="608" y="101"/>
      <point x="608" y="266" type="curve"/>
      <point x="608" y="430"/>
      <point x="514" y="538"/>
      <point x="356" y="538" type="curve"/>
      <point x="243" y="538"/>
      <point x="164" y="479"/>
      <point x="106" y="409" type="curve"/>
      <point x="135" y="381"/>
      <point x="118" y="391"/>
    </contour>
    <contour>
      <point x="172" y="0" type="curve"/>
      <point x="172" y="279"/>
      <point x="172" y="521"/>
      <point x="172" y="800" type="curve"/>
      <point x="107" y="800"/>
      <point x="144" y="800"/>
      <point x="79" y="800" type="curve"/>
      <point x="79" y="521"/>
      <point x="79" y="279"/>
      <point x="79" y="0" type="curve"/>
      <point x="144" y="0"/>
      <point x="107" y="0"/>
    </contour>
  </outline>
</glyph>
<glyph name="e" format="1">
  <advance width="586"/>
  <unicode hex="0065"/>
  <outline>
    <contour>
      <point x="96" y="247" type="curve"/>
      <point x="231" y="247"/>
      <point x="368" y="247"/>
      <point x="504" y="247" type="curve"/>
      <point x="538" y="247"/>
      <point x="504" y="247"/>
      <point x="538" y="247" type="curve"/>
      <point x="538" y="270"/>
      <point x="538" y="247"/>
      <point x="538" y="270" type="curve"/>
      <point x="538" y="278"/>
      <point x="538" y="285"/>
      <point x="538" y="292" type="curve"/>
      <point x="538" y="451"/>
      <point x="453" y="538"/>
      <point x="302" y="538" type="curve"/>
      <point x="139" y="538"/>
      <point x="48" y="446"/>
      <point x="48" y="279" type="curve"/>
      <point x="48" y="97"/>
      <point x="148" y="-5"/>
      <point x="325" y="-5" type="curve"/>
      <point x="407" y="-5"/>
      <point x="461" y="20"/>
      <point x="522" y="71" type="curve"/>
      <point x="473" y="125"/>
      <point x="522" y="71"/>
      <point x="473" y="125" type="curve"/>
      <point x="426" y="87"/>
      <point x="382" y="67"/>
      <point x="323" y="67" type="curve"/>
      <point x="199" y="67"/>
      <point x="138" y="148"/>
      <point x="138" y="279" type="curve"/>
      <point x="138" y="394"/>
      <point x="188" y="466"/>
      <point x="297" y="466" type="curve"/>
      <point x="398" y="466"/>
      <point x="451" y="408"/>
      <point x="451" y="304" type="curve"/>
      <point x="451" y="294"/>
      <point x="451" y="285"/>
      <point x="451" y="275" type="curve"/>
      <point x="459" y="282"/>
      <point x="468" y="291"/>
      <point x="477" y="298" type="curve"/>
      <point x="485" y="305"/>
      <point x="495" y="306"/>
      <point x="504" y="313" type="curve"/>
      <point x="368" y="313"/>
      <point x="231" y="313"/>
      <point x="96" y="313" type="curve"/>
      <point x="96" y="243"/>
      <point x="96" y="318"/>
    </contour>
    <contour>
      <point x="301" y="639" type="move" name="top"/>
    </contour>
    <contour>
      <point x="369" y="8" type="move" name="bottom"/>
    </contour>
  </outline>
</glyph>
<glyph name="f" format="1">
  <advance width="471"/>
  <unicode hex="0066"/>
  <outline>
    <contour>
      <point x="22" y="462" type="curve"/>
      <point x="444" y="462" type="line"/>
      <point x="444" y="533"/>
      <point x="444" y="462"/>
      <point x="444" y="533" type="curve"/>
      <point x="22" y="533" type="line"/>
      <point x="22" y="462"/>
      <point x="22" y="533"/>
    </contour>
    <contour>
      <point x="256" y="0" type="curve"/>
      <point x="256" y="620" type="line"/>
      <point x="256" y="689"/>
      <point x="289" y="735"/>
      <point x="355" y="735" type="curve"/>
      <point x="386" y="735"/>
      <point x="416" y="726"/>
      <point x="443" y="714" type="curve"/>
      <point x="480" y="770"/>
      <point x="443" y="714"/>
      <point x="480" y="770" type="curve"/>
      <point x="442" y="789"/>
      <point x="398" y="804"/>
      <point x="355" y="804" type="curve"/>
      <point x="238" y="804"/>
      <point x="163" y="735"/>
      <point x="164" y="620" type="curve"/>
      <point x="164" y="0" type="line"/>
      <point x="256" y="0"/>
      <point x="164" y="0"/>
    </contour>
  </outline>
</glyph>
<glyph name="g" format="1">
  <advance width="568"/>
  <unicode hex="0067"/>
  <outline>
    <contour>
      <point x="388" y="464" type="curve"/>
      <point x="551" y="536" type="line"/>
      <point x="548" y="540"/>
      <point x="517" y="600"/>
      <point x="514" y="605" type="curve"/>
      <point x="340" y="517" type="line"/>
      <point x="388" y="463"/>
      <point x="341" y="517"/>
    </contour>
    <contour>
      <point x="144" y="346" type="curve"/>
      <point x="144" y="422"/>
      <point x="201" y="468"/>
      <point x="281" y="468" type="curve"/>
      <point x="361" y="468"/>
      <point x="414" y="423"/>
      <point x="414" y="347" type="curve"/>
      <point x="414" y="275"/>
      <point x="360" y="233"/>
      <point x="281" y="233" type="curve"/>
      <point x="203" y="233"/>
      <point x="144" y="271"/>
      <point x="144" y="346" type="curve"/>
      <point x="52" y="343"/>
      <point x="144" y="346"/>
      <point x="52" y="343" type="curve"/>
      <point x="52" y="224"/>
      <point x="148" y="162"/>
      <point x="275" y="162" type="curve"/>
      <point x="406" y="162"/>
      <point x="506" y="226"/>
      <point x="506" y="350" type="curve"/>
      <point x="506" y="472"/>
      <point x="410" y="538"/>
      <point x="281" y="538" type="curve"/>
      <point x="149" y="538"/>
      <point x="52" y="468"/>
      <point x="52" y="343" type="curve"/>
      <point x="144" y="346"/>
      <point x="52" y="343"/>
    </contour>
    <contour>
      <point x="154" y="238" type="curve"/>
      <point x="98" y="210"/>
      <point x="56" y="174"/>
      <point x="56" y="111" type="curve"/>
      <point x="56" y="10"/>
      <point x="156" y="-15"/>
      <point x="268" y="-24" type="curve"/>
      <point x="371" y="-32"/>
      <point x="473" y="-41"/>
      <point x="473" y="-130" type="curve"/>
      <point x="473" y="-211"/>
      <point x="381" y="-234"/>
      <point x="281" y="-234" type="curve"/>
      <point x="185" y="-234"/>
      <point x="104" y="-202"/>
      <point x="104" y="-117" type="curve"/>
      <point x="104" y="-53"/>
      <point x="141" y="-15"/>
      <point x="196" y="7" type="curve"/>
      <point x="150" y="49"/>
      <point x="196" y="7"/>
      <point x="150" y="49" type="curve"/>
      <point x="70" y="19"/>
      <point x="12" y="-31"/>
      <point x="12" y="-120" type="curve"/>
      <point x="12" y="-254"/>
      <point x="132" y="-304"/>
      <point x="277" y="-304" type="curve"/>
      <point x="428" y="-304"/>
      <point x="560" y="-262"/>
      <point x="557" y="-123" type="curve"/>
      <point x="557" y="10"/>
      <point x="426" y="33"/>
      <point x="284" y="43" type="curve"/>
      <point x="214" y="48"/>
      <point x="149" y="60"/>
      <point x="149" y="118" type="curve"/>
      <point x="149" y="154"/>
      <point x="168" y="176"/>
      <point x="199" y="194" type="curve"/>
      <point x="154" y="238"/>
      <point x="199" y="194"/>
    </contour>
    <contour>
      <point x="277" y="639" type="move" name="top"/>
    </contour>
  </outline>
</glyph>
<glyph name="h" format="1">
  <advance width="633"/>
  <unicode hex="0068"/>
  <outline>
    <contour>
      <point x="151" y="316" type="curve"/>
      <point x="182" y="401"/>
      <point x="254" y="466"/>
      <point x="339" y="466" type="curve"/>
      <point x="427" y="466"/>
      <point x="467" y="408"/>
      <point x="467" y="319" type="curve"/>
      <point x="467" y="212"/>
      <point x="467" y="108"/>
      <point x="467" y="0" type="curve"/>
      <point x="560" y="0"/>
      <point x="467" y="0"/>
      <point x="560" y="0" type="curve"/>
      <point x="560" y="110"/>
      <point x="560" y="220"/>
      <point x="560" y="330" type="curve"/>
      <point x="560" y="463"/>
      <point x="492" y="537"/>
      <point x="358" y="537" type="curve"/>
      <point x="247" y="537"/>
      <point x="152" y="463"/>
      <point x="113" y="351" type="curve"/>
      <point x="152" y="315"/>
      <point x="112" y="352"/>
    </contour>
    <contour>
      <point x="172" y="0" type="curve"/>
      <point x="172" y="267"/>
      <point x="172" y="533"/>
      <point x="172" y="800" type="curve"/>
      <point x="79" y="800"/>
      <point x="172" y="800"/>
      <point x="79" y="800" type="curve"/>
      <point x="79" y="533"/>
      <point x="79" y="267"/>
      <point x="79" y="0" type="curve"/>
      <point x="172" y="0"/>
      <point x="79" y="0"/>
    </contour>
  </outline>
</glyph>
<glyph name="i" format="1">
  <advance width="257"/>
  <unicode hex="0069"/>
  <outline>
    <contour>
      <point x="177" y="0" type="curve"/>
      <point x="177" y="178"/>
      <point x="177" y="355"/>
      <point x="177" y="533" type="curve"/>
      <point x="80" y="533"/>
      <point x="177" y="533"/>
      <point x="80" y="533" type="curve"/>
      <point x="80" y="355"/>
      <point x="80" y="178"/>
      <point x="80" y="0" type="curve"/>
      <point x="177" y="0"/>
      <point x="80" y="0"/>
    </contour>
    <contour>
      <point x="182" y="684" type="curve"/>
      <point x="182" y="716"/>
      <point x="158" y="733"/>
      <point x="126" y="733" type="curve"/>
      <point x="94" y="733"/>
      <point x="72" y="715"/>
      <point x="72" y="684" type="curve"/>
      <point x="175" y="684"/>
      <point x="79" y="684"/>
      <point x="182" y="684" type="curve"/>
      <point x="182" y="651"/>
      <point x="158" y="636"/>
      <point x="126" y="636" type="curve"/>
      <point x="93" y="636"/>
      <point x="72" y="653"/>
      <point x="72" y="684" type="curve"/>
      <point x="175" y="684"/>
      <point x="79" y="684"/>
    </contour>
    <contour>
      <point x="126" y="638" type="move" name="top"/>
    </contour>
    <contour>
      <point x="171" y="5" type="move" name="bottom"/>
    </contour>
  </outline>
</glyph>
<glyph name="j" format="1">
  <advance width="268"/>
  <unicode hex="006A"/>
  <outline>
    <contour>
      <point x="-41" y="-302" type="curve"/>
      <point x="-32" y="-303"/>
      <point x="-20" y="-305"/>
      <point x="-7" y="-305" type="curve"/>
      <point x="108" y="-305"/>
      <point x="194" y="-241"/>
      <point x="194" y="-130" type="curve"/>
      <point x="194" y="91"/>
      <point x="194" y="312"/>
      <point x="194" y="534" type="curve"/>
      <point x="102" y="534"/>
      <point x="194" y="534"/>
      <point x="102" y="534" type="curve"/>
      <point x="102" y="312"/>
      <point x="102" y="91"/>
      <point x="102" y="-130" type="curve"/>
      <point x="102" y="-193"/>
      <point x="60" y="-236"/>
      <point x="-3" y="-236" type="curve"/>
      <point x="-12" y="-236"/>
      <point x="-22" y="-235"/>
      <point x="-28" y="-234" type="curve"/>
      <point x="-41" y="-301"/>
      <point x="-28" y="-234"/>
    </contour>
    <contour>
      <point x="204" y="682" type="curve"/>
      <point x="204" y="714"/>
      <point x="180" y="731"/>
      <point x="148" y="731" type="curve"/>
      <point x="116" y="731"/>
      <point x="95" y="713"/>
      <point x="95" y="682" type="curve"/>
      <point x="197" y="682"/>
      <point x="101" y="682"/>
      <point x="204" y="682" type="curve"/>
      <point x="204" y="649"/>
      <point x="180" y="634"/>
      <point x="148" y="634" type="curve"/>
      <point x="115" y="634"/>
      <point x="95" y="651"/>
      <point x="95" y="682" type="curve"/>
      <point x="197" y="682"/>
      <point x="101" y="682"/>
    </contour>
  </outline>
</glyph>
<glyph name="k" format="1">
  <advance width="574"/>
  <unicode hex="006B"/>
  <outline>
    <contour>
      <point x="172" y="0" type="curve"/>
      <point x="172" y="800" type="line"/>
      <point x="79" y="800"/>
      <point x="172" y="800"/>
      <point x="79" y="800" type="curve"/>
      <point x="79" y="533"/>
      <point x="79" y="267"/>
      <point x="79" y="0" type="curve"/>
      <point x="172" y="0"/>
      <point x="79" y="0"/>
    </contour>
    <contour>
      <point x="416" y="533" type="curve"/>
      <point x="147" y="275" type="line"/>
      <point x="255" y="275"/>
      <point x="151" y="275"/>
      <point x="259" y="275" type="curve"/>
      <point x="533" y="533" type="line"/>
      <point x="421" y="533"/>
      <point x="527" y="533"/>
    </contour>
    <contour>
      <point x="560" y="0" type="curve"/>
      <point x="259" y="275" type="line"/>
      <point x="151" y="275"/>
      <point x="255" y="275"/>
      <point x="147" y="275" type="curve"/>
      <point x="442" y="0" type="line"/>
      <point x="551" y="0"/>
      <point x="450" y="0"/>
    </contour>
    <contour>
      <point x="350" y="-18" type="move" name="bottom"/>
    </contour>
  </outline>
</glyph>
<glyph name="m" format="1">
  <advance width="939"/>
  <unicode hex="006D"/>
  <outline>
    <contour>
      <point x="497" y="306" type="curve"/>
      <point x="533" y="394"/>
      <point x="581" y="465"/>
      <point x="662" y="465" type="curve"/>
      <point x="748" y="465"/>
      <point x="772" y="414"/>
      <point x="772" y="323" type="curve"/>
      <point x="772" y="215"/>
      <point x="772" y="108"/>
      <point x="772" y="0" type="curve"/>
      <point x="864" y="0"/>
      <point x="772" y="0"/>
      <point x="864" y="0" type="curve"/>
      <point x="864" y="110"/>
      <point x="864" y="220"/>
      <point x="864" y="330" type="curve"/>
      <point x="864" y="466"/>
      <point x="819" y="538"/>
      <point x="686" y="538" type="curve"/>
      <point x="575" y="538"/>
      <point x="504" y="460"/>
      <point x="459" y="344" type="curve"/>
      <point x="498" y="306"/>
      <point x="458" y="343"/>
    </contour>
    <contour>
      <point x="151" y="307" type="curve"/>
      <point x="186" y="395"/>
      <point x="233" y="465"/>
      <point x="315" y="465" type="curve"/>
      <point x="401" y="465"/>
      <point x="426" y="414"/>
      <point x="426" y="323" type="curve"/>
      <point x="426" y="215"/>
      <point x="426" y="108"/>
      <point x="426" y="0" type="curve"/>
      <point x="518" y="0"/>
      <point x="426" y="0"/>
      <point x="518" y="0" type="curve"/>
      <point x="518" y="110"/>
      <point x="518" y="220"/>
      <point x="518" y="330" type="curve"/>
      <point x="518" y="466"/>
      <point x="474" y="538"/>
      <point x="341" y="538" type="curve"/>
      <point x="228" y="538"/>
      <point x="163" y="464"/>
      <point x="113" y="345" type="curve"/>
      <point x="152" y="308"/>
      <point x="112" y="345"/>
    </contour>
    <contour>
      <point x="172" y="0" type="curve"/>
      <point x="172" y="178"/>
      <point x="172" y="355"/>
      <point x="172" y="533" type="curve"/>
      <point x="79" y="533"/>
      <point x="172" y="533"/>
      <point x="79" y="533" type="curve"/>
      <point x="79" y="355"/>
      <point x="79" y="178"/>
      <point x="79" y="0" type="curve"/>
      <point x="172" y="0"/>
      <point x="79" y="0"/>
    </contour>
  </outline>
</glyph>
<glyph name="p" format="1">
  <advance width="657"/>
  <unicode hex="0070"/>
  <outline>
    <contour>
      <point x="145" y="347" type="curve"/>
      <point x="187" y="413"/>
      <point x="257" y="468"/>
      <point x="346" y="468" type="curve"/>
      <point x="459" y="468"/>
      <point x="517" y="385"/>
      <point x="517" y="269" type="curve"/>
      <point x="519" y="150"/>
      <point x="459" y="65"/>
      <point x="345" y="66" type="curve"/>
      <point x="264" y="66"/>
      <point x="205" y="99"/>
      <point x="147" y="153" type="curve"/>
      <point x="118" y="127"/>
      <point x="136" y="137"/>
      <point x="107" y="110" type="curve"/>
      <point x="175" y="37"/>
      <point x="253" y="-5"/>
      <point x="358" y="-5" type="curve"/>
      <point x="521" y="-5"/>
      <point x="609" y="109"/>
      <point x="609" y="272" type="curve"/>
      <point x="609" y="429"/>
      <point x="521" y="539"/>
      <point x="363" y="539" type="curve"/>
      <point x="251" y="539"/>
      <point x="166" y="480"/>
      <point x="112" y="401" type="curve"/>
      <point x="136" y="362"/>
      <point x="121" y="386"/>
    </contour>
    <contour>
      <point x="171" y="-300" type="curve"/>
      <point x="171" y="-22"/>
      <point x="171" y="255"/>
      <point x="171" y="533" type="curve"/>
      <point x="79" y="533"/>
      <point x="171" y="533"/>
      <point x="79" y="533" type="curve"/>
      <point x="79" y="255"/>
      <point x="79" y="-22"/>
      <point x="79" y="-300" type="curve"/>
      <point x="171" y="-300"/>
      <point x="79" y="-300"/>
    </contour>
  </outline>
</glyph>
<glyph name="q" format="1">
  <advance width="662"/>
  <unicode hex="0071"/>
  <outline>
    <contour>
      <point x="550" y="410" type="curve"/>
      <point x="485" y="490"/>
      <point x="401" y="538"/>
      <point x="299" y="538" type="curve"/>
      <point x="136" y="538"/>
      <point x="48" y="427"/>
      <point x="48" y="264" type="curve"/>
      <point x="48" y="101"/>
      <point x="141" y="-5"/>
      <point x="304" y="-5" type="curve"/>
      <point x="409" y="-5"/>
      <point x="491" y="52"/>
      <point x="557" y="133" type="curve"/>
      <point x="530" y="162"/>
      <point x="541" y="147"/>
      <point x="514" y="176" type="curve"/>
      <point x="465" y="107"/>
      <point x="398" y="66"/>
      <point x="316" y="66" type="curve"/>
      <point x="202" y="66"/>
      <point x="141" y="148"/>
      <point x="141" y="267" type="curve"/>
      <point x="141" y="384"/>
      <point x="201" y="466"/>
      <point x="314" y="466" type="curve"/>
      <point x="393" y="466"/>
      <point x="463" y="429"/>
      <point x="517" y="363" type="curve"/>
      <point x="539" y="394"/>
      <point x="528" y="379"/>
    </contour>
    <contour>
      <point x="583" y="-300" type="curve"/>
      <point x="583" y="-14"/>
      <point x="583" y="247"/>
      <point x="583" y="533" type="curve"/>
      <point x="516" y="533"/>
      <point x="553" y="533"/>
      <point x="486" y="533" type="curve"/>
      <point x="486" y="247"/>
      <point x="486" y="-14"/>
      <point x="486" y="-300" type="curve"/>
      <point x="553" y="-300"/>
      <point x="516" y="-300"/>
    </contour>
  </outline>
</glyph>
<glyph name="r" format="1">
  <advance width="402"/>
  <unicode hex="0072"/>
  <outline>
    <contour>
      <point x="172" y="0" type="curve"/>
      <point x="172" y="186"/>
      <point x="172" y="347"/>
      <point x="172" y="533" type="curve"/>
      <point x="107" y="533"/>
      <point x="144" y="533"/>
      <point x="79" y="533" type="curve"/>
      <point x="79" y="347"/>
      <point x="79" y="186"/>
      <point x="79" y="0" type="curve"/>
      <point x="144" y="0"/>
      <point x="107" y="0"/>
    </contour>
    <contour>
      <point x="149" y="309" type="curve"/>
      <point x="199" y="423"/>
      <point x="284" y="459"/>
      <point x="391" y="459" type="curve"/>
      <point x="391" y="515"/>
      <point x="391" y="483"/>
      <point x="391" y="538" type="curve"/>
      <point x="267" y="538"/>
      <point x="171" y="473"/>
      <point x="118" y="358" type="curve"/>
      <point x="142" y="326"/>
      <point x="126" y="340"/>
    </contour>
    <contour>
      <point x="153" y="639" type="move" name="top"/>
    </contour>
    <contour>
      <point x="152" y="-6" type="move" name="bottom"/>
    </contour>
  </outline>
</glyph>
<glyph name="t" format="1">
  <advance width="433"/>
  <unicode hex="0074"/>
  <outline>
    <contour>
      <point x="22" y="462" type="curve"/>
      <point x="415" y="462" type="line"/>
      <point x="415" y="533"/>
      <point x="415" y="462"/>
      <point x="415" y="533" type="curve"/>
      <point x="22" y="533" type="line"/>
      <point x="22" y="462"/>
      <point x="22" y="533"/>
    </contour>
    <contour>
      <point x="390" y="90" type="curve"/>
      <point x="362" y="76"/>
      <point x="340" y="69"/>
      <point x="308" y="69" type="curve"/>
      <point x="252" y="69"/>
      <point x="228" y="102"/>
      <point x="228" y="162" type="curve"/>
      <point x="228" y="682" type="line"/>
      <point x="187" y="656"/>
      <point x="178" y="653"/>
      <point x="136" y="627" type="curve"/>
      <point x="136" y="158" type="line"/>
      <point x="136" y="50"/>
      <point x="193" y="-6"/>
      <point x="297" y="-6" type="curve"/>
      <point x="348" y="-6"/>
      <point x="382" y="8"/>
      <point x="421" y="28" type="curve"/>
      <point x="390" y="90"/>
      <point x="421" y="28"/>
    </contour>
    <contour>
      <point x="317" y="-13" type="move" name="bottom"/>
    </contour>
  </outline>
</glyph>
<glyph name="v" format="1">
  <advance width="585"/>
  <unicode hex="0076"/>
  <outline>
    <contour>
      <point x="22" y="533" type="curve"/>
      <point x="94" y="355"/>
      <point x="166" y="178"/>
      <point x="238" y="0" type="curve"/>
      <point x="329" y="0"/>
      <point x="238" y="0"/>
      <point x="329" y="0" type="curve"/>
      <point x="257" y="178"/>
      <point x="188" y="355"/>
      <point x="117" y="533" type="curve"/>
      <point x="22" y="533"/>
      <point x="117" y="533"/>
    </contour>
    <contour>
      <point x="475" y="533" type="curve"/>
      <point x="251" y="0" type="line"/>
      <point x="341" y="0"/>
      <point x="251" y="0"/>
      <point x="341" y="0" type="curve"/>
      <point x="417" y="178"/>
      <point x="493" y="355"/>
      <point x="569" y="533" type="curve"/>
      <point x="475" y="533"/>
      <point x="569" y="533"/>
    </contour>
  </outline>
</glyph>
<glyph name="w" format="1">
  <advance width="926"/>
  <unicode hex="0077"/>
  <outline>
    <contour>
      <point x="301" y="0" type="curve"/>
      <point x="372" y="178"/>
      <point x="442" y="355"/>
      <point x="512" y="533" type="curve"/>
      <point x="423" y="533"/>
      <point x="512" y="533"/>
      <point x="423" y="533" type="curve"/>
      <point x="353" y="355"/>
      <point x="284" y="178"/>
      <point x="214" y="0" type="curve"/>
      <point x="301" y="0"/>
      <point x="214" y="0"/>
    </contour>
    <contour>
      <point x="816" y="533" type="curve"/>
      <point x="751" y="355"/>
      <point x="686" y="178"/>
      <point x="621" y="0" type="curve"/>
      <point x="707" y="0"/>
      <point x="621" y="0"/>
      <point x="707" y="0" type="curve"/>
      <point x="774" y="178"/>
      <point x="840" y="355"/>
      <point x="906" y="533" type="curve"/>
      <point x="816" y="533"/>
      <point x="906" y="533"/>
    </contour>
    <contour>
      <point x="429" y="533" type="curve"/>
      <point x="493" y="355"/>
      <point x="556" y="178"/>
      <point x="620" y="0" type="curve"/>
      <point x="706" y="0"/>
      <point x="620" y="0"/>
      <point x="706" y="0" type="curve"/>
      <point x="644" y="178"/>
      <point x="580" y="355"/>
      <point x="518" y="533" type="curve"/>
      <point x="429" y="533"/>
      <point x="518" y="533"/>
    </contour>
    <contour>
      <point x="23" y="533" type="curve"/>
      <point x="87" y="355"/>
      <point x="150" y="178"/>
      <point x="213" y="0" type="curve"/>
      <point x="300" y="0"/>
      <point x="213" y="0"/>
      <point x="300" y="0" type="curve"/>
      <point x="237" y="178"/>
      <point x="175" y="355"/>
      <point x="112" y="533" type="curve"/>
      <point x="23" y="533"/>
      <point x="112" y="533"/>
    </contour>
  </outline>
</glyph>
<glyph name="x" format="1">
  <advance width="597"/>
  <unicode hex="0078"/>
  <outline>
    <contour>
      <point x="583" y="0" type="curve"/>
      <point x="514" y="83"/>
      <point x="191" y="450"/>
      <point x="123" y="533" type="curve"/>
      <point x="-3" y="533"/>
      <point x="149" y="533"/>
      <point x="24" y="533" type="curve"/>
      <point x="91" y="450"/>
      <point x="410" y="83"/>
      <point x="477" y="0" type="curve"/>
      <point x="583" y="0"/>
      <point x="477" y="0"/>
    </contour>
    <contour>
      <point x="478" y="533" type="curve"/>
      <point x="409" y="450"/>
      <point x="80" y="83"/>
      <point x="12" y="0" type="curve"/>
      <point x="118" y="0"/>
      <point x="12" y="0"/>
      <point x="118" y="0" type="curve"/>
      <point x="187" y="83"/>
      <point x="510" y="450"/>
      <point x="578" y="533" type="curve"/>
      <point x="441" y="533"/>
      <point x="615" y="533"/>
    </contour>
  </outline>
</glyph>
<glyph name="y" format="1">
  <advance width="614"/>
  <unicode hex="0079"/>
  <outline>
    <contour>
      <point x="341" y="-4" type="curve"/>
      <point x="300" y="85"/>
      <point x="153" y="443"/>
      <point x="112" y="533" type="curve"/>
      <point x="16" y="533"/>
      <point x="112" y="533"/>
      <point x="16" y="533" type="curve"/>
      <point x="60" y="443"/>
      <point x="214" y="78"/>
      <point x="258" y="-12" type="curve"/>
      <point x="341" y="-12"/>
      <point x="258" y="-4"/>
    </contour>
    <contour>
      <point x="207" y="-300" type="curve"/>
      <point x="278" y="-162"/>
      <point x="536" y="395"/>
      <point x="606" y="533" type="curve"/>
      <point x="511" y="533"/>
      <point x="606" y="533"/>
      <point x="511" y="533" type="curve"/>
      <point x="441" y="395"/>
      <point x="182" y="-162"/>
      <point x="111" y="-300" type="curve"/>
      <point x="207" y="-300"/>
      <point x="111" y="-300"/>
    </contour>
    <contour>
      <point x="311" y="639" type="move" name="top"/>
    </contour>
  </outline>
</glyph>
<glyph name="braceleft" format="1">
  <advance width="300"/>
  <unicode hex="007B"/>
  <outline>
    <contour>
      <point x="265" y="-44" type="curve"/>
      <point x="211" y="-44"/>
      <point x="186" y="-7"/>
      <point x="186" y="48" type="curve"/>
      <point x="186" y="103"/>
      <point x="186" y="157"/>
      <point x="186" y="212" type="curve"/>
      <point x="186" y="313"/>
      <point x="125" y="377"/>
      <point x="24" y="377" type="curve"/>
      <point x="24" y="303"/>
      <point x="24" y="377"/>
      <point x="24" y="303" type="curve"/>
      <point x="75" y="303"/>
      <point x="102" y="271"/>
      <point x="102" y="219" type="curve"/>
      <point x="102" y="163"/>
      <point x="102" y="107"/>
      <point x="102" y="52" type="curve"/>
      <point x="102" y="-51"/>
      <point x="163" y="-115"/>
      <point x="265" y="-115" type="curve"/>
      <point x="265" y="-44"/>
      <point x="265" y="-115"/>
    </contour>
    <contour>
      <point x="265" y="794" type="curve"/>
      <point x="163" y="794"/>
      <point x="102" y="732"/>
      <point x="102" y="630" type="curve"/>
      <point x="102" y="573"/>
      <point x="102" y="516"/>
      <point x="102" y="459" type="curve"/>
      <point x="102" y="407"/>
      <point x="75" y="377"/>
      <point x="24" y="377" type="curve"/>
      <point x="24" y="303"/>
      <point x="24" y="377"/>
      <point x="24" y="303" type="curve"/>
      <point x="125" y="303"/>
      <point x="186" y="366"/>
      <point x="186" y="469" type="curve"/>
      <point x="186" y="523"/>
      <point x="186" y="576"/>
      <point x="186" y="630" type="curve"/>
      <point x="186" y="686"/>
      <point x="210" y="724"/>
      <point x="265" y="724" type="curve"/>
      <point x="265" y="794"/>
      <point x="265" y="724"/>
    </contour>
  </outline>
</glyph>
<glyph name="braceright" format="1">
  <advance width="301"/>
  <unicode hex="007D"/>
  <outline>
    <contour>
      <point x="34" y="-115" type="curve"/>
      <point x="136" y="-115"/>
      <point x="197" y="-51"/>
      <point x="197" y="52" type="curve"/>
      <point x="197" y="107"/>
      <point x="197" y="163"/>
      <point x="197" y="219" type="curve"/>
      <point x="197" y="270"/>
      <point x="224" y="303"/>
      <point x="275" y="303" type="curve"/>
      <point x="275" y="377"/>
      <point x="275" y="303"/>
      <point x="275" y="377" type="curve"/>
      <point x="174" y="377"/>
      <point x="113" y="312"/>
      <point x="113" y="212" type="curve"/>
      <point x="113" y="157"/>
      <point x="113" y="103"/>
      <point x="113" y="48" type="curve"/>
      <point x="113" y="-7"/>
      <point x="89" y="-45"/>
      <point x="34" y="-45" type="curve"/>
      <point x="34" y="-115"/>
      <point x="34" y="-45"/>
    </contour>
    <contour>
      <point x="34" y="723" type="curve"/>
      <point x="89" y="723"/>
      <point x="113" y="686"/>
      <point x="113" y="630" type="curve"/>
      <point x="113" y="576"/>
      <point x="113" y="523"/>
      <point x="113" y="469" type="curve"/>
      <point x="113" y="366"/>
      <point x="174" y="303"/>
      <point x="275" y="303" type="curve"/>
      <point x="275" y="377"/>
      <point x="275" y="303"/>
      <point x="275" y="377" type="curve"/>
      <point x="224" y="377"/>
      <point x="197" y="407"/>
      <point x="197" y="459" type="curve"/>
      <point x="197" y="516"/>
      <point x="197" y="573"/>
      <point x="197" y="630" type="curve"/>
      <point x="197" y="732"/>
      <point x="136" y="794"/>
      <point x="34" y="794" type="curve"/>
      <point x="34" y="723"/>
      <point x="34" y="794"/>
    </contour>
  </outline>
</glyph>
<glyph name="asciitilde" format="1">
  <advance width="703"/>
  <unicode hex="007E"/>
  <outline>
    <contour>
      <point x="565" y="363" type="curve"/>
      <point x="547" y="318"/>
      <point x="527" y="277"/>
      <point x="480" y="277" type="curve"/>
      <point x="437" y="277"/>
      <point x="411" y="288"/>
      <point x="377" y="314" type="curve"/>
      <point x="328" y="351"/>
      <point x="293" y="371"/>
      <point x="231" y="371" type="curve"/>
      <point x="138" y="371"/>
      <point x="92" y="324"/>
      <point x="66" y="237" type="curve"/>
      <point x="98" y="224"/>
      <point x="102" y="222"/>
      <point x="135" y="209" type="curve"/>
      <point x="150" y="260"/>
      <point x="175" y="299"/>
      <point x="227" y="299" type="curve"/>
      <point x="265" y="299"/>
      <point x="288" y="288"/>
      <point x="318" y="265" type="curve"/>
      <point x="371" y="226"/>
      <point x="408" y="205"/>
      <point x="475" y="205" type="curve"/>
      <point x="565" y="205"/>
      <point x="605" y="255"/>
      <point x="637" y="336" type="curve"/>
      <point x="603" y="349"/>
      <point x="599" y="351"/>
    </contour>
  </outline>
</glyph>
<glyph name="exclamdown" format="1">
  <advance width="253"/>
  <unicode hex="00A1"/>
  <outline>
    <contour>
      <point x="88" y="304" type="line"/>
      <point x="77" y="-189" type="line"/>
      <point x="178" y="-189" type="line"/>
      <point x="169" y="304" type="line"/>
    </contour>
    <contour>
      <point x="74" y="494" type="curve"/>
      <point x="74" y="462"/>
      <point x="97" y="446"/>
      <point x="128" y="446" type="curve"/>
      <point x="160" y="446"/>
      <point x="181" y="464"/>
      <point x="181" y="494" type="curve"/>
      <point x="80" y="494"/>
      <point x="175" y="494"/>
      <point x="74" y="494" type="curve"/>
      <point x="74" y="526"/>
      <point x="97" y="541"/>
      <point x="129" y="541" type="curve"/>
      <point x="161" y="541"/>
      <point x="181" y="525"/>
      <point x="181" y="494" type="curve"/>
      <point x="80" y="494"/>
      <point x="175" y="494"/>
    </contour>
  </outline>
</glyph>
<glyph name="cent" format="1">
  <advance width="666"/>
  <unicode hex="00A2"/>
  <outline>
    <contour>
      <point x="399" y="-53" type="curve"/>
      <point x="399" y="-13"/>
      <point x="399" y="27"/>
      <point x="399" y="67" type="curve"/>
      <point x="307" y="67"/>
      <point x="399" y="67"/>
      <point x="307" y="67" type="curve"/>
      <point x="307" y="27"/>
      <point x="307" y="-13"/>
      <point x="307" y="-53" type="curve"/>
      <point x="399" y="-53"/>
      <point x="307" y="-53"/>
    </contour>
    <contour>
      <point x="329" y="778" type="curve"/>
      <point x="329" y="742"/>
      <point x="329" y="706"/>
      <point x="329" y="670" type="curve"/>
      <point x="420" y="670"/>
      <point x="329" y="670"/>
      <point x="420" y="670" type="curve"/>
      <point x="420" y="706"/>
      <point x="420" y="742"/>
      <point x="420" y="778" type="curve"/>
      <point x="329" y="778"/>
      <point x="420" y="778"/>
    </contour>
    <contour>
      <point x="621" y="611" type="curve"/>
      <point x="541" y="663"/>
      <point x="476" y="683"/>
      <point x="382" y="683" type="curve"/>
      <point x="177" y="683"/>
      <point x="45" y="566"/>
      <point x="45" y="364" type="curve"/>
      <point x="45" y="172"/>
      <point x="156" y="49"/>
      <point x="348" y="49" type="curve"/>
      <point x="457" y="49"/>
      <point x="533" y="77"/>
      <point x="620" y="143" type="curve"/>
      <point x="568" y="201"/>
      <point x="620" y="143"/>
      <point x="568" y="201" type="curve"/>
      <point x="496" y="149"/>
      <point x="440" y="123"/>
      <point x="356" y="123" type="curve"/>
      <point x="214" y="123"/>
      <point x="137" y="221"/>
      <point x="137" y="368" type="curve"/>
      <point x="137" y="518"/>
      <point x="228" y="609"/>
      <point x="373" y="609" type="curve"/>
      <point x="451" y="609"/>
      <point x="505" y="592"/>
      <point x="575" y="550" type="curve"/>
      <point x="621" y="611"/>
      <point x="575" y="550"/>
    </contour>
  </outline>
</glyph>
<glyph name="sterling" format="1">
  <advance width="530"/>
  <unicode hex="00A3"/>
  <outline>
    <contour>
      <point x="463" y="71" type="curve"/>
      <point x="322" y="71"/>
      <point x="181" y="71"/>
      <point x="41" y="71" type="curve"/>
      <point x="41" y="0"/>
      <point x="41" y="71"/>
      <point x="41" y="0" type="curve"/>
      <point x="181" y="0"/>
      <point x="323" y="0"/>
      <point x="463" y="0" type="curve"/>
      <point x="463" y="71"/>
      <point x="463" y="0"/>
    </contour>
    <contour>
      <point x="412" y="411" type="curve"/>
      <point x="300" y="411"/>
      <point x="186" y="411"/>
      <point x="75" y="411" type="curve"/>
      <point x="75" y="341"/>
      <point x="75" y="411"/>
      <point x="75" y="341" type="curve"/>
      <point x="186" y="341"/>
      <point x="300" y="341"/>
      <point x="412" y="341" type="curve"/>
      <point x="412" y="411"/>
      <point x="412" y="341"/>
    </contour>
    <contour>
      <point x="488" y="667" type="curve"/>
      <point x="437" y="707"/>
      <point x="395" y="722"/>
      <point x="334" y="722" type="curve"/>
      <point x="164" y="722"/>
      <point x="102" y="561"/>
      <point x="146" y="368" type="curve"/>
      <point x="181" y="212"/>
      <point x="159" y="71"/>
      <point x="41" y="71" type="curve"/>
      <point x="41" y="0"/>
      <point x="41" y="71"/>
      <point x="41" y="0" type="curve"/>
      <point x="225" y="0"/>
      <point x="280" y="177"/>
      <point x="234" y="383" type="curve"/>
      <point x="202" y="526"/>
      <point x="227" y="654"/>
      <point x="329" y="654" type="curve"/>
      <point x="375" y="654"/>
      <point x="405" y="640"/>
      <point x="442" y="615" type="curve"/>
      <point x="488" y="667"/>
      <point x="442" y="615"/>
    </contour>
  </outline>
</glyph>
<glyph name="currency" format="1">
  <advance width="670"/>
  <unicode hex="00A4"/>
  <outline>
    <contour>
      <point x="226" y="314" type="curve"/>
      <point x="226" y="382"/>
      <point x="266" y="426"/>
      <point x="334" y="426" type="curve"/>
      <point x="405" y="426"/>
      <point x="443" y="383"/>
      <point x="443" y="313" type="curve"/>
      <point x="443" y="244"/>
      <point x="407" y="196"/>
      <point x="340" y="196" type="curve"/>
      <point x="267" y="196"/>
      <point x="226" y="241"/>
      <point x="226" y="314" type="curve"/>
      <point x="134" y="314"/>
      <point x="228" y="314"/>
      <point x="136" y="314" type="curve"/>
      <point x="136" y="194"/>
      <point x="215" y="125"/>
      <point x="338" y="125" type="curve"/>
      <point x="458" y="125"/>
      <point x="534" y="198"/>
      <point x="534" y="316" type="curve"/>
      <point x="534" y="430"/>
      <point x="458" y="497"/>
      <point x="342" y="497" type="curve"/>
      <point x="219" y="497"/>
      <point x="136" y="432"/>
      <point x="136" y="314" type="curve"/>
      <point x="228" y="314"/>
      <point x="134" y="314"/>
    </contour>
    <contour>
      <point x="462" y="361" type="line"/>
      <point x="615" y="504" type="line"/>
      <point x="544" y="575" type="line"/>
      <point x="401" y="423" type="line"/>
    </contour>
    <contour>
      <point x="402" y="205" type="line"/>
      <point x="546" y="53" type="line"/>
      <point x="616" y="124" type="line"/>
      <point x="464" y="267" type="line"/>
    </contour>
    <contour>
      <point x="205" y="268" type="line"/>
      <point x="53" y="125" type="line"/>
      <point x="124" y="53" type="line"/>
      <point x="267" y="206" type="line"/>
    </contour>
    <contour>
      <point x="270" y="424" type="line"/>
      <point x="127" y="576" type="line"/>
      <point x="56" y="505" type="line"/>
      <point x="208" y="362" type="line"/>
    </contour>
  </outline>
</glyph>
<glyph name="yen" format="1">
  <advance width="673"/>
  <unicode hex="00A5"/>
  <outline>
    <contour>
      <point x="571" y="407" type="curve"/>
      <point x="498" y="407"/>
      <point x="425" y="407"/>
      <point x="351" y="407" type="curve"/>
      <point x="351" y="329"/>
      <point x="351" y="407"/>
      <point x="351" y="329" type="curve"/>
      <point x="425" y="329"/>
      <point x="498" y="329"/>
      <point x="571" y="329" type="curve"/>
      <point x="571" y="407"/>
      <point x="571" y="329"/>
    </contour>
    <contour>
      <point x="321" y="407" type="curve"/>
      <point x="249" y="407"/>
      <point x="177" y="407"/>
      <point x="105" y="407" type="curve"/>
      <point x="105" y="329"/>
      <point x="105" y="407"/>
      <point x="105" y="329" type="curve"/>
      <point x="177" y="329"/>
      <point x="249" y="329"/>
      <point x="321" y="329" type="curve"/>
      <point x="321" y="407"/>
      <point x="321" y="329"/>
    </contour>
    <contour>
      <point x="571" y="267" type="curve"/>
      <point x="416" y="267"/>
      <point x="260" y="267"/>
      <point x="105" y="267" type="curve"/>
      <point x="105" y="189"/>
      <point x="105" y="267"/>
      <point x="105" y="189" type="curve"/>
      <point x="260" y="189"/>
      <point x="416" y="189"/>
      <point x="571" y="189" type="curve"/>
      <point x="571" y="267"/>
      <point x="571" y="189"/>
    </contour>
    <contour>
      <point x="37" y="722" type="curve"/>
      <point x="115" y="598"/>
      <point x="207" y="462"/>
      <point x="286" y="337" type="curve"/>
      <point x="380" y="337"/>
      <point x="280" y="338"/>
      <point x="374" y="338" type="curve"/>
      <point x="295" y="467"/>
      <point x="217" y="593"/>
      <point x="137" y="722" type="curve"/>
      <point x="51" y="722"/>
      <point x="123" y="722"/>
    </contour>
    <contour>
      <point x="544" y="722" type="curve"/>
      <point x="460" y="593"/>
      <point x="377" y="467"/>
      <point x="291" y="338" type="curve"/>
      <point x="385" y="338"/>
      <point x="288" y="337"/>
      <point x="382" y="337" type="curve"/>
      <point x="466" y="462"/>
      <point x="558" y="598"/>
      <point x="641" y="722" type="curve"/>
      <point x="555" y="722"/>
      <point x="631" y="722"/>
    </contour>
    <contour>
      <point x="384" y="0" type="curve"/>
      <point x="384" y="115"/>
      <point x="384" y="229"/>
      <point x="384" y="344" type="curve"/>
      <point x="284" y="344"/>
      <point x="384" y="344"/>
      <point x="284" y="344" type="curve"/>
      <point x="284" y="229"/>
      <point x="284" y="115"/>
      <point x="284" y="0" type="curve"/>
      <point x="384" y="0"/>
      <point x="284" y="0"/>
    </contour>
  </outline>
</glyph>
<glyph name="section" format="1">
  <advance width="526"/>
  <unicode hex="00A7"/>
  <outline>
    <contour>
      <point x="432" y="705" type="curve"/>
      <point x="374" y="735"/>
      <point x="331" y="750"/>
      <point x="267" y="750" type="curve"/>
      <point x="159" y="750"/>
      <point x="84" y="704"/>
      <point x="84" y="609" type="curve"/>
      <point x="84" y="522"/>
      <point x="144" y="480"/>
      <point x="230" y="452" type="curve"/>
      <point x="306" y="428"/>
      <point x="390" y="423"/>
      <point x="390" y="358" type="curve"/>
      <point x="390" y="298"/>
      <point x="342" y="270"/>
      <point x="274" y="258" type="curve"/>
      <point x="329" y="201"/>
      <point x="274" y="258"/>
      <point x="329" y="201" type="curve"/>
      <point x="421" y="222"/>
      <point x="482" y="270"/>
      <point x="482" y="361" type="curve"/>
      <point x="481" y="467"/>
      <point x="383" y="488"/>
      <point x="276" y="519" type="curve"/>
      <point x="221" y="536"/>
      <point x="174" y="556"/>
      <point x="174" y="609" type="curve"/>
      <point x="174" y="655"/>
      <point x="209" y="679"/>
      <point x="262" y="679" type="curve"/>
      <point x="313" y="679"/>
      <point x="345" y="669"/>
      <point x="393" y="646" type="curve"/>
      <point x="432" y="705"/>
      <point x="393" y="646"/>
    </contour>
    <contour>
      <point x="196" y="521" type="curve"/>
      <point x="109" y="496"/>
      <point x="48" y="454"/>
      <point x="48" y="366" type="curve"/>
      <point x="48" y="266"/>
      <point x="132" y="235"/>
      <point x="234" y="206" type="curve"/>
      <point x="297" y="185"/>
      <point x="361" y="172"/>
      <point x="361" y="116" type="curve"/>
      <point x="361" y="68"/>
      <point x="321" y="43"/>
      <point x="266" y="43" type="curve"/>
      <point x="209" y="43"/>
      <point x="172" y="58"/>
      <point x="119" y="87" type="curve"/>
      <point x="73" y="33"/>
      <point x="119" y="87"/>
      <point x="73" y="33" type="curve"/>
      <point x="136" y="-10"/>
      <point x="188" y="-28"/>
      <point x="263" y="-28" type="curve"/>
      <point x="371" y="-28"/>
      <point x="452" y="17"/>
      <point x="452" y="118" type="curve"/>
      <point x="450" y="207"/>
      <point x="383" y="246"/>
      <point x="293" y="272" type="curve"/>
      <point x="218" y="295"/>
      <point x="140" y="305"/>
      <point x="140" y="370" type="curve"/>
      <point x="140" y="427"/>
      <point x="183" y="451"/>
      <point x="242" y="469" type="curve"/>
      <point x="196" y="521"/>
      <point x="242" y="469"/>
    </contour>
  </outline>
</glyph>
<glyph name="dieresis" format="1">
  <advance width="421"/>
  <unicode hex="00A8"/>
  <outline>
    <contour>
      <point x="168" y="641" type="curve"/>
      <point x="168" y="673"/>
      <point x="145" y="688"/>
      <point x="114" y="688" type="curve"/>
      <point x="82" y="688"/>
      <point x="61" y="671"/>
      <point x="61" y="641" type="curve"/>
      <point x="162" y="641"/>
      <point x="67" y="641"/>
      <point x="168" y="641" type="curve"/>
      <point x="168" y="608"/>
      <point x="145" y="594"/>
      <point x="113" y="594" type="curve"/>
      <point x="81" y="594"/>
      <point x="61" y="610"/>
      <point x="61" y="641" type="curve"/>
      <point x="162" y="641"/>
      <point x="67" y="641"/>
    </contour>
    <contour>
      <point x="345" y="641" type="curve"/>
      <point x="345" y="673"/>
      <point x="322" y="688"/>
      <point x="290" y="688" type="curve"/>
      <point x="259" y="688"/>
      <point x="238" y="671"/>
      <point x="238" y="641" type="curve"/>
      <point x="339" y="641"/>
      <point x="243" y="641"/>
      <point x="345" y="641" type="curve"/>
      <point x="345" y="608"/>
      <point x="322" y="594"/>
      <point x="290" y="594" type="curve"/>
      <point x="258" y="594"/>
      <point x="238" y="610"/>
      <point x="238" y="641" type="curve"/>
      <point x="339" y="641"/>
      <point x="243" y="641"/>
    </contour>
    <contour>
      <point x="203" y="597" type="move" name="_top"/>
    </contour>
  </outline>
</glyph>
<glyph name="copyright" format="1">
  <advance width="814"/>
  <unicode hex="00A9"/>
  <outline>
    <contour>
      <point x="128" y="322" type="curve"/>
      <point x="128" y="485"/>
      <point x="243" y="587"/>
      <point x="410" y="587" type="curve"/>
      <point x="572" y="587"/>
      <point x="684" y="483"/>
      <point x="684" y="320" type="curve"/>
      <point x="684" y="162"/>
      <point x="576" y="60"/>
      <point x="417" y="60" type="curve"/>
      <point x="250" y="60"/>
      <point x="128" y="158"/>
      <point x="128" y="322" type="curve"/>
      <point x="52" y="322"/>
      <point x="129" y="322"/>
      <point x="53" y="322" type="curve"/>
      <point x="53" y="121"/>
      <point x="205" y="1"/>
      <point x="414" y="1" type="curve"/>
      <point x="616" y="1"/>
      <point x="759" y="125"/>
      <point x="759" y="323" type="curve"/>
      <point x="759" y="522"/>
      <point x="613" y="645"/>
      <point x="410" y="645" type="curve"/>
      <point x="203" y="645"/>
      <point x="53" y="524"/>
      <point x="53" y="322" type="curve"/>
      <point x="129" y="322"/>
      <point x="52" y="322"/>
    </contour>
    <contour>
      <point x="555" y="457" type="curve"/>
      <point x="515" y="490"/>
      <point x="470" y="506"/>
      <point x="416" y="506" type="curve"/>
      <point x="296" y="506"/>
      <point x="220" y="438"/>
      <point x="220" y="321" type="curve"/>
      <point x="220" y="209"/>
      <point x="288" y="142"/>
      <point x="401" y="142" type="curve"/>
      <point x="465" y="142"/>
      <point x="510" y="153"/>
      <point x="559" y="193" type="curve"/>
      <point x="520" y="235"/>
      <point x="559" y="193"/>
      <point x="520" y="235" type="curve"/>
      <point x="480" y="210"/>
      <point x="448" y="200"/>
      <point x="404" y="200" type="curve"/>
      <point x="331" y="200"/>
      <point x="294" y="250"/>
      <point x="294" y="324" type="curve"/>
      <point x="294" y="400"/>
      <point x="336" y="447"/>
      <point x="413" y="447" type="curve"/>
      <point x="445" y="447"/>
      <point x="476" y="440"/>
      <point x="514" y="419" type="curve"/>
      <point x="557" y="458"/>
      <point x="512" y="418"/>
    </contour>
  </outline>
</glyph>
<glyph name="ordfeminine" format="1">
  <advance width="421"/>
  <unicode hex="00AA"/>
  <outline>
    <contour>
      <point x="352" y="426" type="curve"/>
      <point x="352" y="513"/>
      <point x="352" y="586"/>
      <point x="352" y="673" type="curve"/>
      <point x="352" y="749"/>
      <point x="290" y="773"/>
      <point x="209" y="773" type="curve"/>
      <point x="149" y="773"/>
      <point x="103" y="752"/>
      <point x="68" y="723" type="curve"/>
      <point x="90" y="686"/>
      <point x="73" y="717"/>
      <point x="95" y="679" type="curve"/>
      <point x="119" y="701"/>
      <point x="154" y="722"/>
      <point x="201" y="722" type="curve"/>
      <point x="249" y="722"/>
      <point x="287" y="707"/>
      <point x="287" y="662" type="curve"/>
      <point x="287" y="579"/>
      <point x="287" y="509"/>
      <point x="287" y="426" type="curve"/>
      <point x="345" y="426"/>
      <point x="295" y="426"/>
    </contour>
    <contour>
      <point x="318" y="644" type="curve"/>
      <point x="266" y="638"/>
      <point x="232" y="636"/>
      <point x="180" y="630" type="curve"/>
      <point x="105" y="621"/>
      <point x="50" y="596"/>
      <point x="50" y="526" type="curve"/>
      <point x="50" y="456"/>
      <point x="100" y="422"/>
      <point x="175" y="422" type="curve"/>
      <point x="249" y="422"/>
      <point x="288" y="466"/>
      <point x="335" y="521" type="curve"/>
      <point x="307" y="544"/>
      <point x="331" y="524"/>
      <point x="303" y="547" type="curve"/>
      <point x="272" y="505"/>
      <point x="240" y="472"/>
      <point x="187" y="472" type="curve"/>
      <point x="143" y="472"/>
      <point x="113" y="489"/>
      <point x="113" y="527" type="curve"/>
      <point x="113" y="564"/>
      <point x="143" y="580"/>
      <point x="179" y="585" type="curve"/>
      <point x="233" y="591"/>
      <point x="266" y="594"/>
      <point x="321" y="601" type="curve"/>
      <point x="318" y="638"/>
      <point x="320" y="607"/>
    </contour>
  </outline>
</glyph>
<glyph name="guillemotleft" format="1">
  <advance width="584"/>
  <unicode hex="00AB"/>
  <outline>
    <contour>
      <point x="273" y="445" type="curve"/>
      <point x="242" y="426"/>
      <point x="74" y="342"/>
      <point x="42" y="324" type="curve"/>
      <point x="42" y="246"/>
      <point x="42" y="319"/>
      <point x="42" y="241" type="curve"/>
      <point x="74" y="259"/>
      <point x="242" y="346"/>
      <point x="273" y="365" type="curve"/>
      <point x="273" y="442"/>
      <point x="273" y="367"/>
    </contour>
    <contour>
      <point x="273" y="201" type="curve"/>
      <point x="242" y="219"/>
      <point x="74" y="305"/>
      <point x="42" y="324" type="curve"/>
      <point x="42" y="246"/>
      <point x="42" y="319"/>
      <point x="42" y="241" type="curve"/>
      <point x="74" y="222"/>
      <point x="242" y="140"/>
      <point x="273" y="121" type="curve"/>
      <point x="273" y="199"/>
      <point x="273" y="124"/>
    </contour>
    <contour>
      <point x="516" y="445" type="curve"/>
      <point x="485" y="426"/>
      <point x="317" y="342"/>
      <point x="285" y="324" type="curve"/>
      <point x="285" y="246"/>
      <point x="285" y="319"/>
      <point x="285" y="241" type="curve"/>
      <point x="317" y="259"/>
      <point x="485" y="346"/>
      <point x="516" y="365" type="curve"/>
      <point x="516" y="442"/>
      <point x="516" y="367"/>
    </contour>
    <contour>
      <point x="516" y="201" type="curve"/>
      <point x="485" y="219"/>
      <point x="317" y="305"/>
      <point x="285" y="324" type="curve"/>
      <point x="285" y="246"/>
      <point x="285" y="319"/>
      <point x="285" y="241" type="curve"/>
      <point x="317" y="222"/>
      <point x="485" y="140"/>
      <point x="516" y="121" type="curve"/>
      <point x="516" y="199"/>
      <point x="516" y="124"/>
    </contour>
  </outline>
</glyph>
<glyph name="logicalnot" format="1">
  <advance width="675"/>
  <unicode hex="00AC"/>
  <outline>
    <contour>
      <point x="72" y="273" type="curve"/>
      <point x="600" y="273" type="line"/>
      <point x="600" y="351"/>
      <point x="600" y="273"/>
      <point x="600" y="351" type="curve"/>
      <point x="72" y="351" type="line"/>
      <point x="72" y="273"/>
      <point x="72" y="351"/>
    </contour>
    <contour>
      <point x="600" y="145" type="curve"/>
      <point x="600" y="351" type="line"/>
      <point x="507" y="351"/>
      <point x="603" y="351"/>
      <point x="511" y="351" type="curve"/>
      <point x="511" y="145" type="line"/>
      <point x="603" y="145"/>
      <point x="507" y="145"/>
    </contour>
  </outline>
</glyph>
<glyph name="registered" format="1">
  <advance width="815"/>
  <unicode hex="00AE"/>
  <outline>
    <contour>
      <point x="123" y="321" type="curve"/>
      <point x="123" y="492"/>
      <point x="239" y="592"/>
      <point x="412" y="592" type="curve"/>
      <point x="581" y="592"/>
      <point x="693" y="489"/>
      <point x="693" y="320" type="curve"/>
      <point x="693" y="155"/>
      <point x="585" y="54"/>
      <point x="419" y="54" type="curve"/>
      <point x="244" y="54"/>
      <point x="123" y="150"/>
      <point x="123" y="321" type="curve"/>
      <point x="91" y="321"/>
      <point x="87" y="321"/>
      <point x="55" y="321" type="curve"/>
      <point x="55" y="116"/>
      <point x="203" y="1"/>
      <point x="416" y="1" type="curve"/>
      <point x="622" y="1"/>
      <point x="761" y="120"/>
      <point x="761" y="323" type="curve"/>
      <point x="761" y="527"/>
      <point x="620" y="645"/>
      <point x="412" y="645" type="curve"/>
      <point x="200" y="645"/>
      <point x="55" y="528"/>
      <point x="55" y="321" type="curve"/>
      <point x="87" y="321"/>
      <point x="91" y="321"/>
    </contour>
    <contour>
      <point x="387" y="314" type="curve"/>
      <point x="405" y="286"/>
      <point x="470" y="172"/>
      <point x="488" y="144" type="curve"/>
      <point x="529" y="144"/>
      <point x="516" y="144"/>
      <point x="562" y="144" type="curve"/>
      <point x="544" y="173"/>
      <point x="481" y="282"/>
      <point x="463" y="311" type="curve"/>
      <point x="378" y="311"/>
      <point x="471" y="314"/>
    </contour>
    <contour>
      <point x="364" y="144" type="curve"/>
      <point x="364" y="254"/>
      <point x="364" y="391"/>
      <point x="364" y="500" type="curve"/>
      <point x="320" y="500"/>
      <point x="337" y="501"/>
      <point x="291" y="501" type="curve"/>
      <point x="291" y="391"/>
      <point x="291" y="254"/>
      <point x="291" y="144" type="curve"/>
      <point x="339" y="144"/>
      <point x="317" y="144"/>
    </contour>
    <contour>
      <point x="332" y="281" type="curve"/>
      <point x="352" y="281"/>
      <point x="373" y="281"/>
      <point x="393" y="281" type="curve"/>
      <point x="480" y="281"/>
      <point x="542" y="308"/>
      <point x="542" y="392" type="curve"/>
      <point x="542" y="465"/>
      <point x="487" y="501"/>
      <point x="410" y="501" type="curve"/>
      <point x="396" y="501"/>
      <point x="353" y="501"/>
      <point x="339" y="501" type="curve"/>
      <point x="292" y="452"/>
      <point x="367" y="501"/>
      <point x="291" y="442" type="curve"/>
      <point x="326" y="442"/>
      <point x="362" y="442"/>
      <point x="396" y="442" type="curve"/>
      <point x="439" y="442"/>
      <point x="470" y="428"/>
      <point x="470" y="389" type="curve"/>
      <point x="470" y="351"/>
      <point x="443" y="339"/>
      <point x="404" y="339" type="curve"/>
      <point x="380" y="339"/>
      <point x="355" y="339"/>
      <point x="332" y="339" type="curve"/>
      <point x="332" y="281"/>
      <point x="332" y="339"/>
    </contour>
  </outline>
</glyph>
<glyph name="macron" format="1">
  <advance width="345"/>
  <unicode hex="00AF"/>
  <outline>
    <contour>
      <point x="267" y="674" type="curve"/>
      <point x="188" y="674"/>
      <point x="110" y="674"/>
      <point x="32" y="674" type="curve"/>
      <point x="32" y="604"/>
      <point x="32" y="674"/>
      <point x="32" y="604" type="curve"/>
      <point x="110" y="604"/>
      <point x="188" y="604"/>
      <point x="267" y="604" type="curve"/>
      <point x="267" y="674"/>
      <point x="267" y="604"/>
    </contour>
    <contour>
      <point x="151" y="604" type="move" name="_top"/>
    </contour>
  </outline>
</glyph>
<glyph name="degree" format="1">
  <advance width="490"/>
  <unicode hex="00B0"/>
  <outline>
    <contour>
      <point x="439" y="494" type="curve"/>
      <point x="439" y="617"/>
      <point x="367" y="694"/>
      <point x="245" y="694" type="curve"/>
      <point x="123" y="694"/>
      <point x="51" y="618"/>
      <point x="51" y="496" type="curve"/>
      <point x="112" y="496"/>
      <point x="69" y="496"/>
      <point x="130" y="496" type="curve"/>
      <point x="130" y="573"/>
      <point x="167" y="627"/>
      <point x="243" y="627" type="curve"/>
      <point x="318" y="627"/>
      <point x="359" y="574"/>
      <point x="359" y="494" type="curve"/>
      <point x="359" y="414"/>
      <point x="322" y="357"/>
      <point x="245" y="357" type="curve"/>
      <point x="168" y="357"/>
      <point x="130" y="415"/>
      <point x="130" y="496" type="curve"/>
      <point x="69" y="496"/>
      <point x="112" y="496"/>
      <point x="51" y="496" type="curve"/>
      <point x="51" y="371"/>
      <point x="121" y="290"/>
      <point x="244" y="290" type="curve"/>
      <point x="367" y="290"/>
      <point x="439" y="370"/>
    </contour>
  </outline>
</glyph>
<glyph name="plusminus" format="1">
  <advance width="676"/>
  <unicode hex="00B1"/>
  <outline>
    <contour>
      <point x="57" y="28" type="line"/>
      <point x="619" y="28" type="line"/>
      <point x="619" y="105" type="line"/>
      <point x="57" y="105" type="line"/>
    </contour>
    <contour>
      <point x="57" y="273" type="curve"/>
      <point x="619" y="273" type="line"/>
      <point x="619" y="351"/>
      <point x="619" y="273"/>
      <point x="619" y="351" type="curve"/>
      <point x="57" y="351" type="line"/>
      <point x="57" y="273"/>
      <point x="57" y="351"/>
    </contour>
    <contour>
      <point x="382" y="28" type="curve"/>
      <point x="382" y="585" type="line"/>
      <point x="290" y="585"/>
      <point x="387" y="585"/>
      <point x="295" y="585" type="curve"/>
      <point x="295" y="28" type="line"/>
      <point x="387" y="28"/>
      <point x="290" y="28"/>
    </contour>
  </outline>
</glyph>
<glyph name="twosuperior" format="1">
  <advance width="478"/>
  <unicode hex="00B2"/>
  <outline>
    <contour>
      <point x="50" y="305" type="curve"/>
      <point x="188" y="305"/>
      <point x="309" y="305"/>
      <point x="421" y="305" type="curve"/>
      <point x="421" y="340"/>
      <point x="421" y="337"/>
      <point x="421" y="370" type="curve"/>
      <point x="301" y="370"/>
      <point x="169" y="370"/>
      <point x="50" y="370" type="curve"/>
      <point x="50" y="305"/>
      <point x="50" y="370"/>
    </contour>
    <contour>
      <point x="129" y="609" type="curve"/>
      <point x="155" y="647"/>
      <point x="184" y="670"/>
      <point x="230" y="670" type="curve"/>
      <point x="280" y="670"/>
      <point x="314" y="646"/>
      <point x="314" y="601" type="curve"/>
      <point x="314" y="557"/>
      <point x="283" y="536"/>
      <point x="249" y="508" type="curve"/>
      <point x="182" y="462"/>
      <point x="116" y="416"/>
      <point x="50" y="370" type="curve"/>
      <point x="55" y="306"/>
      <point x="51" y="370"/>
      <point x="56" y="306" type="curve"/>
      <point x="144" y="361"/>
      <point x="226" y="408"/>
      <point x="296" y="457" type="curve"/>
      <point x="352" y="502"/>
      <point x="398" y="535"/>
      <point x="398" y="604" type="curve"/>
      <point x="398" y="692"/>
      <point x="331" y="735"/>
      <point x="238" y="735" type="curve"/>
      <point x="161" y="735"/>
      <point x="105" y="708"/>
      <point x="70" y="642" type="curve"/>
      <point x="129" y="609"/>
      <point x="70" y="642"/>
    </contour>
    <contour>
      <point x="240" y="735" type="move" name="_top"/>
    </contour>
    <contour>
      <point x="232" y="305" type="move" name="_bottom"/>
    </contour>
  </outline>
</glyph>
<glyph name="threesuperior" format="1">
  <advance width="424"/>
  <unicode hex="00B3"/>
  <outline>
    <contour>
      <point x="95" y="632" type="curve"/>
      <point x="123" y="656"/>
      <point x="155" y="670"/>
      <point x="187" y="670" type="curve"/>
      <point x="236" y="670"/>
      <point x="272" y="654"/>
      <point x="272" y="610" type="curve"/>
      <point x="272" y="559"/>
      <point x="207" y="551"/>
      <point x="143" y="548" type="curve"/>
      <point x="143" y="493"/>
      <point x="143" y="548"/>
      <point x="143" y="493" type="curve"/>
      <point x="257" y="495"/>
      <point x="357" y="516"/>
      <point x="357" y="615" type="curve"/>
      <point x="357" y="701"/>
      <point x="288" y="733"/>
      <point x="196" y="733" type="curve"/>
      <point x="140" y="733"/>
      <point x="90" y="712"/>
      <point x="53" y="676" type="curve"/>
      <point x="95" y="632"/>
      <point x="53" y="676"/>
    </contour>
    <contour>
      <point x="49" y="335" type="curve"/>
      <point x="90" y="312"/>
      <point x="131" y="299"/>
      <point x="178" y="299" type="curve"/>
      <point x="290" y="296"/>
      <point x="375" y="328"/>
      <point x="373" y="427" type="curve"/>
      <point x="373" y="532"/>
      <point x="263" y="536"/>
      <point x="143" y="539" type="curve"/>
      <point x="143" y="491"/>
      <point x="143" y="539"/>
      <point x="143" y="491" type="curve"/>
      <point x="219" y="488"/>
      <point x="288" y="480"/>
      <point x="288" y="425" type="curve"/>
      <point x="288" y="376"/>
      <point x="244" y="359"/>
      <point x="187" y="361" type="curve"/>
      <point x="153" y="361"/>
      <point x="121" y="368"/>
      <point x="86" y="385" type="curve"/>
      <point x="49" y="335"/>
      <point x="86" y="385"/>
    </contour>
    <contour>
      <point x="209" y="734" type="move" name="_top"/>
    </contour>
    <contour>
      <point x="199" y="298" type="move" name="_bottom"/>
    </contour>
  </outline>
</glyph>
<glyph name="acute" format="1">
  <advance width="252"/>
  <unicode hex="00B4"/>
  <outline>
    <contour>
      <point x="73" y="589" type="line"/>
      <point x="224" y="755" type="line"/>
      <point x="104" y="755" type="line"/>
      <point x="-18" y="589" type="line"/>
    </contour>
    <contour>
      <point x="33" y="590" type="move" name="_top"/>
    </contour>
  </outline>
</glyph>
<glyph name="paragraph" format="1">
  <advance width="787"/>
  <unicode hex="00B6"/>
  <outline>
    <contour>
      <point x="459" y="651" type="curve"/>
      <point x="627" y="651"/>
      <point x="459" y="651"/>
      <point x="627" y="651" type="curve"/>
      <point x="627" y="722"/>
      <point x="627" y="651"/>
      <point x="627" y="722" type="curve"/>
      <point x="571" y="722"/>
      <point x="515" y="722"/>
      <point x="459" y="722" type="curve"/>
      <point x="459" y="651"/>
      <point x="459" y="722"/>
    </contour>
    <contour>
      <point x="443" y="370" type="curve"/>
      <point x="391" y="346"/>
      <point x="351" y="332"/>
      <point x="293" y="332" type="curve"/>
      <point x="195" y="332"/>
      <point x="128" y="386"/>
      <point x="128" y="482" type="curve"/>
      <point x="128" y="595"/>
      <point x="213" y="651"/>
      <point x="330" y="651" type="curve"/>
      <point x="372" y="651"/>
      <point x="414" y="651"/>
      <point x="456" y="651" type="curve"/>
      <point x="456" y="722"/>
      <point x="456" y="651"/>
      <point x="456" y="722" type="curve"/>
      <point x="410" y="722"/>
      <point x="364" y="722"/>
      <point x="318" y="722" type="curve"/>
      <point x="155" y="722"/>
      <point x="36" y="640"/>
      <point x="36" y="486" type="curve"/>
      <point x="36" y="338"/>
      <point x="147" y="265"/>
      <point x="301" y="262" type="curve"/>
      <point x="364" y="262"/>
      <point x="416" y="282"/>
      <point x="472" y="308" type="curve"/>
      <point x="443" y="370"/>
      <point x="472" y="309"/>
    </contour>
    <contour>
      <point x="507" y="0" type="curve"/>
      <point x="507" y="241"/>
      <point x="507" y="481"/>
      <point x="507" y="722" type="curve"/>
      <point x="414" y="722"/>
      <point x="507" y="722"/>
      <point x="414" y="722" type="curve"/>
      <point x="414" y="481"/>
      <point x="414" y="241"/>
      <point x="414" y="0" type="curve"/>
      <point x="507" y="0"/>
      <point x="414" y="0"/>
    </contour>
    <contour>
      <point x="709" y="0" type="curve"/>
      <point x="709" y="241"/>
      <point x="709" y="481"/>
      <point x="709" y="722" type="curve"/>
      <point x="617" y="722"/>
      <point x="709" y="722"/>
      <point x="617" y="722" type="curve"/>
      <point x="617" y="481"/>
      <point x="617" y="241"/>
      <point x="617" y="0" type="curve"/>
      <point x="709" y="0"/>
      <point x="617" y="0"/>
    </contour>
  </outline>
</glyph>
<glyph name="periodcentered" format="1">
  <advance width="226"/>
  <unicode hex="00B7"/>
  <outline>
    <contour>
      <point x="167" y="440" type="curve"/>
      <point x="167" y="472"/>
      <point x="144" y="488"/>
      <point x="112" y="488" type="curve"/>
      <point x="80" y="488"/>
      <point x="59" y="470"/>
      <point x="59" y="440" type="curve"/>
      <point x="161" y="440"/>
      <point x="65" y="440"/>
      <point x="167" y="440" type="curve"/>
      <point x="167" y="408"/>
      <point x="144" y="393"/>
      <point x="112" y="393" type="curve"/>
      <point x="80" y="393"/>
      <point x="59" y="409"/>
      <point x="59" y="440" type="curve"/>
      <point x="161" y="440"/>
      <point x="65" y="440"/>
    </contour>
  </outline>
</glyph>
<glyph name="cedilla" format="1">
  <advance width="327"/>
  <unicode hex="00B8"/>
  <outline>
    <contour>
      <point x="157" y="101" type="curve"/>
      <point x="143" y="77"/>
      <point x="102" y="11"/>
      <point x="87" y="-13" type="curve"/>
      <point x="150" y="-70"/>
      <point x="87" y="-13"/>
      <point x="150" y="-70" type="curve"/>
      <point x="167" y="-43"/>
      <point x="212" y="25"/>
      <point x="228" y="52" type="curve"/>
      <point x="157" y="101"/>
      <point x="228" y="52"/>
    </contour>
    <contour>
      <point x="150" y="-70" type="curve"/>
      <point x="160" y="-64"/>
      <point x="168" y="-61"/>
      <point x="180" y="-61" type="curve"/>
      <point x="201" y="-61"/>
      <point x="213" y="-72"/>
      <point x="213" y="-93" type="curve"/>
      <point x="213" y="-117"/>
      <point x="193" y="-127"/>
      <point x="166" y="-127" type="curve"/>
      <point x="141" y="-127"/>
      <point x="121" y="-122"/>
      <point x="95" y="-109" type="curve"/>
      <point x="65" y="-162"/>
      <point x="95" y="-109"/>
      <point x="65" y="-162" type="curve"/>
      <point x="97" y="-179"/>
      <point x="125" y="-187"/>
      <point x="162" y="-187" type="curve"/>
      <point x="235" y="-187"/>
      <point x="288" y="-159"/>
      <point x="288" y="-91" type="curve"/>
      <point x="288" y="-28"/>
      <point x="244" y="7"/>
      <point x="180" y="7" type="curve"/>
      <point x="145" y="7"/>
      <point x="120" y="1"/>
      <point x="87" y="-13" type="curve"/>
      <point x="150" y="-70"/>
      <point x="87" y="-13"/>
    </contour>
    <contour>
      <point x="217" y="52" type="move" name="_bottom"/>
    </contour>
  </outline>
</glyph>
<glyph name="onesuperior" format="1">
  <advance width="305"/>
  <unicode hex="00B9"/>
  <outline>
    <contour>
      <point x="61" y="574" type="line"/>
      <point x="231" y="722" type="line"/>
      <point x="146" y="727" type="line"/>
      <point x="19" y="622" type="line"/>
    </contour>
    <contour>
      <point x="231" y="305" type="curve"/>
      <point x="231" y="727" type="line"/>
      <point x="146" y="727" type="line"/>
      <point x="146" y="305" type="line"/>
      <point x="207" y="305"/>
      <point x="175" y="305"/>
    </contour>
    <contour>
      <point x="183" y="725" type="move" name="_top"/>
    </contour>
    <contour>
      <point x="190" y="306" type="move" name="_bottom"/>
    </contour>
  </outline>
</glyph>
<glyph name="ordmasculine" format="1">
  <advance width="443"/>
  <unicode hex="00BA"/>
  <outline>
    <contour>
      <point x="109" y="601" type="curve"/>
      <point x="109" y="674"/>
      <point x="147" y="723"/>
      <point x="220" y="723" type="curve"/>
      <point x="293" y="723"/>
      <point x="332" y="674"/>
      <point x="332" y="600" type="curve"/>
      <point x="332" y="523"/>
      <point x="295" y="472"/>
      <point x="225" y="472" type="curve"/>
      <point x="148" y="472"/>
      <point x="109" y="522"/>
      <point x="109" y="601" type="curve"/>
      <point x="70" y="601"/>
      <point x="84" y="601"/>
      <point x="45" y="601" type="curve"/>
      <point x="45" y="488"/>
      <point x="111" y="420"/>
      <point x="222" y="420" type="curve"/>
      <point x="332" y="420"/>
      <point x="398" y="487"/>
      <point x="398" y="600" type="curve"/>
      <point x="398" y="708"/>
      <point x="333" y="774"/>
      <point x="223" y="774" type="curve"/>
      <point x="111" y="774"/>
      <point x="45" y="709"/>
      <point x="45" y="601" type="curve"/>
      <point x="84" y="601"/>
      <point x="70" y="601"/>
    </contour>
  </outline>
</glyph>
<glyph name="guillemotright" format="1">
  <advance width="590"/>
  <unicode hex="00BB"/>
  <outline>
    <contour>
      <point x="315" y="445" type="curve"/>
      <point x="347" y="426"/>
      <point x="514" y="342"/>
      <point x="546" y="324" type="curve"/>
      <point x="546" y="246"/>
      <point x="546" y="319"/>
      <point x="546" y="241" type="curve"/>
      <point x="514" y="259"/>
      <point x="347" y="346"/>
      <point x="315" y="365" type="curve"/>
      <point x="315" y="442"/>
      <point x="315" y="367"/>
    </contour>
    <contour>
      <point x="315" y="201" type="curve"/>
      <point x="346" y="219"/>
      <point x="514" y="305"/>
      <point x="546" y="324" type="curve"/>
      <point x="546" y="246"/>
      <point x="546" y="319"/>
      <point x="546" y="241" type="curve"/>
      <point x="514" y="222"/>
      <point x="346" y="140"/>
      <point x="315" y="121" type="curve"/>
      <point x="315" y="199"/>
      <point x="315" y="124"/>
    </contour>
    <contour>
      <point x="72" y="445" type="curve"/>
      <point x="104" y="426"/>
      <point x="271" y="342"/>
      <point x="303" y="324" type="curve"/>
      <point x="303" y="246"/>
      <point x="303" y="319"/>
      <point x="303" y="241" type="curve"/>
      <point x="271" y="259"/>
      <point x="104" y="346"/>
      <point x="72" y="365" type="curve"/>
      <point x="72" y="442"/>
      <point x="72" y="367"/>
    </contour>
    <contour>
      <point x="72" y="201" type="curve"/>
      <point x="103" y="219"/>
      <point x="271" y="305"/>
      <point x="303" y="324" type="curve"/>
      <point x="303" y="246"/>
      <point x="303" y="319"/>
      <point x="303" y="241" type="curve"/>
      <point x="271" y="222"/>
      <point x="103" y="140"/>
      <point x="72" y="121" type="curve"/>
      <point x="72" y="199"/>
      <point x="72" y="124"/>
    </contour>
  </outline>
</glyph>
<glyph name="onequarter" format="1">
  <advance width="1010"/>
  <unicode hex="00BC"/>
  <outline>
    <contour>
      <point x="330" y="-61" type="line"/>
      <point x="775" y="729" type="line"/>
      <point x="689" y="729" type="line"/>
      <point x="244" y="-61" type="line"/>
    </contour>
    <contour>
      <point x="69" y="579" type="line"/>
      <point x="239" y="727" type="line"/>
      <point x="155" y="731" type="line"/>
      <point x="28" y="627" type="line"/>
    </contour>
    <contour>
      <point x="239" y="310" type="curve"/>
      <point x="239" y="731" type="line"/>
      <point x="155" y="731" type="line"/>
      <point x="155" y="310" type="line"/>
      <point x="216" y="310"/>
      <point x="183" y="310"/>
    </contour>
    <contour>
      <point x="976" y="121" type="line"/>
      <point x="583" y="121" type="line"/>
      <point x="583" y="58" type="line"/>
      <point x="976" y="58" type="line"/>
    </contour>
    <contour>
      <point x="609" y="64" type="line"/>
      <point x="867" y="364" type="line"/>
      <point x="800" y="377" type="line"/>
      <point x="583" y="121" type="line"/>
    </contour>
    <contour>
      <point x="885" y="-64" type="line"/>
      <point x="885" y="377" type="line"/>
      <point x="800" y="377" type="line"/>
      <point x="800" y="-64" type="line"/>
    </contour>
  </outline>
</glyph>
<glyph name="onehalf" format="1">
  <advance width="1072"/>
  <unicode hex="00BD"/>
  <outline>
    <contour>
      <point x="344" y="-61" type="line"/>
      <point x="788" y="729" type="line"/>
      <point x="702" y="729" type="line"/>
      <point x="257" y="-61" type="line"/>
    </contour>
    <contour>
      <point x="69" y="579" type="line"/>
      <point x="239" y="727" type="line"/>
      <point x="155" y="731" type="line"/>
      <point x="28" y="627" type="line"/>
    </contour>
    <contour>
      <point x="239" y="310" type="curve"/>
      <point x="239" y="731" type="line"/>
      <point x="155" y="731" type="line"/>
      <point x="155" y="310" type="line"/>
      <point x="216" y="310"/>
      <point x="183" y="310"/>
    </contour>
    <contour>
      <point x="662" y="-63" type="curve"/>
      <point x="800" y="-63"/>
      <point x="921" y="-63"/>
      <point x="1033" y="-63" type="curve"/>
      <point x="1033" y="-28"/>
      <point x="1033" y="-30"/>
      <point x="1033" y="2" type="curve"/>
      <point x="913" y="2"/>
      <point x="781" y="2"/>
      <point x="662" y="2" type="curve"/>
      <point x="662" y="-63"/>
      <point x="662" y="2"/>
    </contour>
    <contour>
      <point x="741" y="241" type="curve"/>
      <point x="768" y="279"/>
      <point x="796" y="303"/>
      <point x="843" y="303" type="curve"/>
      <point x="893" y="303"/>
      <point x="927" y="279"/>
      <point x="927" y="233" type="curve"/>
      <point x="927" y="189"/>
      <point x="895" y="169"/>
      <point x="861" y="140" type="curve"/>
      <point x="794" y="94"/>
      <point x="728" y="48"/>
      <point x="662" y="2" type="curve"/>
      <point x="667" y="-61"/>
      <point x="663" y="2"/>
      <point x="668" y="-61" type="curve"/>
      <point x="756" y="-6"/>
      <point x="839" y="40"/>
      <point x="908" y="90" type="curve"/>
      <point x="964" y="134"/>
      <point x="1010" y="167"/>
      <point x="1010" y="236" type="curve"/>
      <point x="1010" y="324"/>
      <point x="943" y="368"/>
      <point x="850" y="368" type="curve"/>
      <point x="773" y="368"/>
      <point x="717" y="341"/>
      <point x="682" y="274" type="curve"/>
      <point x="741" y="241"/>
      <point x="682" y="274"/>
    </contour>
  </outline>
</glyph>
<glyph name="threequarters" format="1">
  <advance width="1024"/>
  <unicode hex="00BE"/>
  <outline>
    <contour>
      <point x="354" y="-61" type="line"/>
      <point x="798" y="729" type="line"/>
      <point x="712" y="729" type="line"/>
      <point x="267" y="-61" type="line"/>
    </contour>
    <contour>
      <point x="87" y="628" type="curve"/>
      <point x="115" y="652"/>
      <point x="147" y="666"/>
      <point x="179" y="666" type="curve"/>
      <point x="228" y="666"/>
      <point x="264" y="650"/>
      <point x="264" y="606" type="curve"/>
      <point x="264" y="555"/>
      <point x="199" y="547"/>
      <point x="135" y="543" type="curve"/>
      <point x="135" y="489"/>
      <point x="135" y="543"/>
      <point x="135" y="489" type="curve"/>
      <point x="249" y="491"/>
      <point x="349" y="512"/>
      <point x="349" y="611" type="curve"/>
      <point x="349" y="697"/>
      <point x="280" y="729"/>
      <point x="188" y="729" type="curve"/>
      <point x="132" y="729"/>
      <point x="82" y="708"/>
      <point x="45" y="672" type="curve"/>
      <point x="87" y="628"/>
      <point x="45" y="672"/>
    </contour>
    <contour>
      <point x="41" y="331" type="curve"/>
      <point x="82" y="308"/>
      <point x="124" y="295"/>
      <point x="170" y="295" type="curve"/>
      <point x="282" y="292"/>
      <point x="367" y="324"/>
      <point x="365" y="423" type="curve"/>
      <point x="365" y="528"/>
      <point x="255" y="532"/>
      <point x="135" y="535" type="curve"/>
      <point x="135" y="487"/>
      <point x="135" y="535"/>
      <point x="135" y="487" type="curve"/>
      <point x="211" y="484"/>
      <point x="280" y="476"/>
      <point x="280" y="421" type="curve"/>
      <point x="280" y="372"/>
      <point x="236" y="355"/>
      <point x="179" y="357" type="curve"/>
      <point x="145" y="357"/>
      <point x="113" y="364"/>
      <point x="78" y="380" type="curve"/>
      <point x="41" y="331"/>
      <point x="78" y="380"/>
    </contour>
    <contour>
      <point x="994" y="121" type="line"/>
      <point x="601" y="121" type="line"/>
      <point x="601" y="58" type="line"/>
      <point x="994" y="58" type="line"/>
    </contour>
    <contour>
      <point x="627" y="64" type="line"/>
      <point x="884" y="364" type="line"/>
      <point x="818" y="377" type="line"/>
      <point x="601" y="121" type="line"/>
    </contour>
    <contour>
      <point x="903" y="-64" type="line"/>
      <point x="903" y="377" type="line"/>
      <point x="818" y="377" type="line"/>
      <point x="818" y="-64" type="line"/>
    </contour>
  </outline>
</glyph>
<glyph name="questiondown" format="1">
  <advance width="528"/>
  <unicode hex="00BF"/>
  <outline>
    <contour>
      <point x="334" y="355" type="curve"/>
      <point x="334" y="392"/>
      <point x="334" y="456"/>
      <point x="334" y="493" type="curve"/>
      <point x="245" y="493"/>
      <point x="334" y="493"/>
      <point x="245" y="493" type="curve"/>
      <point x="245" y="456"/>
      <point x="245" y="392"/>
      <point x="245" y="355" type="curve"/>
      <point x="334" y="355"/>
      <point x="245" y="355"/>
    </contour>
    <contour>
      <point x="433" y="119" type="line"/>
      <point x="398" y="83"/>
      <point x="349" y="55"/>
      <point x="287" y="55" type="curve"/>
      <point x="195" y="55"/>
      <point x="132" y="106"/>
      <point x="132" y="196" type="curve"/>
      <point x="132" y="298"/>
      <point x="211" y="355"/>
      <point x="324" y="355" type="curve"/>
      <point x="324" y="384"/>
      <point x="324" y="396"/>
      <point x="324" y="425" type="curve"/>
      <point x="160" y="425"/>
      <point x="44" y="343"/>
      <point x="44" y="196" type="curve"/>
      <point x="44" y="59"/>
      <point x="143" y="-19"/>
      <point x="282" y="-19" type="curve"/>
      <point x="367" y="-19"/>
      <point x="431" y="11"/>
      <point x="482" y="64" type="curve"/>
    </contour>
    <contour>
      <point x="236" y="689" type="curve"/>
      <point x="236" y="657"/>
      <point x="258" y="642"/>
      <point x="289" y="642" type="curve"/>
      <point x="320" y="642"/>
      <point x="341" y="659"/>
      <point x="341" y="689" type="curve"/>
      <point x="236" y="689"/>
      <point x="341" y="689"/>
      <point x="236" y="689" type="curve"/>
      <point x="236" y="721"/>
      <point x="258" y="735"/>
      <point x="289" y="735" type="curve"/>
      <point x="321" y="735"/>
      <point x="341" y="719"/>
      <point x="341" y="689" type="curve"/>
      <point x="236" y="689"/>
      <point x="341" y="689"/>
    </contour>
  </outline>
</glyph>
<glyph name="Acircumflex" format="1">
  <advance width="709"/>
  <unicode hex="00C2"/>
  <outline>
    <contour>
      <point x="528" y="293" type="curve"/>
      <point x="414" y="293"/>
      <point x="301" y="293"/>
      <point x="187" y="293" type="curve"/>
      <point x="149" y="218"/>
      <point x="187" y="293"/>
      <point x="149" y="218" type="curve"/>
      <point x="285" y="218"/>
      <point x="421" y="218"/>
      <point x="557" y="218" type="curve"/>
      <point x="528" y="293"/>
      <point x="557" y="218"/>
    </contour>
    <contour>
      <point x="693" y="0" type="curve"/>
      <point x="599" y="241"/>
      <point x="501" y="481"/>
      <point x="407" y="722" type="curve"/>
      <point x="323" y="722"/>
      <point x="407" y="722"/>
      <point x="323" y="722" type="curve"/>
      <point x="415" y="482"/>
      <point x="504" y="240"/>
      <point x="596" y="0" type="curve"/>
      <point x="693" y="0"/>
      <point x="596" y="0"/>
    </contour>
    <contour>
      <point x="100" y="0" type="curve"/>
      <point x="204" y="240"/>
      <point x="301" y="482"/>
      <point x="405" y="722" type="curve"/>
      <point x="321" y="722"/>
      <point x="405" y="722"/>
      <point x="321" y="722" type="curve"/>
      <point x="216" y="480"/>
      <point x="105" y="242"/>
      <point x="0" y="0" type="curve"/>
      <point x="100" y="0"/>
      <point x="0" y="0"/>
    </contour>
    <contour>
      <point x="255" y="801" type="line"/>
      <point x="406" y="967" type="line"/>
      <point x="286" y="967" type="line"/>
      <point x="163" y="801" type="line"/>
    </contour>
    <contour>
      <point x="562" y="801" type="line"/>
      <point x="438" y="967" type="line"/>
      <point x="318" y="967" type="line"/>
      <point x="469" y="801" type="line"/>
    </contour>
  </outline>
</glyph>
<glyph name="Atilde" format="1">
  <advance width="709"/>
  <unicode hex="00C3"/>
  <outline>
    <contour>
      <point x="528" y="293" type="curve"/>
      <point x="414" y="293"/>
      <point x="301" y="293"/>
      <point x="187" y="293" type="curve"/>
      <point x="149" y="218"/>
      <point x="187" y="293"/>
      <point x="149" y="218" type="curve"/>
      <point x="285" y="218"/>
      <point x="421" y="218"/>
      <point x="557" y="218" type="curve"/>
      <point x="528" y="293"/>
      <point x="557" y="218"/>
    </contour>
    <contour>
      <point x="693" y="0" type="curve"/>
      <point x="599" y="241"/>
      <point x="501" y="481"/>
      <point x="407" y="722" type="curve"/>
      <point x="323" y="722"/>
      <point x="407" y="722"/>
      <point x="323" y="722" type="curve"/>
      <point x="415" y="482"/>
      <point x="504" y="240"/>
      <point x="596" y="0" type="curve"/>
      <point x="693" y="0"/>
      <point x="596" y="0"/>
    </contour>
    <contour>
      <point x="100" y="0" type="curve"/>
      <point x="204" y="240"/>
      <point x="301" y="482"/>
      <point x="405" y="722" type="curve"/>
      <point x="321" y="722"/>
      <point x="405" y="722"/>
      <point x="321" y="722" type="curve"/>
      <point x="216" y="480"/>
      <point x="105" y="242"/>
      <point x="0" y="0" type="curve"/>
      <point x="100" y="0"/>
      <point x="0" y="0"/>
    </contour>
    <contour>
      <point x="518" y="957" type="curve"/>
      <point x="504" y="913"/>
      <point x="487" y="879"/>
      <point x="453" y="879" type="curve"/>
      <point x="418" y="879"/>
      <point x="398" y="892"/>
      <point x="372" y="916" type="curve"/>
      <point x="338" y="945"/>
      <point x="313" y="962"/>
      <point x="269" y="962" type="curve"/>
      <point x="196" y="962"/>
      <point x="159" y="908"/>
      <point x="136" y="834" type="curve"/>
      <point x="205" y="800"/>
      <point x="137" y="834"/>
      <point x="205" y="800" type="curve"/>
      <point x="222" y="850"/>
      <point x="241" y="880"/>
      <point x="279" y="880" type="curve"/>
      <point x="311" y="880"/>
      <point x="328" y="865"/>
      <point x="350" y="844" type="curve"/>
      <point x="387" y="812"/>
      <point x="414" y="796"/>
      <point x="462" y="796" type="curve"/>
      <point x="536" y="796"/>
      <point x="567" y="852"/>
      <point x="591" y="925" type="curve"/>
      <point x="518" y="957"/>
      <point x="591" y="925"/>
    </contour>
  </outline>
</glyph>
<glyph name="Adieresis" format="1">
  <advance width="709"/>
  <unicode hex="00C4"/>
  <outline>
    <contour>
      <point x="528" y="293" type="curve"/>
      <point x="414" y="293"/>
      <point x="301" y="293"/>
      <point x="187" y="293" type="curve"/>
      <point x="149" y="218"/>
      <point x="187" y="293"/>
      <point x="149" y="218" type="curve"/>
      <point x="285" y="218"/>
      <point x="421" y="218"/>
      <point x="557" y="218" type="curve"/>
      <point x="528" y="293"/>
      <point x="557" y="218"/>
    </contour>
    <contour>
      <point x="693" y="0" type="curve"/>
      <point x="599" y="241"/>
      <point x="501" y="481"/>
      <point x="407" y="722" type="curve"/>
      <point x="323" y="722"/>
      <point x="407" y="722"/>
      <point x="323" y="722" type="curve"/>
      <point x="415" y="482"/>
      <point x="504" y="240"/>
      <point x="596" y="0" type="curve"/>
      <point x="693" y="0"/>
      <point x="596" y="0"/>
    </contour>
    <contour>
      <point x="100" y="0" type="curve"/>
      <point x="204" y="240"/>
      <point x="301" y="482"/>
      <point x="405" y="722" type="curve"/>
      <point x="321" y="722"/>
      <point x="405" y="722"/>
      <point x="321" y="722" type="curve"/>
      <point x="216" y="480"/>
      <point x="105" y="242"/>
      <point x="0" y="0" type="curve"/>
      <point x="100" y="0"/>
      <point x="0" y="0"/>
    </contour>
    <contour>
      <point x="328" y="845" type="curve"/>
      <point x="328" y="877"/>
      <point x="305" y="893"/>
      <point x="273" y="893" type="curve"/>
      <point x="242" y="893"/>
      <point x="221" y="875"/>
      <point x="221" y="845" type="curve"/>
      <point x="322" y="845"/>
      <point x="227" y="845"/>
      <point x="328" y="845" type="curve"/>
      <point x="328" y="813"/>
      <point x="305" y="798"/>
      <point x="273" y="798" type="curve"/>
      <point x="241" y="798"/>
      <point x="221" y="814"/>
      <point x="221" y="845" type="curve"/>
      <point x="322" y="845"/>
      <point x="227" y="845"/>
    </contour>
    <contour>
      <point x="505" y="845" type="curve"/>
      <point x="505" y="877"/>
      <point x="482" y="893"/>
      <point x="450" y="893" type="curve"/>
      <point x="418" y="893"/>
      <point x="397" y="875"/>
      <point x="397" y="845" type="curve"/>
      <point x="499" y="845"/>
      <point x="403" y="845"/>
      <point x="505" y="845" type="curve"/>
      <point x="505" y="813"/>
      <point x="482" y="798"/>
      <point x="450" y="798" type="curve"/>
      <point x="418" y="798"/>
      <point x="397" y="814"/>
      <point x="397" y="845" type="curve"/>
      <point x="499" y="845"/>
      <point x="403" y="845"/>
    </contour>
  </outline>
</glyph>
<glyph name="Aring" format="1">
  <advance width="709"/>
  <unicode hex="00C5"/>
  <outline>
    <contour>
      <point x="528" y="293" type="curve"/>
      <point x="414" y="293"/>
      <point x="301" y="293"/>
      <point x="187" y="293" type="curve"/>
      <point x="149" y="218"/>
      <point x="187" y="293"/>
      <point x="149" y="218" type="curve"/>
      <point x="285" y="218"/>
      <point x="421" y="218"/>
      <point x="557" y="218" type="curve"/>
      <point x="528" y="293"/>
      <point x="557" y="218"/>
    </contour>
    <contour>
      <point x="693" y="0" type="curve"/>
      <point x="599" y="241"/>
      <point x="501" y="481"/>
      <point x="407" y="722" type="curve"/>
      <point x="323" y="722"/>
      <point x="407" y="722"/>
      <point x="323" y="722" type="curve"/>
      <point x="415" y="482"/>
      <point x="504" y="240"/>
      <point x="596" y="0" type="curve"/>
      <point x="693" y="0"/>
      <point x="596" y="0"/>
    </contour>
    <contour>
      <point x="100" y="0" type="curve"/>
      <point x="204" y="240"/>
      <point x="301" y="482"/>
      <point x="405" y="722" type="curve"/>
      <point x="321" y="722"/>
      <point x="405" y="722"/>
      <point x="321" y="722" type="curve"/>
      <point x="216" y="480"/>
      <point x="105" y="242"/>
      <point x="0" y="0" type="curve"/>
      <point x="100" y="0"/>
      <point x="0" y="0"/>
    </contour>
    <contour>
      <point x="213" y="933" type="curve"/>
      <point x="213" y="847"/>
      <point x="273" y="799"/>
      <point x="363" y="799" type="curve"/>
      <point x="454" y="799"/>
      <point x="516" y="845"/>
      <point x="516" y="933" type="curve"/>
      <point x="516" y="1020"/>
      <point x="453" y="1066"/>
      <point x="360" y="1066" type="curve"/>
      <point x="272" y="1066"/>
      <point x="213" y="1019"/>
      <point x="213" y="933" type="curve"/>
      <point x="292" y="933"/>
      <point x="210" y="933"/>
      <point x="289" y="933" type="curve"/>
      <point x="289" y="977"/>
      <point x="315" y="1004"/>
      <point x="360" y="1004" type="curve"/>
      <point x="408" y="1004"/>
      <point x="437" y="980"/>
      <point x="437" y="933" type="curve"/>
      <point x="437" y="887"/>
      <point x="409" y="861"/>
      <point x="363" y="861" type="curve"/>
      <point x="317" y="861"/>
      <point x="289" y="887"/>
      <point x="289" y="933" type="curve"/>
      <point x="210" y="933"/>
      <point x="292" y="933"/>
    </contour>
  </outline>
</glyph>
<glyph name="AE" format="1">
  <advance width="963"/>
  <unicode hex="00C6"/>
  <outline>
    <contour>
      <point x="459" y="273" type="curve"/>
      <point x="346" y="273"/>
      <point x="300" y="273"/>
      <point x="187" y="273" type="curve"/>
      <point x="149" y="198"/>
      <point x="187" y="273"/>
      <point x="149" y="198" type="curve"/>
      <point x="285" y="198"/>
      <point x="353" y="198"/>
      <point x="489" y="198" type="curve"/>
      <point x="459" y="273"/>
      <point x="489" y="198"/>
    </contour>
    <contour>
      <point x="93" y="0" type="curve"/>
      <point x="529" y="722" type="line"/>
      <point x="445" y="722"/>
      <point x="528" y="722"/>
      <point x="444" y="722" type="curve"/>
      <point x="-9" y="0" type="line"/>
      <point x="92" y="0"/>
      <point x="-8" y="0"/>
    </contour>
    <contour>
      <point x="496" y="338" type="curve"/>
      <point x="610" y="338"/>
      <point x="724" y="338"/>
      <point x="838" y="338" type="curve"/>
      <point x="838" y="409"/>
      <point x="838" y="338"/>
      <point x="838" y="409" type="curve"/>
      <point x="724" y="409"/>
      <point x="610" y="409"/>
      <point x="496" y="409" type="curve"/>
      <point x="496" y="338"/>
      <point x="496" y="409"/>
    </contour>
    <contour>
      <point x="480" y="651" type="curve"/>
      <point x="621" y="651"/>
      <point x="762" y="651"/>
      <point x="904" y="651" type="curve"/>
      <point x="904" y="722"/>
      <point x="904" y="651"/>
      <point x="904" y="722" type="curve"/>
      <point x="762" y="722"/>
      <point x="621" y="722"/>
      <point x="480" y="722" type="curve"/>
      <point x="480" y="651"/>
      <point x="480" y="722"/>
    </contour>
    <contour>
      <point x="537" y="0" type="curve"/>
      <point x="537" y="722" type="line"/>
      <point x="444" y="722"/>
      <point x="537" y="722"/>
      <point x="444" y="722" type="curve"/>
      <point x="444" y="481"/>
      <point x="444" y="241"/>
      <point x="444" y="0" type="curve"/>
      <point x="537" y="0"/>
      <point x="444" y="0"/>
    </contour>
    <contour>
      <point x="480" y="0" type="curve"/>
      <point x="633" y="0"/>
      <point x="786" y="0"/>
      <point x="939" y="0" type="curve"/>
      <point x="939" y="71"/>
      <point x="939" y="0"/>
      <point x="939" y="71" type="curve"/>
      <point x="786" y="71"/>
      <point x="633" y="71"/>
      <point x="480" y="71" type="curve"/>
      <point x="480" y="0"/>
      <point x="480" y="71"/>
    </contour>
  </outline>
</glyph>
<glyph name="Ccedilla" format="1">
  <advance width="708"/>
  <unicode hex="00C7"/>
  <outline>
    <contour>
      <point x="676" y="654" type="curve"/>
      <point x="600" y="696"/>
      <point x="517" y="727"/>
      <point x="422" y="727" type="curve"/>
      <point x="187" y="727"/>
      <point x="53" y="584"/>
      <point x="53" y="344" type="curve"/>
      <point x="53" y="124"/>
      <point x="179" y="-5"/>
      <point x="399" y="-5" type="curve"/>
      <point x="522" y="-5"/>
      <point x="601" y="27"/>
      <point x="688" y="94" type="curve"/>
      <point x="644" y="152"/>
      <point x="688" y="94"/>
      <point x="643" y="152" type="curve"/>
      <point x="564" y="96"/>
      <point x="499" y="70"/>
      <point x="403" y="70" type="curve"/>
      <point x="234" y="70"/>
      <point x="145" y="176"/>
      <point x="145" y="348" type="curve"/>
      <point x="145" y="534"/>
      <point x="239" y="653"/>
      <point x="418" y="653" type="curve"/>
      <point x="495" y="653"/>
      <point x="565" y="633"/>
      <point x="633" y="596" type="curve"/>
      <point x="676" y="654"/>
      <point x="633" y="596"/>
    </contour>
    <contour>
      <point x="360" y="51" type="curve"/>
      <point x="345" y="27"/>
      <point x="304" y="-39"/>
      <point x="290" y="-63" type="curve"/>
      <point x="353" y="-120"/>
      <point x="290" y="-63"/>
      <point x="353" y="-120" type="curve"/>
      <point x="369" y="-93"/>
      <point x="414" y="-25"/>
      <point x="431" y="2" type="curve"/>
      <point x="360" y="51"/>
      <point x="431" y="2"/>
    </contour>
    <contour>
      <point x="353" y="-120" type="curve"/>
      <point x="363" y="-114"/>
      <point x="371" y="-111"/>
      <point x="383" y="-111" type="curve"/>
      <point x="403" y="-111"/>
      <point x="416" y="-122"/>
      <point x="416" y="-143" type="curve"/>
      <point x="416" y="-167"/>
      <point x="396" y="-177"/>
      <point x="369" y="-177" type="curve"/>
      <point x="344" y="-177"/>
      <point x="324" y="-172"/>
      <point x="297" y="-159" type="curve"/>
      <point x="267" y="-213"/>
      <point x="297" y="-159"/>
      <point x="267" y="-213" type="curve"/>
      <point x="300" y="-229"/>
      <point x="328" y="-237"/>
      <point x="365" y="-237" type="curve"/>
      <point x="437" y="-237"/>
      <point x="491" y="-209"/>
      <point x="491" y="-141" type="curve"/>
      <point x="491" y="-78"/>
      <point x="447" y="-43"/>
      <point x="383" y="-43" type="curve"/>
      <point x="348" y="-43"/>
      <point x="323" y="-49"/>
      <point x="290" y="-64" type="curve"/>
      <point x="353" y="-120"/>
      <point x="290" y="-64"/>
    </contour>
  </outline>
</glyph>
<glyph name="Egrave" format="1">
  <advance width="617"/>
  <unicode hex="00C8"/>
  <outline>
    <contour>
      <point x="150" y="338" type="curve"/>
      <point x="264" y="338"/>
      <point x="378" y="338"/>
      <point x="492" y="338" type="curve"/>
      <point x="492" y="409"/>
      <point x="492" y="338"/>
      <point x="492" y="409" type="curve"/>
      <point x="378" y="409"/>
      <point x="264" y="409"/>
      <point x="150" y="409" type="curve"/>
      <point x="150" y="338"/>
      <point x="150" y="409"/>
    </contour>
    <contour>
      <point x="134" y="651" type="curve"/>
      <point x="276" y="651"/>
      <point x="417" y="651"/>
      <point x="558" y="651" type="curve"/>
      <point x="558" y="722"/>
      <point x="558" y="651"/>
      <point x="558" y="722" type="curve"/>
      <point x="417" y="722"/>
      <point x="276" y="722"/>
      <point x="134" y="722" type="curve"/>
      <point x="134" y="651"/>
      <point x="134" y="722"/>
    </contour>
    <contour>
      <point x="191" y="0" type="curve"/>
      <point x="191" y="722" type="line"/>
      <point x="98" y="722"/>
      <point x="191" y="722"/>
      <point x="98" y="722" type="curve"/>
      <point x="98" y="481"/>
      <point x="98" y="241"/>
      <point x="98" y="0" type="curve"/>
      <point x="191" y="0"/>
      <point x="98" y="0"/>
    </contour>
    <contour>
      <point x="134" y="0" type="curve"/>
      <point x="287" y="0"/>
      <point x="440" y="0"/>
      <point x="593" y="0" type="curve"/>
      <point x="593" y="71"/>
      <point x="593" y="0"/>
      <point x="593" y="71" type="curve"/>
      <point x="440" y="71"/>
      <point x="287" y="71"/>
      <point x="134" y="71" type="curve"/>
      <point x="134" y="0"/>
      <point x="134" y="71"/>
    </contour>
    <contour>
      <point x="354" y="801" type="line"/>
      <point x="230" y="967" type="line"/>
      <point x="110" y="967" type="line"/>
      <point x="261" y="801" type="line"/>
    </contour>
  </outline>
</glyph>
<glyph name="Eacute" format="1">
  <advance width="612"/>
  <unicode hex="00C9"/>
  <outline>
    <contour>
      <point x="146" y="338" type="curve"/>
      <point x="259" y="338"/>
      <point x="374" y="338"/>
      <point x="488" y="338" type="curve"/>
      <point x="488" y="409"/>
      <point x="488" y="338"/>
      <point x="488" y="409" type="curve"/>
      <point x="374" y="409"/>
      <point x="259" y="409"/>
      <point x="146" y="409" type="curve"/>
      <point x="146" y="338"/>
      <point x="146" y="409"/>
    </contour>
    <contour>
      <point x="130" y="651" type="curve"/>
      <point x="271" y="651"/>
      <point x="412" y="651"/>
      <point x="553" y="651" type="curve"/>
      <point x="553" y="722"/>
      <point x="553" y="651"/>
      <point x="553" y="722" type="curve"/>
      <point x="412" y="722"/>
      <point x="271" y="722"/>
      <point x="130" y="722" type="curve"/>
      <point x="130" y="651"/>
      <point x="130" y="722"/>
    </contour>
    <contour>
      <point x="186" y="0" type="curve"/>
      <point x="186" y="722" type="line"/>
      <point x="94" y="722"/>
      <point x="186" y="722"/>
      <point x="94" y="722" type="curve"/>
      <point x="94" y="481"/>
      <point x="94" y="241"/>
      <point x="94" y="0" type="curve"/>
      <point x="186" y="0"/>
      <point x="94" y="0"/>
    </contour>
    <contour>
      <point x="130" y="0" type="curve"/>
      <point x="283" y="0"/>
      <point x="435" y="0"/>
      <point x="589" y="0" type="curve"/>
      <point x="589" y="71"/>
      <point x="589" y="0"/>
      <point x="589" y="71" type="curve"/>
      <point x="435" y="71"/>
      <point x="283" y="71"/>
      <point x="130" y="71" type="curve"/>
      <point x="130" y="0"/>
      <point x="130" y="71"/>
    </contour>
    <contour>
      <point x="338" y="801" type="line"/>
      <point x="489" y="967" type="line"/>
      <point x="370" y="967" type="line"/>
      <point x="247" y="801" type="line"/>
    </contour>
  </outline>
</glyph>
<glyph name="Ecircumflex" format="1">
  <advance width="594"/>
  <unicode hex="00CA"/>
  <outline>
    <contour>
      <point x="135" y="338" type="curve"/>
      <point x="248" y="338"/>
      <point x="363" y="338"/>
      <point x="477" y="338" type="curve"/>
      <point x="477" y="409"/>
      <point x="477" y="338"/>
      <point x="477" y="409" type="curve"/>
      <point x="363" y="409"/>
      <point x="248" y="409"/>
      <point x="135" y="409" type="curve"/>
      <point x="135" y="338"/>
      <point x="135" y="409"/>
    </contour>
    <contour>
      <point x="119" y="651" type="curve"/>
      <point x="260" y="651"/>
      <point x="401" y="651"/>
      <point x="542" y="651" type="curve"/>
      <point x="542" y="722"/>
      <point x="542" y="651"/>
      <point x="542" y="722" type="curve"/>
      <point x="401" y="722"/>
      <point x="260" y="722"/>
      <point x="119" y="722" type="curve"/>
      <point x="119" y="651"/>
      <point x="119" y="722"/>
    </contour>
    <contour>
      <point x="175" y="0" type="curve"/>
      <point x="175" y="722" type="line"/>
      <point x="83" y="722"/>
      <point x="175" y="722"/>
      <point x="83" y="722" type="curve"/>
      <point x="83" y="481"/>
      <point x="83" y="241"/>
      <point x="83" y="0" type="curve"/>
      <point x="175" y="0"/>
      <point x="83" y="0"/>
    </contour>
    <contour>
      <point x="119" y="0" type="curve"/>
      <point x="272" y="0"/>
      <point x="424" y="0"/>
      <point x="577" y="0" type="curve"/>
      <point x="577" y="71"/>
      <point x="577" y="0"/>
      <point x="577" y="71" type="curve"/>
      <point x="424" y="71"/>
      <point x="272" y="71"/>
      <point x="119" y="71" type="curve"/>
      <point x="119" y="0"/>
      <point x="119" y="71"/>
    </contour>
    <contour>
      <point x="179" y="801" type="line"/>
      <point x="330" y="967" type="line"/>
      <point x="211" y="967" type="line"/>
      <point x="88" y="801" type="line"/>
    </contour>
    <contour>
      <point x="486" y="801" type="line"/>
      <point x="362" y="967" type="line"/>
      <point x="243" y="967" type="line"/>
      <point x="394" y="801" type="line"/>
    </contour>
  </outline>
</glyph>
<glyph name="Edieresis" format="1">
  <advance width="611"/>
  <unicode hex="00CB"/>
  <outline>
    <contour>
      <point x="144" y="338" type="curve"/>
      <point x="258" y="338"/>
      <point x="372" y="338"/>
      <point x="487" y="338" type="curve"/>
      <point x="487" y="409"/>
      <point x="487" y="338"/>
      <point x="487" y="409" type="curve"/>
      <point x="372" y="409"/>
      <point x="258" y="409"/>
      <point x="144" y="409" type="curve"/>
      <point x="144" y="338"/>
      <point x="144" y="409"/>
    </contour>
    <contour>
      <point x="128" y="651" type="curve"/>
      <point x="270" y="651"/>
      <point x="411" y="651"/>
      <point x="552" y="651" type="curve"/>
      <point x="552" y="722"/>
      <point x="552" y="651"/>
      <point x="552" y="722" type="curve"/>
      <point x="411" y="722"/>
      <point x="270" y="722"/>
      <point x="128" y="722" type="curve"/>
      <point x="128" y="651"/>
      <point x="128" y="722"/>
    </contour>
    <contour>
      <point x="185" y="0" type="curve"/>
      <point x="185" y="722" type="line"/>
      <point x="93" y="722"/>
      <point x="185" y="722"/>
      <point x="93" y="722" type="curve"/>
      <point x="93" y="481"/>
      <point x="93" y="241"/>
      <point x="93" y="0" type="curve"/>
      <point x="185" y="0"/>
      <point x="93" y="0"/>
    </contour>
    <contour>
      <point x="128" y="0" type="curve"/>
      <point x="282" y="0"/>
      <point x="434" y="0"/>
      <point x="587" y="0" type="curve"/>
      <point x="587" y="71"/>
      <point x="587" y="0"/>
      <point x="587" y="71" type="curve"/>
      <point x="434" y="71"/>
      <point x="282" y="71"/>
      <point x="128" y="71" type="curve"/>
      <point x="128" y="0"/>
      <point x="128" y="71"/>
    </contour>
    <contour>
      <point x="263" y="845" type="curve"/>
      <point x="263" y="877"/>
      <point x="239" y="893"/>
      <point x="208" y="893" type="curve"/>
      <point x="176" y="893"/>
      <point x="155" y="875"/>
      <point x="155" y="845" type="curve"/>
      <point x="257" y="845"/>
      <point x="161" y="845"/>
      <point x="263" y="845" type="curve"/>
      <point x="263" y="813"/>
      <point x="240" y="798"/>
      <point x="207" y="798" type="curve"/>
      <point x="176" y="798"/>
      <point x="155" y="814"/>
      <point x="155" y="845" type="curve"/>
      <point x="257" y="845"/>
      <point x="161" y="845"/>
    </contour>
    <contour>
      <point x="439" y="845" type="curve"/>
      <point x="439" y="877"/>
      <point x="416" y="893"/>
      <point x="384" y="893" type="curve"/>
      <point x="353" y="893"/>
      <point x="332" y="875"/>
      <point x="332" y="845" type="curve"/>
      <point x="433" y="845"/>
      <point x="338" y="845"/>
      <point x="439" y="845" type="curve"/>
      <point x="439" y="813"/>
      <point x="416" y="798"/>
      <point x="384" y="798" type="curve"/>
      <point x="352" y="798"/>
      <point x="332" y="814"/>
      <point x="332" y="845" type="curve"/>
      <point x="433" y="845"/>
      <point x="338" y="845"/>
    </contour>
  </outline>
</glyph>
<glyph name="Igrave" format="1">
  <advance width="297"/>
  <unicode hex="00CC"/>
  <outline>
    <contour>
      <point x="198" y="0" type="curve"/>
      <point x="198" y="241"/>
      <point x="198" y="481"/>
      <point x="198" y="722" type="curve"/>
      <point x="105" y="722"/>
      <point x="198" y="722"/>
      <point x="105" y="722" type="curve"/>
      <point x="105" y="481"/>
      <point x="105" y="241"/>
      <point x="105" y="0" type="curve"/>
      <point x="198" y="0"/>
      <point x="105" y="0"/>
    </contour>
    <contour>
      <point x="204" y="801" type="line"/>
      <point x="80" y="967" type="line"/>
      <point x="-40" y="967" type="line"/>
      <point x="111" y="801" type="line"/>
    </contour>
  </outline>
</glyph>
<glyph name="Iacute" format="1">
  <advance width="295"/>
  <unicode hex="00CD"/>
  <outline>
    <contour>
      <point x="191" y="0" type="curve"/>
      <point x="191" y="241"/>
      <point x="191" y="481"/>
      <point x="191" y="722" type="curve"/>
      <point x="98" y="722"/>
      <point x="191" y="722"/>
      <point x="98" y="722" type="curve"/>
      <point x="98" y="481"/>
      <point x="98" y="241"/>
      <point x="98" y="0" type="curve"/>
      <point x="191" y="0"/>
      <point x="98" y="0"/>
    </contour>
    <contour>
      <point x="186" y="801" type="line"/>
      <point x="336" y="967" type="line"/>
      <point x="217" y="967" type="line"/>
      <point x="94" y="801" type="line"/>
    </contour>
  </outline>
</glyph>
<glyph name="Icircumflex" format="1">
  <advance width="310"/>
  <unicode hex="00CE"/>
  <outline>
    <contour>
      <point x="206" y="0" type="curve"/>
      <point x="206" y="241"/>
      <point x="206" y="481"/>
      <point x="206" y="722" type="curve"/>
      <point x="113" y="722"/>
      <point x="206" y="722"/>
      <point x="113" y="722" type="curve"/>
      <point x="113" y="481"/>
      <point x="113" y="241"/>
      <point x="113" y="0" type="curve"/>
      <point x="206" y="0"/>
      <point x="113" y="0"/>
    </contour>
    <contour>
      <point x="53" y="801" type="line"/>
      <point x="204" y="967" type="line"/>
      <point x="84" y="967" type="line"/>
      <point x="-39" y="801" type="line"/>
    </contour>
    <contour>
      <point x="360" y="801" type="line"/>
      <point x="236" y="967" type="line"/>
      <point x="116" y="967" type="line"/>
      <point x="267" y="801" type="line"/>
    </contour>
  </outline>
</glyph>
<glyph name="Idieresis" format="1">
  <advance width="283"/>
  <unicode hex="00CF"/>
  <outline>
    <contour>
      <point x="190" y="0" type="curve"/>
      <point x="190" y="241"/>
      <point x="190" y="481"/>
      <point x="190" y="722" type="curve"/>
      <point x="97" y="722"/>
      <point x="190" y="722"/>
      <point x="97" y="722" type="curve"/>
      <point x="97" y="481"/>
      <point x="97" y="241"/>
      <point x="97" y="0" type="curve"/>
      <point x="190" y="0"/>
      <point x="97" y="0"/>
    </contour>
    <contour>
      <point x="110" y="845" type="curve"/>
      <point x="110" y="877"/>
      <point x="87" y="893"/>
      <point x="56" y="893" type="curve"/>
      <point x="24" y="893"/>
      <point x="3" y="875"/>
      <point x="3" y="845" type="curve"/>
      <point x="104" y="845"/>
      <point x="9" y="845"/>
      <point x="110" y="845" type="curve"/>
      <point x="110" y="813"/>
      <point x="88" y="798"/>
      <point x="55" y="798" type="curve"/>
      <point x="23" y="798"/>
      <point x="3" y="814"/>
      <point x="3" y="845" type="curve"/>
      <point x="104" y="845"/>
      <point x="9" y="845"/>
    </contour>
    <contour>
      <point x="287" y="845" type="curve"/>
      <point x="287" y="877"/>
      <point x="264" y="893"/>
      <point x="232" y="893" type="curve"/>
      <point x="201" y="893"/>
      <point x="180" y="875"/>
      <point x="180" y="845" type="curve"/>
      <point x="281" y="845"/>
      <point x="186" y="845"/>
      <point x="287" y="845" type="curve"/>
      <point x="287" y="813"/>
      <point x="264" y="798"/>
      <point x="232" y="798" type="curve"/>
      <point x="200" y="798"/>
      <point x="180" y="814"/>
      <point x="180" y="845" type="curve"/>
      <point x="281" y="845"/>
      <point x="186" y="845"/>
    </contour>
  </outline>
</glyph>
<glyph name="Eth" format="1">
  <advance width="776"/>
  <unicode hex="00D0"/>
  <outline>
    <contour>
      <point x="104" y="722" type="curve"/>
      <point x="104" y="481"/>
      <point x="104" y="241"/>
      <point x="104" y="0" type="curve"/>
      <point x="196" y="0"/>
      <point x="104" y="0"/>
      <point x="196" y="0" type="curve"/>
      <point x="196" y="241"/>
      <point x="196" y="481"/>
      <point x="196" y="722" type="curve"/>
      <point x="104" y="722"/>
      <point x="196" y="722"/>
    </contour>
    <contour>
      <point x="152" y="0" type="curve"/>
      <point x="220" y="0"/>
      <point x="284" y="0"/>
      <point x="353" y="0" type="curve"/>
      <point x="591" y="0"/>
      <point x="722" y="119"/>
      <point x="722" y="353" type="curve"/>
      <point x="722" y="596"/>
      <point x="589" y="722"/>
      <point x="344" y="722" type="curve"/>
      <point x="279" y="722"/>
      <point x="217" y="722"/>
      <point x="152" y="722" type="curve"/>
      <point x="152" y="654"/>
      <point x="152" y="719"/>
      <point x="152" y="651" type="curve"/>
      <point x="215" y="651"/>
      <point x="276" y="651"/>
      <point x="339" y="651" type="curve"/>
      <point x="533" y="651"/>
      <point x="631" y="545"/>
      <point x="631" y="351" type="curve"/>
      <point x="631" y="171"/>
      <point x="540" y="71"/>
      <point x="360" y="71" type="curve"/>
      <point x="290" y="71"/>
      <point x="223" y="71"/>
      <point x="152" y="71" type="curve"/>
      <point x="152" y="3"/>
      <point x="152" y="68"/>
    </contour>
    <contour>
      <point x="35" y="332" type="curve"/>
      <point x="149" y="332"/>
      <point x="264" y="332"/>
      <point x="378" y="332" type="curve"/>
      <point x="378" y="410"/>
      <point x="378" y="332"/>
      <point x="378" y="410" type="curve"/>
      <point x="264" y="410"/>
      <point x="149" y="410"/>
      <point x="35" y="410" type="curve"/>
      <point x="35" y="332"/>
      <point x="35" y="410"/>
    </contour>
  </outline>
</glyph>
<glyph name="Ntilde" format="1">
  <advance width="851"/>
  <unicode hex="00D1"/>
  <outline>
    <contour>
      <point x="756" y="0" type="curve"/>
      <point x="570" y="240"/>
      <point x="386" y="482"/>
      <point x="201" y="722" type="curve"/>
      <point x="95" y="722"/>
      <point x="200" y="722"/>
      <point x="94" y="722" type="curve"/>
      <point x="279" y="482"/>
      <point x="464" y="240"/>
      <point x="649" y="0" type="curve"/>
      <point x="755" y="0"/>
      <point x="650" y="0"/>
    </contour>
    <contour>
      <point x="665" y="722" type="curve"/>
      <point x="665" y="481"/>
      <point x="665" y="241"/>
      <point x="665" y="0" type="curve"/>
      <point x="757" y="0"/>
      <point x="665" y="0"/>
      <point x="757" y="0" type="curve"/>
      <point x="757" y="241"/>
      <point x="757" y="481"/>
      <point x="757" y="722" type="curve"/>
      <point x="665" y="722"/>
      <point x="757" y="722"/>
    </contour>
    <contour>
      <point x="187" y="0" type="curve"/>
      <point x="187" y="241"/>
      <point x="187" y="481"/>
      <point x="187" y="722" type="curve"/>
      <point x="94" y="722"/>
      <point x="187" y="722"/>
      <point x="94" y="722" type="curve"/>
      <point x="94" y="481"/>
      <point x="94" y="241"/>
      <point x="94" y="0" type="curve"/>
      <point x="187" y="0"/>
      <point x="94" y="0"/>
    </contour>
    <contour>
      <point x="585" y="957" type="curve"/>
      <point x="571" y="913"/>
      <point x="555" y="879"/>
      <point x="521" y="879" type="curve"/>
      <point x="485" y="879"/>
      <point x="465" y="892"/>
      <point x="439" y="916" type="curve"/>
      <point x="406" y="945"/>
      <point x="381" y="962"/>
      <point x="337" y="962" type="curve"/>
      <point x="264" y="962"/>
      <point x="227" y="908"/>
      <point x="204" y="834" type="curve"/>
      <point x="273" y="800"/>
      <point x="204" y="834"/>
      <point x="273" y="800" type="curve"/>
      <point x="289" y="850"/>
      <point x="308" y="880"/>
      <point x="346" y="880" type="curve"/>
      <point x="378" y="880"/>
      <point x="395" y="865"/>
      <point x="418" y="844" type="curve"/>
      <point x="455" y="812"/>
      <point x="482" y="796"/>
      <point x="529" y="796" type="curve"/>
      <point x="603" y="796"/>
      <point x="634" y="852"/>
      <point x="658" y="925" type="curve"/>
      <point x="586" y="957"/>
      <point x="658" y="925"/>
    </contour>
  </outline>
</glyph>
<glyph name="Ocircumflex" format="1">
  <advance width="795"/>
  <unicode hex="00D4"/>
  <outline>
    <contour>
      <point x="145" y="360" type="curve" name="FullCurve"/>
      <point x="145" y="532"/>
      <point x="227" y="653"/>
      <point x="394" y="653" type="curve" name="FullCurve"/>
      <point x="562" y="653"/>
      <point x="650" y="536"/>
      <point x="650" y="363" type="curve" name="FullCurve"/>
      <point x="650" y="191"/>
      <point x="568" y="70"/>
      <point x="400" y="70" type="curve" name="FullCurve"/>
      <point x="231" y="70"/>
      <point x="145" y="187"/>
      <point x="145" y="360" type="curve" name="FullCurve"/>
      <point x="53" y="360"/>
      <point x="145" y="360"/>
      <point x="53" y="360" type="curve" name="FullCurve"/>
      <point x="53" y="138"/>
      <point x="178" y="-5"/>
      <point x="396" y="-5" type="curve" name="FullCurve"/>
      <point x="616" y="-5"/>
      <point x="742" y="140"/>
      <point x="742" y="363" type="curve" name="FullCurve"/>
      <point x="742" y="583"/>
      <point x="618" y="727"/>
      <point x="400" y="727" type="curve" name="FullCurve"/>
      <point x="179" y="727"/>
      <point x="53" y="582"/>
      <point x="53" y="360" type="curve" name="FullCurve"/>
      <point x="145" y="360"/>
      <point x="53" y="360"/>
    </contour>
    <contour>
      <point x="291" y="801" type="line"/>
      <point x="442" y="967" type="line"/>
      <point x="323" y="967" type="line"/>
      <point x="200" y="801" type="line"/>
    </contour>
    <contour>
      <point x="598" y="801" type="line"/>
      <point x="474" y="967" type="line"/>
      <point x="355" y="967" type="line"/>
      <point x="506" y="801" type="line"/>
    </contour>
  </outline>
</glyph>
<glyph name="Otilde" format="1">
  <advance width="795"/>
  <unicode hex="00D5"/>
  <outline>
    <contour>
      <point x="145" y="360" type="curve" name="FullCurve"/>
      <point x="145" y="532"/>
      <point x="227" y="653"/>
      <point x="394" y="653" type="curve" name="FullCurve"/>
      <point x="562" y="653"/>
      <point x="650" y="536"/>
      <point x="650" y="363" type="curve" name="FullCurve"/>
      <point x="650" y="191"/>
      <point x="568" y="70"/>
      <point x="400" y="70" type="curve" name="FullCurve"/>
      <point x="231" y="70"/>
      <point x="145" y="187"/>
      <point x="145" y="360" type="curve" name="FullCurve"/>
      <point x="53" y="360"/>
      <point x="145" y="360"/>
      <point x="53" y="360" type="curve" name="FullCurve"/>
      <point x="53" y="138"/>
      <point x="178" y="-5"/>
      <point x="396" y="-5" type="curve" name="FullCurve"/>
      <point x="616" y="-5"/>
      <point x="742" y="140"/>
      <point x="742" y="363" type="curve" name="FullCurve"/>
      <point x="742" y="583"/>
      <point x="618" y="727"/>
      <point x="400" y="727" type="curve" name="FullCurve"/>
      <point x="179" y="727"/>
      <point x="53" y="582"/>
      <point x="53" y="360" type="curve" name="FullCurve"/>
      <point x="145" y="360"/>
      <point x="53" y="360"/>
    </contour>
    <contour>
      <point x="554" y="957" type="curve"/>
      <point x="540" y="913"/>
      <point x="524" y="879"/>
      <point x="490" y="879" type="curve"/>
      <point x="454" y="879"/>
      <point x="434" y="892"/>
      <point x="409" y="916" type="curve"/>
      <point x="375" y="945"/>
      <point x="350" y="962"/>
      <point x="306" y="962" type="curve"/>
      <point x="233" y="962"/>
      <point x="196" y="908"/>
      <point x="173" y="834" type="curve"/>
      <point x="242" y="800"/>
      <point x="173" y="834"/>
      <point x="242" y="800" type="curve"/>
      <point x="258" y="850"/>
      <point x="277" y="880"/>
      <point x="315" y="880" type="curve"/>
      <point x="347" y="880"/>
      <point x="364" y="865"/>
      <point x="387" y="844" type="curve"/>
      <point x="424" y="812"/>
      <point x="451" y="796"/>
      <point x="498" y="796" type="curve"/>
      <point x="572" y="796"/>
      <point x="603" y="852"/>
      <point x="628" y="925" type="curve"/>
      <point x="555" y="957"/>
      <point x="627" y="925"/>
    </contour>
  </outline>
</glyph>
<glyph name="Odieresis" format="1">
  <advance width="795"/>
  <unicode hex="00D6"/>
  <outline>
    <contour>
      <point x="145" y="360" type="curve" name="FullCurve"/>
      <point x="145" y="532"/>
      <point x="227" y="653"/>
      <point x="394" y="653" type="curve" name="FullCurve"/>
      <point x="562" y="653"/>
      <point x="650" y="536"/>
      <point x="650" y="363" type="curve" name="FullCurve"/>
      <point x="650" y="191"/>
      <point x="568" y="70"/>
      <point x="400" y="70" type="curve" name="FullCurve"/>
      <point x="231" y="70"/>
      <point x="145" y="187"/>
      <point x="145" y="360" type="curve" name="FullCurve"/>
      <point x="53" y="360"/>
      <point x="145" y="360"/>
      <point x="53" y="360" type="curve" name="FullCurve"/>
      <point x="53" y="138"/>
      <point x="178" y="-5"/>
      <point x="396" y="-5" type="curve" name="FullCurve"/>
      <point x="616" y="-5"/>
      <point x="742" y="140"/>
      <point x="742" y="363" type="curve" name="FullCurve"/>
      <point x="742" y="583"/>
      <point x="618" y="727"/>
      <point x="400" y="727" type="curve" name="FullCurve"/>
      <point x="179" y="727"/>
      <point x="53" y="582"/>
      <point x="53" y="360" type="curve" name="FullCurve"/>
      <point x="145" y="360"/>
      <point x="53" y="360"/>
    </contour>
    <contour>
      <point x="365" y="845" type="curve"/>
      <point x="365" y="877"/>
      <point x="342" y="893"/>
      <point x="310" y="893" type="curve"/>
      <point x="278" y="893"/>
      <point x="257" y="875"/>
      <point x="257" y="845" type="curve"/>
      <point x="359" y="845"/>
      <point x="263" y="845"/>
      <point x="365" y="845" type="curve"/>
      <point x="365" y="813"/>
      <point x="342" y="798"/>
      <point x="310" y="798" type="curve"/>
      <point x="278" y="798"/>
      <point x="257" y="814"/>
      <point x="257" y="845" type="curve"/>
      <point x="359" y="845"/>
      <point x="263" y="845"/>
    </contour>
    <contour>
      <point x="541" y="845" type="curve"/>
      <point x="541" y="877"/>
      <point x="518" y="893"/>
      <point x="487" y="893" type="curve"/>
      <point x="455" y="893"/>
      <point x="434" y="875"/>
      <point x="434" y="845" type="curve"/>
      <point x="535" y="845"/>
      <point x="440" y="845"/>
      <point x="541" y="845" type="curve"/>
      <point x="541" y="813"/>
      <point x="519" y="798"/>
      <point x="486" y="798" type="curve"/>
      <point x="455" y="798"/>
      <point x="434" y="814"/>
      <point x="434" y="845" type="curve"/>
      <point x="535" y="845"/>
      <point x="440" y="845"/>
    </contour>
  </outline>
</glyph>
<glyph name="multiply" format="1">
  <advance width="570"/>
  <unicode hex="00D7"/>
  <outline>
    <contour>
      <point x="107" y="76" type="line"/>
      <point x="516" y="490" type="line"/>
      <point x="462" y="544" type="line"/>
      <point x="53" y="130" type="line"/>
    </contour>
    <contour>
      <point x="517" y="129" type="line"/>
      <point x="107" y="544" type="line"/>
      <point x="53" y="490" type="line"/>
      <point x="463" y="75" type="line"/>
    </contour>
  </outline>
</glyph>
<glyph name="Oslash" format="1">
  <advance width="795"/>
  <unicode hex="00D8"/>
  <outline>
    <contour>
      <point x="197" y="-68" type="line"/>
      <point x="659" y="749" type="line"/>
      <point x="597" y="780" type="line"/>
      <point x="139" y="-33" type="line"/>
    </contour>
    <contour>
      <point x="145" y="360" type="curve" name="FullCurve"/>
      <point x="145" y="532"/>
      <point x="227" y="653"/>
      <point x="394" y="653" type="curve" name="FullCurve"/>
      <point x="562" y="653"/>
      <point x="650" y="536"/>
      <point x="650" y="363" type="curve" name="FullCurve"/>
      <point x="650" y="191"/>
      <point x="568" y="70"/>
      <point x="400" y="70" type="curve" name="FullCurve"/>
      <point x="231" y="70"/>
      <point x="145" y="187"/>
      <point x="145" y="360" type="curve" name="FullCurve"/>
      <point x="53" y="360"/>
      <point x="145" y="360"/>
      <point x="53" y="360" type="curve" name="FullCurve"/>
      <point x="53" y="138"/>
      <point x="178" y="-5"/>
      <point x="396" y="-5" type="curve" name="FullCurve"/>
      <point x="616" y="-5"/>
      <point x="742" y="140"/>
      <point x="742" y="363" type="curve" name="FullCurve"/>
      <point x="742" y="583"/>
      <point x="618" y="727"/>
      <point x="400" y="727" type="curve" name="FullCurve"/>
      <point x="179" y="727"/>
      <point x="53" y="582"/>
      <point x="53" y="360" type="curve" name="FullCurve"/>
      <point x="145" y="360"/>
      <point x="53" y="360"/>
    </contour>
  </outline>
</glyph>
<glyph name="Uacute" format="1">
  <advance width="781"/>
  <unicode hex="00DA"/>
  <outline>
    <contour>
      <point x="86" y="722" type="curve"/>
      <point x="86" y="573"/>
      <point x="86" y="424"/>
      <point x="86" y="275" type="curve"/>
      <point x="86" y="82"/>
      <point x="191" y="-5"/>
      <point x="389" y="-5" type="curve"/>
      <point x="588" y="-5"/>
      <point x="694" y="84"/>
      <point x="694" y="278" type="curve"/>
      <point x="694" y="426"/>
      <point x="694" y="574"/>
      <point x="694" y="722" type="curve"/>
      <point x="614" y="722"/>
      <point x="691" y="722"/>
      <point x="610" y="722" type="curve"/>
      <point x="610" y="569"/>
      <point x="610" y="421"/>
      <point x="610" y="269" type="curve"/>
      <point x="610" y="136"/>
      <point x="534" y="73"/>
      <point x="397" y="73" type="curve"/>
      <point x="246" y="73"/>
      <point x="171" y="141"/>
      <point x="171" y="288" type="curve"/>
      <point x="171" y="432"/>
      <point x="171" y="578"/>
      <point x="171" y="722" type="curve"/>
      <point x="90" y="722"/>
      <point x="167" y="722"/>
    </contour>
    <contour>
      <point x="434" y="801" type="line"/>
      <point x="585" y="967" type="line"/>
      <point x="466" y="967" type="line"/>
      <point x="343" y="801" type="line"/>
    </contour>
  </outline>
</glyph>
<glyph name="Ucircumflex" format="1">
  <advance width="781"/>
  <unicode hex="00DB"/>
  <outline>
    <contour>
      <point x="86" y="722" type="curve"/>
      <point x="86" y="573"/>
      <point x="86" y="424"/>
      <point x="86" y="275" type="curve"/>
      <point x="86" y="82"/>
      <point x="191" y="-5"/>
      <point x="389" y="-5" type="curve"/>
      <point x="588" y="-5"/>
      <point x="694" y="84"/>
      <point x="694" y="278" type="curve"/>
      <point x="694" y="426"/>
      <point x="694" y="574"/>
      <point x="694" y="722" type="curve"/>
      <point x="614" y="722"/>
      <point x="691" y="722"/>
      <point x="610" y="722" type="curve"/>
      <point x="610" y="569"/>
      <point x="610" y="421"/>
      <point x="610" y="269" type="curve"/>
      <point x="610" y="136"/>
      <point x="534" y="73"/>
      <point x="397" y="73" type="curve"/>
      <point x="246" y="73"/>
      <point x="171" y="141"/>
      <point x="171" y="288" type="curve"/>
      <point x="171" y="432"/>
      <point x="171" y="578"/>
      <point x="171" y="722" type="curve"/>
      <point x="90" y="722"/>
      <point x="167" y="722"/>
    </contour>
    <contour>
      <point x="285" y="801" type="line"/>
      <point x="436" y="967" type="line"/>
      <point x="316" y="967" type="line"/>
      <point x="194" y="801" type="line"/>
    </contour>
    <contour>
      <point x="592" y="801" type="line"/>
      <point x="468" y="967" type="line"/>
      <point x="349" y="967" type="line"/>
      <point x="499" y="801" type="line"/>
    </contour>
  </outline>
</glyph>
